%TF.GenerationSoftware,KiCad,Pcbnew,8.0.9*%
%TF.CreationDate,2025-09-02T19:01:46-04:00*%
%TF.ProjectId,Flight Controlelr,466c6967-6874-4204-936f-6e74726f6c65,rev?*%
%TF.SameCoordinates,Original*%
%TF.FileFunction,Soldermask,Bot*%
%TF.FilePolarity,Negative*%
%FSLAX46Y46*%
G04 Gerber Fmt 4.6, Leading zero omitted, Abs format (unit mm)*
G04 Created by KiCad (PCBNEW 8.0.9) date 2025-09-02 19:01:46*
%MOMM*%
%LPD*%
G01*
G04 APERTURE LIST*
%ADD10C,2.000000*%
%ADD11R,1.700000X1.700000*%
%ADD12O,1.700000X1.700000*%
%ADD13C,2.200000*%
%ADD14C,0.900000*%
%ADD15O,1.800000X1.000000*%
%ADD16O,2.100000X1.000000*%
%ADD17C,0.650000*%
G04 APERTURE END LIST*
D10*
%TO.C,SW1*%
X131357100Y-97926100D03*
X124857100Y-97926100D03*
X131357100Y-93426100D03*
X124857100Y-93426100D03*
%TD*%
D11*
%TO.C,J1*%
X146914100Y-88116100D03*
D12*
X149454100Y-88116100D03*
X151994099Y-88116100D03*
X154534100Y-88116100D03*
X157074100Y-88116100D03*
X159614100Y-88116100D03*
%TD*%
D13*
%TO.C,H1*%
X120117100Y-87862100D03*
%TD*%
D12*
%TO.C,J7*%
X165354100Y-123305100D03*
X165354100Y-125845101D03*
X165354100Y-128385100D03*
D11*
X165354100Y-130925100D03*
%TD*%
D14*
%TO.C,SW2*%
X141072100Y-85640100D03*
X138072100Y-85640100D03*
%TD*%
D12*
%TO.C,J13*%
X140691100Y-132272101D03*
X140691100Y-134812100D03*
D11*
X140691100Y-137352100D03*
%TD*%
D13*
%TO.C,H4*%
X165329100Y-135868100D03*
%TD*%
D12*
%TO.C,J21*%
X157074100Y-131311100D03*
X157074100Y-128771100D03*
D11*
X157074100Y-126231100D03*
%TD*%
D12*
%TO.C,J22*%
X133452100Y-131311100D03*
X133452100Y-128771100D03*
D11*
X133452100Y-126231100D03*
%TD*%
D13*
%TO.C,H2*%
X165583100Y-87862100D03*
%TD*%
D12*
%TO.C,J9*%
X145136100Y-122772101D03*
X145136100Y-125312100D03*
D11*
X145136100Y-127852100D03*
%TD*%
%TO.C,J4*%
X124689100Y-88116100D03*
D12*
X127229100Y-88116100D03*
X129769099Y-88116100D03*
X132309100Y-88116100D03*
%TD*%
%TO.C,J8*%
X140691100Y-122772101D03*
X140691100Y-125312100D03*
D11*
X140691100Y-127852100D03*
%TD*%
D12*
%TO.C,J6*%
X119482100Y-131052100D03*
X119482100Y-128512100D03*
X119482100Y-125972100D03*
D11*
X119482100Y-123432100D03*
%TD*%
D12*
%TO.C,J2*%
X119432100Y-106862100D03*
X119432100Y-109402100D03*
X119432100Y-111942100D03*
X119432100Y-114482101D03*
X119432100Y-117022100D03*
D11*
X119432100Y-119562100D03*
%TD*%
D12*
%TO.C,J17*%
X124181100Y-137402100D03*
X126721100Y-137402100D03*
X129261100Y-137402100D03*
X131801101Y-137402100D03*
X134341100Y-137402100D03*
D11*
X136881100Y-137402100D03*
%TD*%
D13*
%TO.C,H3*%
X119863100Y-135868100D03*
%TD*%
D15*
%TO.C,J23*%
X167329100Y-104391500D03*
D16*
X163149100Y-104391500D03*
D15*
X167329100Y-113031500D03*
D16*
X163149100Y-113031500D03*
D17*
X163649100Y-105821500D03*
X163649100Y-111601500D03*
%TD*%
D12*
%TO.C,J5*%
X124918100Y-109417100D03*
X124918100Y-111957101D03*
X124918100Y-114497100D03*
D11*
X124918100Y-117037100D03*
%TD*%
D12*
%TO.C,J11*%
X158197100Y-93094100D03*
D11*
X160737100Y-93094100D03*
%TD*%
D12*
%TO.C,J3*%
X165202100Y-92688100D03*
X165202100Y-95228101D03*
X165202100Y-97768100D03*
D11*
X165202100Y-100308100D03*
%TD*%
D12*
%TO.C,J10*%
X119482100Y-103102100D03*
X119482100Y-100562100D03*
X119482100Y-98022100D03*
X119482100Y-95482100D03*
D11*
X119482100Y-92942100D03*
%TD*%
D12*
%TO.C,J14*%
X149581100Y-132272101D03*
X149581100Y-134812100D03*
D11*
X149581100Y-137352100D03*
%TD*%
D12*
%TO.C,J15*%
X149581100Y-122757101D03*
X149581100Y-125297100D03*
D11*
X149581100Y-127837100D03*
%TD*%
D12*
%TO.C,J18*%
X153264100Y-137402100D03*
X155804101Y-137402100D03*
X158344100Y-137402100D03*
D11*
X160884100Y-137402100D03*
%TD*%
D12*
%TO.C,J12*%
X145136100Y-132272101D03*
X145136100Y-134812100D03*
D11*
X145136100Y-137352100D03*
%TD*%
M02*
