%TF.GenerationSoftware,KiCad,Pcbnew,8.0.9*%
%TF.CreationDate,2025-09-02T19:01:46-04:00*%
%TF.ProjectId,Flight Controlelr,466c6967-6874-4204-936f-6e74726f6c65,rev?*%
%TF.SameCoordinates,Original*%
%TF.FileFunction,Paste,Top*%
%TF.FilePolarity,Positive*%
%FSLAX46Y46*%
G04 Gerber Fmt 4.6, Leading zero omitted, Abs format (unit mm)*
G04 Created by KiCad (PCBNEW 8.0.9) date 2025-09-02 19:01:46*
%MOMM*%
%LPD*%
G01*
G04 APERTURE LIST*
G04 Aperture macros list*
%AMRoundRect*
0 Rectangle with rounded corners*
0 $1 Rounding radius*
0 $2 $3 $4 $5 $6 $7 $8 $9 X,Y pos of 4 corners*
0 Add a 4 corners polygon primitive as box body*
4,1,4,$2,$3,$4,$5,$6,$7,$8,$9,$2,$3,0*
0 Add four circle primitives for the rounded corners*
1,1,$1+$1,$2,$3*
1,1,$1+$1,$4,$5*
1,1,$1+$1,$6,$7*
1,1,$1+$1,$8,$9*
0 Add four rect primitives between the rounded corners*
20,1,$1+$1,$2,$3,$4,$5,0*
20,1,$1+$1,$4,$5,$6,$7,0*
20,1,$1+$1,$6,$7,$8,$9,0*
20,1,$1+$1,$8,$9,$2,$3,0*%
%AMRotRect*
0 Rectangle, with rotation*
0 The origin of the aperture is its center*
0 $1 length*
0 $2 width*
0 $3 Rotation angle, in degrees counterclockwise*
0 Add horizontal line*
21,1,$1,$2,0,0,$3*%
G04 Aperture macros list end*
%ADD10RoundRect,0.140000X0.140000X0.170000X-0.140000X0.170000X-0.140000X-0.170000X0.140000X-0.170000X0*%
%ADD11RoundRect,0.225000X-0.250000X0.225000X-0.250000X-0.225000X0.250000X-0.225000X0.250000X0.225000X0*%
%ADD12RoundRect,0.140000X-0.140000X-0.170000X0.140000X-0.170000X0.140000X0.170000X-0.140000X0.170000X0*%
%ADD13RoundRect,0.135000X0.185000X-0.135000X0.185000X0.135000X-0.185000X0.135000X-0.185000X-0.135000X0*%
%ADD14R,1.000000X0.800000*%
%ADD15R,0.700000X1.500000*%
%ADD16RoundRect,0.135000X-0.185000X0.135000X-0.185000X-0.135000X0.185000X-0.135000X0.185000X0.135000X0*%
%ADD17R,0.304800X0.533400*%
%ADD18R,0.533400X0.304800*%
%ADD19RoundRect,0.225000X0.250000X-0.225000X0.250000X0.225000X-0.250000X0.225000X-0.250000X-0.225000X0*%
%ADD20RoundRect,0.218750X0.218750X0.256250X-0.218750X0.256250X-0.218750X-0.256250X0.218750X-0.256250X0*%
%ADD21RoundRect,0.075000X-0.075000X-0.700000X0.075000X-0.700000X0.075000X0.700000X-0.075000X0.700000X0*%
%ADD22RoundRect,0.075000X-0.700000X-0.075000X0.700000X-0.075000X0.700000X0.075000X-0.700000X0.075000X0*%
%ADD23RoundRect,0.140000X0.170000X-0.140000X0.170000X0.140000X-0.170000X0.140000X-0.170000X-0.140000X0*%
%ADD24RoundRect,0.135000X-0.135000X-0.185000X0.135000X-0.185000X0.135000X0.185000X-0.135000X0.185000X0*%
%ADD25RoundRect,0.250000X-0.625000X0.375000X-0.625000X-0.375000X0.625000X-0.375000X0.625000X0.375000X0*%
%ADD26RoundRect,0.218750X-0.256250X0.218750X-0.256250X-0.218750X0.256250X-0.218750X0.256250X0.218750X0*%
%ADD27R,0.275000X0.250000*%
%ADD28R,0.250000X0.275000*%
%ADD29O,1.800000X1.000000*%
%ADD30O,2.100000X1.000000*%
%ADD31RoundRect,0.150000X0.425000X-0.150000X0.425000X0.150000X-0.425000X0.150000X-0.425000X-0.150000X0*%
%ADD32RoundRect,0.075000X0.500000X-0.075000X0.500000X0.075000X-0.500000X0.075000X-0.500000X-0.075000X0*%
%ADD33RoundRect,0.140000X-0.170000X0.140000X-0.170000X-0.140000X0.170000X-0.140000X0.170000X0.140000X0*%
%ADD34RoundRect,0.140000X-0.021213X0.219203X-0.219203X0.021213X0.021213X-0.219203X0.219203X-0.021213X0*%
%ADD35RotRect,1.400000X1.200000X225.000000*%
%ADD36RoundRect,0.150000X0.512500X0.150000X-0.512500X0.150000X-0.512500X-0.150000X0.512500X-0.150000X0*%
%ADD37RoundRect,0.218750X-0.218750X-0.256250X0.218750X-0.256250X0.218750X0.256250X-0.218750X0.256250X0*%
%ADD38RoundRect,0.135000X0.135000X0.185000X-0.135000X0.185000X-0.135000X-0.185000X0.135000X-0.185000X0*%
%ADD39RoundRect,0.140000X-0.219203X-0.021213X-0.021213X-0.219203X0.219203X0.021213X0.021213X0.219203X0*%
G04 APERTURE END LIST*
D10*
%TO.C,C14*%
X136909100Y-104499100D03*
X137869100Y-104499100D03*
%TD*%
D11*
%TO.C,C30*%
X150978100Y-102112100D03*
X150978100Y-100562100D03*
%TD*%
D12*
%TO.C,C10*%
X157653100Y-110222100D03*
X156693100Y-110222100D03*
%TD*%
D13*
%TO.C,R6*%
X152756100Y-110720101D03*
X152756100Y-111740099D03*
%TD*%
D14*
%TO.C,SW2*%
X143222100Y-86750100D03*
X143222100Y-84540100D03*
X135922100Y-86750100D03*
X135922100Y-84540100D03*
D15*
X141822100Y-87400100D03*
X138822100Y-87400100D03*
X137322100Y-87400100D03*
%TD*%
D11*
%TO.C,C20*%
X147041100Y-119384100D03*
X147041100Y-117834100D03*
%TD*%
D16*
%TO.C,R7*%
X138786100Y-89290100D03*
X138786100Y-90310098D03*
%TD*%
D17*
%TO.C,MT1*%
X140826101Y-96498100D03*
X141326100Y-96498100D03*
X141826099Y-96498100D03*
D18*
X142532600Y-96700599D03*
X142532600Y-97200600D03*
X142532600Y-97700600D03*
X142532600Y-98200601D03*
D17*
X141826099Y-98403100D03*
X141326100Y-98403100D03*
X140826101Y-98403100D03*
D18*
X140119600Y-98200601D03*
X140119600Y-97700600D03*
X140119600Y-97200600D03*
X140119600Y-96700599D03*
%TD*%
D12*
%TO.C,C31*%
X153337700Y-101578100D03*
X152377700Y-101578100D03*
%TD*%
D19*
%TO.C,C1*%
X144120100Y-96548600D03*
X144120100Y-98098600D03*
%TD*%
D20*
%TO.C,D1*%
X153924399Y-105311900D03*
X155499401Y-105311900D03*
%TD*%
D21*
%TO.C,U1*%
X140497100Y-104539100D03*
X140997100Y-104539100D03*
X141497100Y-104539100D03*
X141997100Y-104539100D03*
X142497100Y-104539100D03*
X142997100Y-104539100D03*
X143497100Y-104539100D03*
X143997100Y-104539100D03*
X144497100Y-104539100D03*
X144997100Y-104539100D03*
X145497100Y-104539100D03*
X145997100Y-104539100D03*
X146497100Y-104539100D03*
X146997100Y-104539100D03*
X147497100Y-104539100D03*
X147997100Y-104539100D03*
D22*
X149922100Y-106464100D03*
X149922100Y-106964100D03*
X149922100Y-107464100D03*
X149922100Y-107964100D03*
X149922100Y-108464100D03*
X149922100Y-108964100D03*
X149922100Y-109464100D03*
X149922100Y-109964100D03*
X149922100Y-110464100D03*
X149922100Y-110964100D03*
X149922100Y-111464100D03*
X149922100Y-111964100D03*
X149922100Y-112464100D03*
X149922100Y-112964100D03*
X149922100Y-113464100D03*
X149922100Y-113964100D03*
D21*
X147997100Y-115889100D03*
X147497100Y-115889100D03*
X146997100Y-115889100D03*
X146497100Y-115889100D03*
X145997100Y-115889100D03*
X145497100Y-115889100D03*
X144997100Y-115889100D03*
X144497100Y-115889100D03*
X143997100Y-115889100D03*
X143497100Y-115889100D03*
X142997100Y-115889100D03*
X142497100Y-115889100D03*
X141997100Y-115889100D03*
X141497100Y-115889100D03*
X140997100Y-115889100D03*
X140497100Y-115889100D03*
D22*
X138572100Y-113964100D03*
X138572100Y-113464100D03*
X138572100Y-112964100D03*
X138572100Y-112464100D03*
X138572100Y-111964100D03*
X138572100Y-111464100D03*
X138572100Y-110964100D03*
X138572100Y-110464100D03*
X138572100Y-109964100D03*
X138572100Y-109464100D03*
X138572100Y-108964100D03*
X138572100Y-108464100D03*
X138572100Y-107964100D03*
X138572100Y-107464100D03*
X138572100Y-106964100D03*
X138572100Y-106464100D03*
%TD*%
D23*
%TO.C,C17*%
X135611100Y-111258100D03*
X135611100Y-112218100D03*
%TD*%
D24*
%TO.C,R2*%
X140437100Y-95291600D03*
X139417102Y-95291600D03*
%TD*%
D25*
%TO.C,F3*%
X159741100Y-106153099D03*
X159741100Y-103353101D03*
%TD*%
D23*
%TO.C,C26*%
X156566100Y-99348100D03*
X156566100Y-100308100D03*
%TD*%
D10*
%TO.C,C28*%
X131166100Y-99292100D03*
X132126100Y-99292100D03*
%TD*%
%TO.C,C7*%
X140465100Y-117580100D03*
X141425100Y-117580100D03*
%TD*%
D24*
%TO.C,R12*%
X165585100Y-102848100D03*
X164565100Y-102848100D03*
%TD*%
D16*
%TO.C,R13*%
X156820100Y-106027098D03*
X156820100Y-105007100D03*
%TD*%
D26*
%TO.C,D8*%
X156693100Y-103127601D03*
X156693100Y-101552599D03*
%TD*%
D23*
%TO.C,C22*%
X136754100Y-107222100D03*
X136754100Y-108182100D03*
%TD*%
%TO.C,C4*%
X134341100Y-113290100D03*
X134341100Y-114250100D03*
%TD*%
D27*
%TO.C,U6*%
X156820100Y-112262100D03*
X156820100Y-112762100D03*
X156820100Y-113262100D03*
D28*
X156308100Y-113525100D03*
X155808100Y-113525100D03*
D27*
X155296100Y-113262100D03*
X155296100Y-112762100D03*
X155296100Y-112262100D03*
D28*
X155808100Y-111999100D03*
X156308100Y-111999100D03*
%TD*%
D23*
%TO.C,C18*%
X136754100Y-111258100D03*
X136754100Y-112218100D03*
%TD*%
D29*
%TO.C,J23*%
X167329100Y-104391500D03*
D30*
X163149100Y-104391500D03*
D29*
X167329100Y-113031500D03*
D30*
X163149100Y-113031500D03*
D31*
X162574100Y-111911500D03*
X162574100Y-111111500D03*
D32*
X162574100Y-110461500D03*
X162574100Y-109461500D03*
X162574100Y-107961500D03*
X162574100Y-106961500D03*
D31*
X162574100Y-106311500D03*
X162574100Y-105511500D03*
X162574100Y-105511500D03*
X162574100Y-106311500D03*
D32*
X162574101Y-107461500D03*
X162574100Y-108461500D03*
X162574100Y-108961500D03*
X162574101Y-109961500D03*
D31*
X162574100Y-111111500D03*
X162574100Y-111911500D03*
%TD*%
D33*
%TO.C,C2*%
X143866100Y-100280100D03*
X143866100Y-99320100D03*
%TD*%
D34*
%TO.C,C16*%
X148521278Y-117750922D03*
X149200100Y-117072100D03*
%TD*%
D12*
%TO.C,C15*%
X140917100Y-102975100D03*
X139957100Y-102975100D03*
%TD*%
D35*
%TO.C,Y1*%
X133941958Y-107243323D03*
X132386323Y-108798958D03*
X131184242Y-107596877D03*
X132739877Y-106041242D03*
%TD*%
D36*
%TO.C,U4*%
X152761600Y-100242099D03*
X152761600Y-98342101D03*
X155036600Y-98342101D03*
X155036600Y-99292100D03*
X155036600Y-100242099D03*
%TD*%
D37*
%TO.C,D7*%
X159792100Y-101578100D03*
X158217100Y-101578100D03*
%TD*%
%TO.C,FB1*%
X134112600Y-111992100D03*
X132537600Y-111992100D03*
%TD*%
D33*
%TO.C,C9*%
X158725100Y-113234100D03*
X158725100Y-112274100D03*
%TD*%
D24*
%TO.C,R11*%
X165585100Y-114659100D03*
X164565100Y-114659100D03*
%TD*%
D19*
%TO.C,C27*%
X157963100Y-98504100D03*
X157963100Y-100054100D03*
%TD*%
D12*
%TO.C,C6*%
X151303100Y-105388100D03*
X150343100Y-105388100D03*
%TD*%
D19*
%TO.C,C13*%
X138659100Y-101438100D03*
X138659100Y-102988100D03*
%TD*%
D12*
%TO.C,C21*%
X137869100Y-105515100D03*
X136909100Y-105515100D03*
%TD*%
D38*
%TO.C,R1*%
X141707100Y-95291600D03*
X142727098Y-95291600D03*
%TD*%
D39*
%TO.C,C3*%
X141326100Y-100435100D03*
X140647278Y-99756278D03*
%TD*%
D23*
%TO.C,C5*%
X134341100Y-115195100D03*
X134341100Y-116155100D03*
%TD*%
D24*
%TO.C,R4*%
X133325100Y-115294100D03*
X132305102Y-115294100D03*
%TD*%
D12*
%TO.C,C29*%
X153617100Y-97006100D03*
X152657100Y-97006100D03*
%TD*%
D16*
%TO.C,R9*%
X155804100Y-116312099D03*
X155804100Y-115292101D03*
%TD*%
D38*
%TO.C,R5*%
X154534100Y-110087100D03*
X155554098Y-110087100D03*
%TD*%
D24*
%TO.C,R3*%
X133327100Y-113389100D03*
X132307100Y-113389100D03*
%TD*%
D33*
%TO.C,C23*%
X136754100Y-110285100D03*
X136754100Y-109325100D03*
%TD*%
M02*
