%TF.GenerationSoftware,KiCad,Pcbnew,8.0.9*%
%TF.CreationDate,2025-09-02T19:01:46-04:00*%
%TF.ProjectId,Flight Controlelr,466c6967-6874-4204-936f-6e74726f6c65,rev?*%
%TF.SameCoordinates,Original*%
%TF.FileFunction,Copper,L2,Bot*%
%TF.FilePolarity,Positive*%
%FSLAX46Y46*%
G04 Gerber Fmt 4.6, Leading zero omitted, Abs format (unit mm)*
G04 Created by KiCad (PCBNEW 8.0.9) date 2025-09-02 19:01:46*
%MOMM*%
%LPD*%
G01*
G04 APERTURE LIST*
%TA.AperFunction,ComponentPad*%
%ADD10C,2.000000*%
%TD*%
%TA.AperFunction,ComponentPad*%
%ADD11R,1.700000X1.700000*%
%TD*%
%TA.AperFunction,ComponentPad*%
%ADD12O,1.700000X1.700000*%
%TD*%
%TA.AperFunction,ComponentPad*%
%ADD13O,1.800000X1.000000*%
%TD*%
%TA.AperFunction,ComponentPad*%
%ADD14O,2.100000X1.000000*%
%TD*%
%TA.AperFunction,ViaPad*%
%ADD15C,0.600000*%
%TD*%
%TA.AperFunction,ViaPad*%
%ADD16C,0.500000*%
%TD*%
%TA.AperFunction,ViaPad*%
%ADD17C,0.889000*%
%TD*%
%TA.AperFunction,Conductor*%
%ADD18C,0.177800*%
%TD*%
%TA.AperFunction,Conductor*%
%ADD19C,0.298450*%
%TD*%
%TA.AperFunction,Conductor*%
%ADD20C,0.203200*%
%TD*%
%TA.AperFunction,Conductor*%
%ADD21C,0.635000*%
%TD*%
%TA.AperFunction,Conductor*%
%ADD22C,0.508000*%
%TD*%
%TA.AperFunction,Conductor*%
%ADD23C,0.279400*%
%TD*%
%TA.AperFunction,Conductor*%
%ADD24C,0.889000*%
%TD*%
G04 APERTURE END LIST*
D10*
%TO.P,SW1,2,2*%
%TO.N,N/C*%
X131357100Y-97926100D03*
X124857100Y-97926100D03*
%TO.P,SW1,1,1*%
X131357100Y-93426100D03*
X124857100Y-93426100D03*
%TD*%
D11*
%TO.P,J1,1,Pin_1*%
%TO.N,GND*%
X146914100Y-88116100D03*
D12*
%TO.P,J1,2,Pin_2*%
%TO.N,N/C*%
X149454100Y-88116100D03*
%TO.P,J1,3,Pin_3*%
X151994099Y-88116100D03*
%TO.P,J1,4,Pin_4*%
X154534100Y-88116100D03*
%TO.P,J1,5,Pin_5*%
X157074100Y-88116100D03*
%TO.P,J1,6,Pin_6*%
X159614100Y-88116100D03*
%TD*%
%TO.P,J7,4,Pin_4*%
%TO.N,GND*%
X165354100Y-123305100D03*
%TO.P,J7,3,Pin_3*%
%TO.N,N/C*%
X165354100Y-125845101D03*
%TO.P,J7,2,Pin_2*%
X165354100Y-128385100D03*
D11*
%TO.P,J7,1,Pin_1*%
X165354100Y-130925100D03*
%TD*%
D12*
%TO.P,J13,3,Pin_3*%
%TO.N,N/C*%
X140691100Y-132272101D03*
%TO.P,J13,2,Pin_2*%
X140691100Y-134812100D03*
D11*
%TO.P,J13,1,Pin_1*%
%TO.N,GND*%
X140691100Y-137352100D03*
%TD*%
D12*
%TO.P,J21,3,Pin_3*%
%TO.N,GND*%
X157074100Y-131311100D03*
%TO.P,J21,2,Pin_2*%
%TO.N,N/C*%
X157074100Y-128771100D03*
D11*
%TO.P,J21,1,Pin_1*%
%TO.N,TIM12_CH1*%
X157074100Y-126231100D03*
%TD*%
D12*
%TO.P,J22,3,Pin_3*%
%TO.N,GND*%
X133452100Y-131311100D03*
%TO.P,J22,2,Pin_2*%
%TO.N,N/C*%
X133452100Y-128771100D03*
D11*
%TO.P,J22,1,Pin_1*%
%TO.N,TIM12_CH2*%
X133452100Y-126231100D03*
%TD*%
D12*
%TO.P,J9,3,Pin_3*%
%TO.N,N/C*%
X145136100Y-122772101D03*
%TO.P,J9,2,Pin_2*%
X145136100Y-125312100D03*
D11*
%TO.P,J9,1,Pin_1*%
%TO.N,GND*%
X145136100Y-127852100D03*
%TD*%
%TO.P,J4,1,Pin_1*%
%TO.N,GND*%
X124689100Y-88116100D03*
D12*
%TO.P,J4,2,Pin_2*%
%TO.N,N/C*%
X127229100Y-88116100D03*
%TO.P,J4,3,Pin_3*%
X129769099Y-88116100D03*
%TO.P,J4,4,Pin_4*%
X132309100Y-88116100D03*
%TD*%
%TO.P,J8,3,Pin_3*%
%TO.N,N/C*%
X140691100Y-122772101D03*
%TO.P,J8,2,Pin_2*%
X140691100Y-125312100D03*
D11*
%TO.P,J8,1,Pin_1*%
%TO.N,GND*%
X140691100Y-127852100D03*
%TD*%
D12*
%TO.P,J6,4,Pin_4*%
%TO.N,GND*%
X119482100Y-131052100D03*
%TO.P,J6,3,Pin_3*%
%TO.N,N/C*%
X119482100Y-128512100D03*
%TO.P,J6,2,Pin_2*%
X119482100Y-125972100D03*
D11*
%TO.P,J6,1,Pin_1*%
X119482100Y-123432100D03*
%TD*%
D12*
%TO.P,J2,6,Pin_6*%
%TO.N,N/C*%
X119432100Y-106862100D03*
%TO.P,J2,5,Pin_5*%
X119432100Y-109402100D03*
%TO.P,J2,4,Pin_4*%
X119432100Y-111942100D03*
%TO.P,J2,3,Pin_3*%
X119432100Y-114482101D03*
%TO.P,J2,2,Pin_2*%
X119432100Y-117022100D03*
D11*
%TO.P,J2,1,Pin_1*%
%TO.N,GND*%
X119432100Y-119562100D03*
%TD*%
D12*
%TO.P,J17,6,Pin_6*%
%TO.N,N/C*%
X124181100Y-137402100D03*
%TO.P,J17,5,Pin_5*%
X126721100Y-137402100D03*
%TO.P,J17,4,Pin_4*%
X129261100Y-137402100D03*
%TO.P,J17,3,Pin_3*%
X131801101Y-137402100D03*
%TO.P,J17,2,Pin_2*%
X134341100Y-137402100D03*
D11*
%TO.P,J17,1,Pin_1*%
%TO.N,GND*%
X136881100Y-137402100D03*
%TD*%
D13*
%TO.P,J23,S1,SHIELD*%
%TO.N,GND*%
X167329100Y-104391500D03*
D14*
X163149100Y-104391500D03*
D13*
X167329100Y-113031500D03*
D14*
X163149100Y-113031500D03*
%TD*%
D12*
%TO.P,J5,4,Pin_4*%
%TO.N,N/C*%
X124918100Y-109417100D03*
%TO.P,J5,3,Pin_3*%
X124918100Y-111957101D03*
%TO.P,J5,2,Pin_2*%
X124918100Y-114497100D03*
D11*
%TO.P,J5,1,Pin_1*%
%TO.N,GND*%
X124918100Y-117037100D03*
%TD*%
D12*
%TO.P,J11,2,Pin_2*%
%TO.N,N/C*%
X158197100Y-93094100D03*
D11*
%TO.P,J11,1,Pin_1*%
X160737100Y-93094100D03*
%TD*%
D12*
%TO.P,J3,4,Pin_4*%
%TO.N,GND*%
X165202100Y-92688100D03*
%TO.P,J3,3,Pin_3*%
%TO.N,N/C*%
X165202100Y-95228101D03*
%TO.P,J3,2,Pin_2*%
X165202100Y-97768100D03*
D11*
%TO.P,J3,1,Pin_1*%
X165202100Y-100308100D03*
%TD*%
D12*
%TO.P,J10,5,Pin_5*%
%TO.N,GND*%
X119482100Y-103102100D03*
%TO.P,J10,4,Pin_4*%
%TO.N,N/C*%
X119482100Y-100562100D03*
%TO.P,J10,3,Pin_3*%
X119482100Y-98022100D03*
%TO.P,J10,2,Pin_2*%
X119482100Y-95482100D03*
D11*
%TO.P,J10,1,Pin_1*%
X119482100Y-92942100D03*
%TD*%
D12*
%TO.P,J14,3,Pin_3*%
%TO.N,N/C*%
X149581100Y-132272101D03*
%TO.P,J14,2,Pin_2*%
X149581100Y-134812100D03*
D11*
%TO.P,J14,1,Pin_1*%
%TO.N,GND*%
X149581100Y-137352100D03*
%TD*%
D12*
%TO.P,J15,3,Pin_3*%
%TO.N,N/C*%
X149581100Y-122757101D03*
%TO.P,J15,2,Pin_2*%
X149581100Y-125297100D03*
D11*
%TO.P,J15,1,Pin_1*%
%TO.N,GND*%
X149581100Y-127837100D03*
%TD*%
D12*
%TO.P,J18,4,Pin_4*%
%TO.N,N/C*%
X153264100Y-137402100D03*
%TO.P,J18,3,Pin_3*%
X155804101Y-137402100D03*
%TO.P,J18,2,Pin_2*%
X158344100Y-137402100D03*
D11*
%TO.P,J18,1,Pin_1*%
%TO.N,GND*%
X160884100Y-137402100D03*
%TD*%
D12*
%TO.P,J12,3,Pin_3*%
%TO.N,N/C*%
X145136100Y-132272101D03*
%TO.P,J12,2,Pin_2*%
X145136100Y-134812100D03*
D11*
%TO.P,J12,1,Pin_1*%
%TO.N,GND*%
X145136100Y-137352100D03*
%TD*%
D15*
%TO.N,*%
X144882100Y-117707100D03*
X148184100Y-108309100D03*
X134468100Y-103229100D03*
X140310100Y-112881100D03*
X148057100Y-109579100D03*
X144882100Y-113135100D03*
X148184100Y-107039100D03*
X142355373Y-108020140D03*
X144247100Y-114278100D03*
X142469100Y-106785100D03*
X139167100Y-104626100D03*
X145898100Y-114278100D03*
X141707100Y-109071100D03*
X145898100Y-112373100D03*
X147549100Y-106150100D03*
%TO.N,GND*%
X117323100Y-124438100D03*
X141961100Y-99800100D03*
D16*
%TO.N,*%
X158471100Y-106912100D03*
X161011100Y-110849100D03*
D15*
%TO.N,GND*%
X154102300Y-103660900D03*
D16*
X157328100Y-106912100D03*
D15*
X122022100Y-85068100D03*
X126086100Y-85068100D03*
X135230100Y-114278100D03*
X144882100Y-100562100D03*
X167869100Y-129772100D03*
X137262100Y-101451100D03*
X153594300Y-95964700D03*
%TO.N,*%
X141988885Y-110186315D03*
X141412479Y-111143721D03*
%TO.N,GND*%
X158979100Y-114278100D03*
X148361900Y-119358100D03*
%TO.N,*%
X141199100Y-112246100D03*
%TO.N,GND*%
X152375100Y-105388100D03*
X167869100Y-133709100D03*
X132055100Y-94720100D03*
X149758900Y-102086100D03*
X123355600Y-122152100D03*
X131039100Y-85068100D03*
X128245100Y-122152100D03*
X117323100Y-133836100D03*
X153645100Y-114024100D03*
X156896300Y-98352300D03*
X167869100Y-124692100D03*
X144755100Y-95736100D03*
X133134600Y-122152100D03*
X138913100Y-96700599D03*
X133325100Y-116564100D03*
X117323100Y-129327601D03*
X154026100Y-111230100D03*
D16*
X157653100Y-110905100D03*
D15*
X139675100Y-117580100D03*
%TO.N,*%
X140183100Y-99292100D03*
X156693100Y-116310100D03*
X145263100Y-98149100D03*
X155238151Y-103057975D03*
X156312100Y-109452100D03*
X138659100Y-94466100D03*
X138659100Y-130026100D03*
X158725100Y-111357100D03*
%TO.N,GND*%
X165581100Y-115802100D03*
X135611100Y-110239500D03*
%TO.N,*%
X152756100Y-110087100D03*
D17*
X152502100Y-103356100D03*
D15*
%TO.N,GND*%
X136119100Y-106378700D03*
%TO.N,*%
X137135100Y-102975100D03*
%TO.N,GND*%
X130073900Y-106429500D03*
%TO.N,*%
X151359100Y-130026100D03*
%TO.N,GND*%
X131547100Y-100308100D03*
%TO.N,I2C1_SDA*%
X140437100Y-94275600D03*
%TO.N,I2C1_SCL*%
X141707100Y-94275600D03*
X144501100Y-101959100D03*
%TO.N,TIM12_CH2*%
X148311100Y-111865100D03*
%TO.N,NRST*%
X140564100Y-109071100D03*
X130404100Y-97768100D03*
%TO.N,I2C1_SDA*%
X142997100Y-101852100D03*
%TO.N,NRST*%
X135814300Y-103305300D03*
X126009900Y-97742700D03*
%TO.N,*%
X150089100Y-117961100D03*
%TD*%
D18*
%TO.N,*%
X149581100Y-131042100D02*
X147295100Y-128756100D01*
X142215100Y-115929100D02*
X143373200Y-114771000D01*
X147168100Y-120344101D02*
X147168100Y-115548100D01*
X144154218Y-113135100D02*
X144882100Y-113135100D01*
D19*
X158197100Y-93094100D02*
X155143706Y-93094100D01*
X148483325Y-105520675D02*
X148483325Y-106739875D01*
D18*
X143485100Y-130621101D02*
X145136100Y-132272101D01*
D19*
X160737100Y-93094100D02*
X155962075Y-97869125D01*
D18*
X143485100Y-117868218D02*
X143485100Y-130621101D01*
X143373200Y-113916118D02*
X144154218Y-113135100D01*
X147168100Y-115548100D02*
X145898100Y-114278100D01*
D19*
X152660075Y-95577731D02*
X152660075Y-96771925D01*
D18*
X147295100Y-128756100D02*
X147295100Y-121517100D01*
X139717182Y-105311900D02*
X140995900Y-105311900D01*
D19*
X147549100Y-101882900D02*
X147549100Y-106150100D01*
D18*
X149581100Y-122757101D02*
X147168100Y-120344101D01*
X149581100Y-132272101D02*
X149581100Y-131042100D01*
X142215100Y-130748101D02*
X142215100Y-115929100D01*
X144882100Y-119104100D02*
X144882100Y-117707100D01*
X140691100Y-132272101D02*
X142215100Y-130748101D01*
D19*
X155143706Y-93094100D02*
X152660075Y-95577731D01*
X155962075Y-98041925D02*
X148483325Y-105520675D01*
D18*
X144247100Y-117106218D02*
X143485100Y-117868218D01*
X144247100Y-114278100D02*
X144247100Y-117106218D01*
X147295100Y-121517100D02*
X144882100Y-119104100D01*
D19*
X148483325Y-106739875D02*
X148184100Y-107039100D01*
D18*
X143373200Y-114771000D02*
X143373200Y-113916118D01*
D19*
X155962075Y-97869125D02*
X155962075Y-98041925D01*
X152660075Y-96771925D02*
X147549100Y-101882900D01*
D18*
X141707100Y-108607749D02*
X140846451Y-107747100D01*
X126667100Y-107747100D02*
X119482100Y-100562100D01*
X143866100Y-112246100D02*
X145771100Y-112246100D01*
X140995900Y-105311900D02*
X142469100Y-106785100D01*
X129500000Y-105500000D02*
X139529082Y-105500000D01*
X141704533Y-107369300D02*
X128829300Y-107369300D01*
X119482100Y-95482100D02*
X129500000Y-105500000D01*
X142355373Y-108020140D02*
X141704533Y-107369300D01*
X128829300Y-107369300D02*
X119482100Y-98022100D01*
X141707100Y-109071100D02*
X141707100Y-108607749D01*
X145771100Y-112246100D02*
X145898100Y-112373100D01*
X140846451Y-107747100D02*
X126667100Y-107747100D01*
X140691100Y-115421100D02*
X143866100Y-112246100D01*
X140691100Y-122772101D02*
X140691100Y-115421100D01*
D20*
X135865100Y-104626100D02*
X139167100Y-104626100D01*
X134468100Y-103229100D02*
X135865100Y-104626100D01*
D18*
X139529082Y-105500000D02*
X139717182Y-105311900D01*
X141988885Y-110186315D02*
X141762670Y-109960100D01*
X139152000Y-112007200D02*
X132690100Y-118469100D01*
X140960200Y-112007200D02*
X139152000Y-112007200D01*
X136567582Y-109960100D02*
X135973082Y-109365600D01*
D21*
X161011100Y-110849100D02*
X161011100Y-109452100D01*
D19*
X164831100Y-98012100D02*
X154280100Y-108563100D01*
X151613100Y-109579100D02*
X148057100Y-109579100D01*
D18*
X141762670Y-109960100D02*
X136567582Y-109960100D01*
D19*
X154280100Y-108563100D02*
X152629100Y-108563100D01*
D18*
X122276100Y-119866100D02*
X119432100Y-117022100D01*
X120671001Y-113181001D02*
X119432100Y-111942100D01*
D19*
X164440099Y-95228101D02*
X151359100Y-108309100D01*
X165202100Y-95228101D02*
X164440099Y-95228101D01*
D18*
X133706100Y-119866100D02*
X122276100Y-119866100D01*
X140310100Y-112881100D02*
X140310100Y-113262100D01*
X140310100Y-113262100D02*
X133706100Y-119866100D01*
X125425056Y-110641000D02*
X120671000Y-110641000D01*
X123419099Y-118469100D02*
X119432100Y-114482101D01*
X132690100Y-118469100D02*
X123419099Y-118469100D01*
X135973082Y-109365600D02*
X126700456Y-109365600D01*
X136742317Y-113181001D02*
X120671001Y-113181001D01*
X141412479Y-111143721D02*
X138779597Y-111143721D01*
D19*
X151359100Y-108309100D02*
X148184100Y-108309100D01*
D18*
X126700456Y-109365600D02*
X125425056Y-110641000D01*
X138779597Y-111143721D02*
X136742317Y-113181001D01*
D19*
X152629100Y-108563100D02*
X151613100Y-109579100D01*
D18*
X120671000Y-110641000D02*
X119432100Y-109402100D01*
X141199100Y-112246100D02*
X140960200Y-112007200D01*
D22*
%TO.N,NRST*%
X130378700Y-97742700D02*
X130404100Y-97768100D01*
D23*
%TO.N,I2C1_SDA*%
X140437100Y-94720100D02*
X140437100Y-94275600D01*
D18*
%TO.N,TIM12_CH2*%
X133452100Y-126231100D02*
X137643100Y-122040100D01*
D23*
%TO.N,I2C1_SCL*%
X144501100Y-101959100D02*
X143866100Y-101324100D01*
D18*
%TO.N,TIM12_CH2*%
X137643100Y-117326100D02*
X143470000Y-111499200D01*
X143470000Y-111499200D02*
X147945200Y-111499200D01*
D23*
%TO.N,I2C1_SDA*%
X141326100Y-96879100D02*
X141326100Y-95609100D01*
X142997100Y-98550100D02*
X141326100Y-96879100D01*
D22*
%TO.N,NRST*%
X126009900Y-97742700D02*
X130378700Y-97742700D01*
D23*
%TO.N,I2C1_SCL*%
X143866100Y-101324100D02*
X143866100Y-96434600D01*
D18*
%TO.N,TIM12_CH2*%
X147945200Y-111499200D02*
X148311100Y-111865100D01*
X137643100Y-122040100D02*
X137643100Y-117326100D01*
D23*
%TO.N,I2C1_SDA*%
X141326100Y-95609100D02*
X140437100Y-94720100D01*
X142997100Y-101852100D02*
X142997100Y-98550100D01*
%TO.N,I2C1_SCL*%
X143866100Y-96434600D02*
X141707100Y-94275600D01*
D21*
%TO.N,*%
X161011100Y-109452100D02*
X158471100Y-106912100D01*
D24*
X153630100Y-128771100D02*
X157074100Y-128771100D01*
X136388100Y-128771100D02*
X133452100Y-128771100D01*
X152375100Y-130026100D02*
X153630100Y-128771100D01*
X151359100Y-130026100D02*
X152375100Y-130026100D01*
X138659100Y-130026100D02*
X137643100Y-130026100D01*
X137643100Y-130026100D02*
X136388100Y-128771100D01*
D22*
X155423100Y-109452100D02*
X156312100Y-109452100D01*
X155042100Y-117961100D02*
X156693100Y-116310100D01*
X150089100Y-117961100D02*
X155042100Y-117961100D01*
X157709100Y-115294100D02*
X156693100Y-116310100D01*
X157709100Y-112373100D02*
X157709100Y-115294100D01*
X154788100Y-110087100D02*
X155423100Y-109452100D01*
X158725100Y-111357100D02*
X157709100Y-112373100D01*
X152756100Y-110087100D02*
X154788100Y-110087100D01*
%TD*%
%TA.AperFunction,Conductor*%
%TO.N,GND*%
G36*
X147970703Y-121812396D02*
G01*
X147977181Y-121818428D01*
X148384378Y-122225625D01*
X148417863Y-122286948D01*
X148416472Y-122345399D01*
X148363678Y-122542430D01*
X148363676Y-122542440D01*
X148344896Y-122757100D01*
X148344896Y-122757101D01*
X148363676Y-122971761D01*
X148363678Y-122971771D01*
X148419445Y-123179900D01*
X148419447Y-123179904D01*
X148419448Y-123179908D01*
X148447131Y-123239274D01*
X148510515Y-123375202D01*
X148510516Y-123375204D01*
X148634109Y-123551713D01*
X148634114Y-123551719D01*
X148786481Y-123704086D01*
X148786487Y-123704091D01*
X148962996Y-123827684D01*
X148962998Y-123827685D01*
X149149642Y-123914719D01*
X149202080Y-123960890D01*
X149221232Y-124028084D01*
X149201016Y-124094965D01*
X149149641Y-124139482D01*
X148962998Y-124226515D01*
X148962996Y-124226516D01*
X148786487Y-124350109D01*
X148786481Y-124350114D01*
X148634114Y-124502481D01*
X148634109Y-124502487D01*
X148510516Y-124678996D01*
X148510515Y-124678998D01*
X148419449Y-124874291D01*
X148419445Y-124874300D01*
X148363678Y-125082429D01*
X148363676Y-125082439D01*
X148344896Y-125297099D01*
X148344896Y-125297100D01*
X148363676Y-125511760D01*
X148363678Y-125511770D01*
X148419445Y-125719899D01*
X148419447Y-125719903D01*
X148419448Y-125719907D01*
X148436945Y-125757429D01*
X148510515Y-125915201D01*
X148510516Y-125915203D01*
X148634109Y-126091712D01*
X148634114Y-126091718D01*
X148786481Y-126244085D01*
X148786487Y-126244090D01*
X148811387Y-126261525D01*
X148855012Y-126316101D01*
X148862206Y-126385599D01*
X148830684Y-126447954D01*
X148770454Y-126483369D01*
X148740264Y-126487100D01*
X148683255Y-126487100D01*
X148623727Y-126493501D01*
X148623720Y-126493503D01*
X148489013Y-126543745D01*
X148489006Y-126543749D01*
X148373912Y-126629909D01*
X148373909Y-126629912D01*
X148287749Y-126745006D01*
X148287745Y-126745013D01*
X148237503Y-126879720D01*
X148237501Y-126879727D01*
X148231100Y-126939255D01*
X148231100Y-127587100D01*
X149148088Y-127587100D01*
X149115175Y-127644107D01*
X149081100Y-127771274D01*
X149081100Y-127902926D01*
X149115175Y-128030093D01*
X149148088Y-128087100D01*
X148231100Y-128087100D01*
X148231100Y-128727492D01*
X148211415Y-128794531D01*
X148158611Y-128840286D01*
X148089453Y-128850230D01*
X148025897Y-128821205D01*
X148019419Y-128815173D01*
X147801819Y-128597573D01*
X147768334Y-128536250D01*
X147765500Y-128509892D01*
X147765500Y-121906109D01*
X147785185Y-121839070D01*
X147837989Y-121793315D01*
X147907147Y-121783371D01*
X147970703Y-121812396D01*
G37*
%TD.AperFunction*%
%TA.AperFunction,Conductor*%
G36*
X136610229Y-113671086D02*
G01*
X136655984Y-113723890D01*
X136665928Y-113793048D01*
X136636903Y-113856604D01*
X136630871Y-113863082D01*
X132531573Y-117962381D01*
X132470250Y-117995866D01*
X132443892Y-117998700D01*
X126392100Y-117998700D01*
X126325061Y-117979015D01*
X126279306Y-117926211D01*
X126268100Y-117874700D01*
X126268100Y-117287100D01*
X125351112Y-117287100D01*
X125384025Y-117230093D01*
X125418100Y-117102926D01*
X125418100Y-116971274D01*
X125384025Y-116844107D01*
X125351112Y-116787100D01*
X126268100Y-116787100D01*
X126268100Y-116139272D01*
X126268099Y-116139255D01*
X126261698Y-116079727D01*
X126261696Y-116079720D01*
X126211454Y-115945013D01*
X126211450Y-115945006D01*
X126125290Y-115829912D01*
X126125287Y-115829909D01*
X126010193Y-115743749D01*
X126010186Y-115743745D01*
X125875479Y-115693503D01*
X125875472Y-115693501D01*
X125815944Y-115687100D01*
X125758936Y-115687100D01*
X125691897Y-115667415D01*
X125646142Y-115614611D01*
X125636198Y-115545453D01*
X125665223Y-115481897D01*
X125687813Y-115461525D01*
X125690085Y-115459933D01*
X125712717Y-115444087D01*
X125865087Y-115291717D01*
X125988684Y-115115202D01*
X126079752Y-114919907D01*
X126135523Y-114711765D01*
X126154304Y-114497100D01*
X126135523Y-114282435D01*
X126086559Y-114099698D01*
X126079754Y-114074300D01*
X126079753Y-114074299D01*
X126079752Y-114074293D01*
X125988684Y-113878998D01*
X125978182Y-113863999D01*
X125965946Y-113846524D01*
X125943619Y-113780318D01*
X125960629Y-113712551D01*
X126011578Y-113664738D01*
X126067521Y-113651401D01*
X136543190Y-113651401D01*
X136610229Y-113671086D01*
G37*
%TD.AperFunction*%
%TA.AperFunction,Conductor*%
G36*
X120607305Y-113651168D02*
G01*
X120609068Y-113651400D01*
X120609071Y-113651401D01*
X120609072Y-113651401D01*
X123768679Y-113651401D01*
X123835718Y-113671086D01*
X123881473Y-113723890D01*
X123891417Y-113793048D01*
X123870254Y-113846524D01*
X123847516Y-113878996D01*
X123847515Y-113878998D01*
X123756449Y-114074291D01*
X123756445Y-114074300D01*
X123700678Y-114282429D01*
X123700676Y-114282439D01*
X123681896Y-114497099D01*
X123681896Y-114497100D01*
X123700676Y-114711760D01*
X123700678Y-114711770D01*
X123756445Y-114919899D01*
X123756447Y-114919903D01*
X123756448Y-114919907D01*
X123800127Y-115013576D01*
X123847515Y-115115201D01*
X123847516Y-115115203D01*
X123971109Y-115291712D01*
X123971113Y-115291717D01*
X124123481Y-115444085D01*
X124123487Y-115444090D01*
X124148387Y-115461525D01*
X124192012Y-115516101D01*
X124199206Y-115585599D01*
X124167684Y-115647954D01*
X124107454Y-115683369D01*
X124077264Y-115687100D01*
X124020255Y-115687100D01*
X123960727Y-115693501D01*
X123960720Y-115693503D01*
X123826013Y-115743745D01*
X123826006Y-115743749D01*
X123710912Y-115829909D01*
X123710909Y-115829912D01*
X123624749Y-115945006D01*
X123624745Y-115945013D01*
X123574503Y-116079720D01*
X123574501Y-116079727D01*
X123568100Y-116139255D01*
X123568100Y-116787100D01*
X124485088Y-116787100D01*
X124452175Y-116844107D01*
X124418100Y-116971274D01*
X124418100Y-117102926D01*
X124452175Y-117230093D01*
X124485088Y-117287100D01*
X123568100Y-117287100D01*
X123568100Y-117653493D01*
X123548415Y-117720532D01*
X123495611Y-117766287D01*
X123426453Y-117776231D01*
X123362897Y-117747206D01*
X123356419Y-117741174D01*
X120628821Y-115013576D01*
X120595336Y-114952253D01*
X120596726Y-114893805D01*
X120649523Y-114696766D01*
X120668304Y-114482101D01*
X120649523Y-114267436D01*
X120593752Y-114059294D01*
X120502684Y-113863999D01*
X120489541Y-113845229D01*
X120467215Y-113779025D01*
X120484225Y-113711257D01*
X120535173Y-113663444D01*
X120603883Y-113650766D01*
X120607305Y-113651168D01*
G37*
%TD.AperFunction*%
%TA.AperFunction,Conductor*%
G36*
X135793913Y-109855685D02*
G01*
X135814555Y-109872319D01*
X136191168Y-110248932D01*
X136278750Y-110336514D01*
X136386014Y-110398443D01*
X136445833Y-110414471D01*
X136505652Y-110430500D01*
X136505653Y-110430500D01*
X138682014Y-110430500D01*
X138749053Y-110450185D01*
X138794808Y-110502989D01*
X138804752Y-110572147D01*
X138775727Y-110635703D01*
X138716949Y-110673477D01*
X138714107Y-110674275D01*
X138661078Y-110688483D01*
X138661079Y-110688484D01*
X138598027Y-110705378D01*
X138598026Y-110705379D01*
X138490768Y-110767305D01*
X138490762Y-110767309D01*
X136583790Y-112674282D01*
X136522467Y-112707767D01*
X136496109Y-112710601D01*
X126120188Y-112710601D01*
X126053149Y-112690916D01*
X126007394Y-112638112D01*
X125997450Y-112568954D01*
X126007806Y-112534196D01*
X126025018Y-112497285D01*
X126079752Y-112379908D01*
X126135523Y-112171766D01*
X126154304Y-111957101D01*
X126152991Y-111942099D01*
X126147513Y-111879476D01*
X126135523Y-111742436D01*
X126082906Y-111546064D01*
X126079754Y-111534301D01*
X126079753Y-111534300D01*
X126079752Y-111534294D01*
X125988684Y-111338999D01*
X125988681Y-111338995D01*
X125865090Y-111162488D01*
X125865085Y-111162482D01*
X125804633Y-111102030D01*
X125771148Y-111040707D01*
X125776132Y-110971015D01*
X125804631Y-110926670D01*
X126858983Y-109872319D01*
X126920306Y-109838834D01*
X126946664Y-109836000D01*
X135726874Y-109836000D01*
X135793913Y-109855685D01*
G37*
%TD.AperFunction*%
%TA.AperFunction,Conductor*%
G36*
X120831227Y-97506118D02*
G01*
X120864727Y-97529973D01*
X129123586Y-105788832D01*
X129211168Y-105876414D01*
X129318432Y-105938343D01*
X129344624Y-105945361D01*
X129438070Y-105970400D01*
X129438071Y-105970400D01*
X129438072Y-105970400D01*
X139591010Y-105970400D01*
X139591012Y-105970400D01*
X139684458Y-105945361D01*
X139710650Y-105938343D01*
X139817914Y-105876414D01*
X139875709Y-105818619D01*
X139937032Y-105785134D01*
X139963390Y-105782300D01*
X140749692Y-105782300D01*
X140816731Y-105801985D01*
X140837373Y-105818619D01*
X141705973Y-106687219D01*
X141739458Y-106748542D01*
X141734474Y-106818234D01*
X141692602Y-106874167D01*
X141627138Y-106898584D01*
X141618292Y-106898900D01*
X129075508Y-106898900D01*
X129008469Y-106879215D01*
X128987827Y-106862581D01*
X120678821Y-98553575D01*
X120645336Y-98492252D01*
X120646726Y-98433804D01*
X120699523Y-98236765D01*
X120718304Y-98022100D01*
X120699523Y-97807435D01*
X120657271Y-97649747D01*
X120658934Y-97579897D01*
X120698097Y-97522035D01*
X120762325Y-97494531D01*
X120831227Y-97506118D01*
G37*
%TD.AperFunction*%
%TA.AperFunction,Conductor*%
G36*
X157073814Y-93644510D02*
G01*
X157119158Y-93696422D01*
X157126516Y-93712203D01*
X157250109Y-93888712D01*
X157250114Y-93888718D01*
X157402481Y-94041085D01*
X157402487Y-94041090D01*
X157578996Y-94164683D01*
X157578998Y-94164684D01*
X157774293Y-94255752D01*
X157982435Y-94311523D01*
X158143334Y-94325600D01*
X158197099Y-94330304D01*
X158197100Y-94330304D01*
X158197101Y-94330304D01*
X158250866Y-94325600D01*
X158411765Y-94311523D01*
X158452914Y-94300497D01*
X158522762Y-94302160D01*
X158580624Y-94341322D01*
X158608129Y-94405550D01*
X158596543Y-94474452D01*
X158572687Y-94507953D01*
X155618760Y-97461879D01*
X155618761Y-97461880D01*
X155537387Y-97543254D01*
X155537384Y-97543258D01*
X155467521Y-97664266D01*
X155467518Y-97664271D01*
X155431591Y-97798356D01*
X155399497Y-97853943D01*
X148291506Y-104961935D01*
X148230183Y-104995420D01*
X148160491Y-104990436D01*
X148104558Y-104948564D01*
X148080141Y-104883100D01*
X148079825Y-104874254D01*
X148079825Y-102154094D01*
X148099510Y-102087055D01*
X148116139Y-102066418D01*
X152975738Y-97206818D01*
X152975743Y-97206815D01*
X152985946Y-97196611D01*
X152985948Y-97196611D01*
X153084761Y-97097798D01*
X153154632Y-96976777D01*
X153190800Y-96841796D01*
X153190800Y-95848927D01*
X153210485Y-95781888D01*
X153227119Y-95761246D01*
X155327221Y-93661144D01*
X155388544Y-93627659D01*
X155414902Y-93624825D01*
X157006775Y-93624825D01*
X157073814Y-93644510D01*
G37*
%TD.AperFunction*%
%TA.AperFunction,Conductor*%
G36*
X164836463Y-83937285D02*
G01*
X164857105Y-83953919D01*
X169491281Y-88588095D01*
X169524766Y-88649418D01*
X169527600Y-88675776D01*
X169527600Y-136324424D01*
X169507915Y-136391463D01*
X169491281Y-136412105D01*
X164857105Y-141046281D01*
X164795782Y-141079766D01*
X164769424Y-141082600D01*
X120930776Y-141082600D01*
X120863737Y-141062915D01*
X120843095Y-141046281D01*
X117198913Y-137402099D01*
X122944896Y-137402099D01*
X122944896Y-137402100D01*
X122963676Y-137616760D01*
X122963678Y-137616770D01*
X123019445Y-137824899D01*
X123019447Y-137824903D01*
X123019448Y-137824907D01*
X123055444Y-137902100D01*
X123110515Y-138020201D01*
X123110516Y-138020203D01*
X123234109Y-138196712D01*
X123234114Y-138196718D01*
X123386481Y-138349085D01*
X123386487Y-138349090D01*
X123562996Y-138472683D01*
X123562998Y-138472684D01*
X123758293Y-138563752D01*
X123966435Y-138619523D01*
X124138167Y-138634547D01*
X124181099Y-138638304D01*
X124181100Y-138638304D01*
X124181101Y-138638304D01*
X124216877Y-138635173D01*
X124395765Y-138619523D01*
X124603907Y-138563752D01*
X124799202Y-138472684D01*
X124975717Y-138349087D01*
X125128087Y-138196717D01*
X125251684Y-138020202D01*
X125338718Y-137833555D01*
X125384890Y-137781118D01*
X125452084Y-137761966D01*
X125518965Y-137782182D01*
X125563481Y-137833555D01*
X125595444Y-137902100D01*
X125650515Y-138020201D01*
X125650516Y-138020203D01*
X125774109Y-138196712D01*
X125774114Y-138196718D01*
X125926481Y-138349085D01*
X125926487Y-138349090D01*
X126102996Y-138472683D01*
X126102998Y-138472684D01*
X126298293Y-138563752D01*
X126506435Y-138619523D01*
X126678167Y-138634547D01*
X126721099Y-138638304D01*
X126721100Y-138638304D01*
X126721101Y-138638304D01*
X126756877Y-138635173D01*
X126935765Y-138619523D01*
X127143907Y-138563752D01*
X127339202Y-138472684D01*
X127515717Y-138349087D01*
X127668087Y-138196717D01*
X127791684Y-138020202D01*
X127878718Y-137833555D01*
X127924890Y-137781118D01*
X127992084Y-137761966D01*
X128058965Y-137782182D01*
X128103481Y-137833555D01*
X128135444Y-137902100D01*
X128190515Y-138020201D01*
X128190516Y-138020203D01*
X128314109Y-138196712D01*
X128314114Y-138196718D01*
X128466481Y-138349085D01*
X128466487Y-138349090D01*
X128642996Y-138472683D01*
X128642998Y-138472684D01*
X128838293Y-138563752D01*
X129046435Y-138619523D01*
X129218167Y-138634547D01*
X129261099Y-138638304D01*
X129261100Y-138638304D01*
X129261101Y-138638304D01*
X129296877Y-138635173D01*
X129475765Y-138619523D01*
X129683907Y-138563752D01*
X129879202Y-138472684D01*
X130055717Y-138349087D01*
X130208087Y-138196717D01*
X130331684Y-138020202D01*
X130418718Y-137833555D01*
X130464890Y-137781117D01*
X130532083Y-137761965D01*
X130598965Y-137782181D01*
X130643482Y-137833556D01*
X130730516Y-138020201D01*
X130730517Y-138020203D01*
X130854110Y-138196712D01*
X130854115Y-138196718D01*
X131006482Y-138349085D01*
X131006488Y-138349090D01*
X131182997Y-138472683D01*
X131182999Y-138472684D01*
X131378294Y-138563752D01*
X131586436Y-138619523D01*
X131758168Y-138634547D01*
X131801100Y-138638304D01*
X131801101Y-138638304D01*
X131801102Y-138638304D01*
X131836878Y-138635173D01*
X132015766Y-138619523D01*
X132223908Y-138563752D01*
X132419203Y-138472684D01*
X132595718Y-138349087D01*
X132748088Y-138196717D01*
X132871685Y-138020202D01*
X132958719Y-137833557D01*
X133004890Y-137781119D01*
X133072083Y-137761967D01*
X133138965Y-137782182D01*
X133183482Y-137833558D01*
X133270515Y-138020201D01*
X133270516Y-138020203D01*
X133394109Y-138196712D01*
X133394114Y-138196718D01*
X133546481Y-138349085D01*
X133546487Y-138349090D01*
X133722996Y-138472683D01*
X133722998Y-138472684D01*
X133918293Y-138563752D01*
X134126435Y-138619523D01*
X134298167Y-138634547D01*
X134341099Y-138638304D01*
X134341100Y-138638304D01*
X134341101Y-138638304D01*
X134376877Y-138635173D01*
X134555765Y-138619523D01*
X134763907Y-138563752D01*
X134959202Y-138472684D01*
X135135717Y-138349087D01*
X135288087Y-138196717D01*
X135305525Y-138171813D01*
X135360101Y-138128188D01*
X135429599Y-138120994D01*
X135491954Y-138152516D01*
X135527369Y-138212746D01*
X135531100Y-138242936D01*
X135531100Y-138299944D01*
X135537501Y-138359472D01*
X135537503Y-138359479D01*
X135587745Y-138494186D01*
X135587749Y-138494193D01*
X135673909Y-138609287D01*
X135673912Y-138609290D01*
X135789006Y-138695450D01*
X135789013Y-138695454D01*
X135923720Y-138745696D01*
X135923727Y-138745698D01*
X135983255Y-138752099D01*
X135983272Y-138752100D01*
X136631100Y-138752100D01*
X136631100Y-137835112D01*
X136688107Y-137868025D01*
X136815274Y-137902100D01*
X136946926Y-137902100D01*
X137074093Y-137868025D01*
X137131100Y-137835112D01*
X137131100Y-138752100D01*
X137778928Y-138752100D01*
X137778944Y-138752099D01*
X137838472Y-138745698D01*
X137838479Y-138745696D01*
X137973186Y-138695454D01*
X137973193Y-138695450D01*
X138088287Y-138609290D01*
X138088290Y-138609287D01*
X138174450Y-138494193D01*
X138174454Y-138494186D01*
X138224696Y-138359479D01*
X138224698Y-138359472D01*
X138231099Y-138299944D01*
X138231100Y-138299927D01*
X138231100Y-137652100D01*
X137314112Y-137652100D01*
X137347025Y-137595093D01*
X137381100Y-137467926D01*
X137381100Y-137336274D01*
X137347025Y-137209107D01*
X137314112Y-137152100D01*
X138231100Y-137152100D01*
X138231100Y-136504272D01*
X138231099Y-136504255D01*
X138224698Y-136444727D01*
X138224696Y-136444720D01*
X138174454Y-136310013D01*
X138174450Y-136310006D01*
X138088290Y-136194912D01*
X138088287Y-136194909D01*
X137973193Y-136108749D01*
X137973186Y-136108745D01*
X137838479Y-136058503D01*
X137838472Y-136058501D01*
X137778944Y-136052100D01*
X137131100Y-136052100D01*
X137131100Y-136969088D01*
X137074093Y-136936175D01*
X136946926Y-136902100D01*
X136815274Y-136902100D01*
X136688107Y-136936175D01*
X136631100Y-136969088D01*
X136631100Y-136052100D01*
X135983255Y-136052100D01*
X135923727Y-136058501D01*
X135923720Y-136058503D01*
X135789013Y-136108745D01*
X135789006Y-136108749D01*
X135673912Y-136194909D01*
X135673909Y-136194912D01*
X135587749Y-136310006D01*
X135587745Y-136310013D01*
X135537503Y-136444720D01*
X135537501Y-136444727D01*
X135531100Y-136504255D01*
X135531100Y-136561263D01*
X135511415Y-136628302D01*
X135458611Y-136674057D01*
X135389453Y-136684001D01*
X135325897Y-136654976D01*
X135305526Y-136632387D01*
X135288093Y-136607490D01*
X135288085Y-136607481D01*
X135135718Y-136455114D01*
X135135712Y-136455109D01*
X134959203Y-136331516D01*
X134959201Y-136331515D01*
X134861554Y-136285982D01*
X134763907Y-136240448D01*
X134763903Y-136240447D01*
X134763899Y-136240445D01*
X134555770Y-136184678D01*
X134555760Y-136184676D01*
X134341101Y-136165896D01*
X134341099Y-136165896D01*
X134126439Y-136184676D01*
X134126429Y-136184678D01*
X133918300Y-136240445D01*
X133918291Y-136240449D01*
X133722998Y-136331515D01*
X133722996Y-136331516D01*
X133546487Y-136455109D01*
X133546481Y-136455114D01*
X133394114Y-136607481D01*
X133394109Y-136607487D01*
X133270516Y-136783996D01*
X133270515Y-136783998D01*
X133183482Y-136970641D01*
X133137309Y-137023080D01*
X133070116Y-137042232D01*
X133003235Y-137022016D01*
X132958718Y-136970641D01*
X132942646Y-136936175D01*
X132871685Y-136783998D01*
X132846403Y-136747892D01*
X132748091Y-136607487D01*
X132748086Y-136607481D01*
X132595719Y-136455114D01*
X132595713Y-136455109D01*
X132419204Y-136331516D01*
X132419202Y-136331515D01*
X132321555Y-136285982D01*
X132223908Y-136240448D01*
X132223904Y-136240447D01*
X132223900Y-136240445D01*
X132015771Y-136184678D01*
X132015761Y-136184676D01*
X131801102Y-136165896D01*
X131801100Y-136165896D01*
X131586440Y-136184676D01*
X131586430Y-136184678D01*
X131378301Y-136240445D01*
X131378292Y-136240449D01*
X131182999Y-136331515D01*
X131182997Y-136331516D01*
X131006488Y-136455109D01*
X131006482Y-136455114D01*
X130854115Y-136607481D01*
X130854110Y-136607487D01*
X130730517Y-136783996D01*
X130730516Y-136783998D01*
X130643482Y-136970643D01*
X130597309Y-137023082D01*
X130530116Y-137042234D01*
X130463235Y-137022018D01*
X130418718Y-136970643D01*
X130402645Y-136936175D01*
X130331684Y-136783998D01*
X130306402Y-136747892D01*
X130208090Y-136607487D01*
X130208085Y-136607481D01*
X130055718Y-136455114D01*
X130055712Y-136455109D01*
X129879203Y-136331516D01*
X129879201Y-136331515D01*
X129781554Y-136285982D01*
X129683907Y-136240448D01*
X129683903Y-136240447D01*
X129683899Y-136240445D01*
X129475770Y-136184678D01*
X129475760Y-136184676D01*
X129261101Y-136165896D01*
X129261099Y-136165896D01*
X129046439Y-136184676D01*
X129046429Y-136184678D01*
X128838300Y-136240445D01*
X128838291Y-136240449D01*
X128642998Y-136331515D01*
X128642996Y-136331516D01*
X128466487Y-136455109D01*
X128466481Y-136455114D01*
X128314114Y-136607481D01*
X128314109Y-136607487D01*
X128190516Y-136783996D01*
X128190515Y-136783998D01*
X128103482Y-136970642D01*
X128057310Y-137023081D01*
X127990116Y-137042233D01*
X127923235Y-137022017D01*
X127878718Y-136970642D01*
X127791684Y-136783998D01*
X127791683Y-136783996D01*
X127668090Y-136607487D01*
X127668085Y-136607481D01*
X127515718Y-136455114D01*
X127515712Y-136455109D01*
X127339203Y-136331516D01*
X127339201Y-136331515D01*
X127241554Y-136285982D01*
X127143907Y-136240448D01*
X127143903Y-136240447D01*
X127143899Y-136240445D01*
X126935770Y-136184678D01*
X126935760Y-136184676D01*
X126721101Y-136165896D01*
X126721099Y-136165896D01*
X126506439Y-136184676D01*
X126506429Y-136184678D01*
X126298300Y-136240445D01*
X126298291Y-136240449D01*
X126102998Y-136331515D01*
X126102996Y-136331516D01*
X125926487Y-136455109D01*
X125926481Y-136455114D01*
X125774114Y-136607481D01*
X125774109Y-136607487D01*
X125650516Y-136783996D01*
X125650515Y-136783998D01*
X125563482Y-136970642D01*
X125517310Y-137023081D01*
X125450116Y-137042233D01*
X125383235Y-137022017D01*
X125338718Y-136970642D01*
X125251684Y-136783998D01*
X125251683Y-136783996D01*
X125128090Y-136607487D01*
X125128085Y-136607481D01*
X124975718Y-136455114D01*
X124975712Y-136455109D01*
X124799203Y-136331516D01*
X124799201Y-136331515D01*
X124701554Y-136285982D01*
X124603907Y-136240448D01*
X124603903Y-136240447D01*
X124603899Y-136240445D01*
X124395770Y-136184678D01*
X124395760Y-136184676D01*
X124181101Y-136165896D01*
X124181099Y-136165896D01*
X123966439Y-136184676D01*
X123966429Y-136184678D01*
X123758300Y-136240445D01*
X123758291Y-136240449D01*
X123562998Y-136331515D01*
X123562996Y-136331516D01*
X123386487Y-136455109D01*
X123386481Y-136455114D01*
X123234114Y-136607481D01*
X123234109Y-136607487D01*
X123110516Y-136783996D01*
X123110515Y-136783998D01*
X123019449Y-136979291D01*
X123019445Y-136979300D01*
X122963678Y-137187429D01*
X122963676Y-137187439D01*
X122944896Y-137402099D01*
X117198913Y-137402099D01*
X116208919Y-136412105D01*
X116175434Y-136350782D01*
X116172600Y-136324424D01*
X116172600Y-135761813D01*
X118512600Y-135761813D01*
X118512600Y-135974387D01*
X118521333Y-136029523D01*
X118539608Y-136144912D01*
X118545854Y-136184343D01*
X118593673Y-136331515D01*
X118611544Y-136386514D01*
X118708051Y-136575920D01*
X118832990Y-136747886D01*
X118983313Y-136898209D01*
X119155279Y-137023148D01*
X119155281Y-137023149D01*
X119155284Y-137023151D01*
X119344688Y-137119657D01*
X119546857Y-137185346D01*
X119756813Y-137218600D01*
X119756814Y-137218600D01*
X119969386Y-137218600D01*
X119969387Y-137218600D01*
X120179343Y-137185346D01*
X120381512Y-137119657D01*
X120570916Y-137023151D01*
X120643189Y-136970642D01*
X120742886Y-136898209D01*
X120742888Y-136898206D01*
X120742892Y-136898204D01*
X120893204Y-136747892D01*
X120893206Y-136747888D01*
X120893209Y-136747886D01*
X121018148Y-136575920D01*
X121018147Y-136575920D01*
X121018151Y-136575916D01*
X121114657Y-136386512D01*
X121180346Y-136184343D01*
X121213600Y-135974387D01*
X121213600Y-135761813D01*
X121180346Y-135551857D01*
X121114657Y-135349688D01*
X121018151Y-135160284D01*
X121018149Y-135160281D01*
X121018148Y-135160279D01*
X120893209Y-134988313D01*
X120742886Y-134837990D01*
X120570920Y-134713051D01*
X120381514Y-134616544D01*
X120381513Y-134616543D01*
X120381512Y-134616543D01*
X120179343Y-134550854D01*
X120179341Y-134550853D01*
X120179340Y-134550853D01*
X120018057Y-134525308D01*
X119969387Y-134517600D01*
X119756813Y-134517600D01*
X119708142Y-134525308D01*
X119546860Y-134550853D01*
X119344685Y-134616544D01*
X119155279Y-134713051D01*
X118983313Y-134837990D01*
X118832990Y-134988313D01*
X118708051Y-135160279D01*
X118611544Y-135349685D01*
X118545853Y-135551860D01*
X118513032Y-135759085D01*
X118512600Y-135761813D01*
X116172600Y-135761813D01*
X116172600Y-130802099D01*
X118151464Y-130802099D01*
X118151464Y-130802100D01*
X119049088Y-130802100D01*
X119016175Y-130859107D01*
X118982100Y-130986274D01*
X118982100Y-131117926D01*
X119016175Y-131245093D01*
X119049088Y-131302100D01*
X118151464Y-131302100D01*
X118208667Y-131515586D01*
X118208670Y-131515592D01*
X118308499Y-131729678D01*
X118443994Y-131923182D01*
X118611017Y-132090205D01*
X118804521Y-132225700D01*
X119018607Y-132325529D01*
X119018616Y-132325533D01*
X119232100Y-132382734D01*
X119232100Y-131485112D01*
X119289107Y-131518025D01*
X119416274Y-131552100D01*
X119547926Y-131552100D01*
X119675093Y-131518025D01*
X119732100Y-131485112D01*
X119732100Y-132382733D01*
X119945583Y-132325533D01*
X119945592Y-132325529D01*
X120159678Y-132225700D01*
X120353182Y-132090205D01*
X120520205Y-131923182D01*
X120655700Y-131729678D01*
X120755529Y-131515592D01*
X120755532Y-131515586D01*
X120812736Y-131302100D01*
X119915112Y-131302100D01*
X119948025Y-131245093D01*
X119982100Y-131117926D01*
X119982100Y-130986274D01*
X119948025Y-130859107D01*
X119915112Y-130802100D01*
X120812736Y-130802100D01*
X120812735Y-130802099D01*
X120755532Y-130588613D01*
X120755529Y-130588607D01*
X120655700Y-130374522D01*
X120655699Y-130374520D01*
X120520213Y-130181026D01*
X120520208Y-130181020D01*
X120353182Y-130013994D01*
X120159678Y-129878499D01*
X120053754Y-129829106D01*
X120001315Y-129782933D01*
X119982163Y-129715740D01*
X120002379Y-129648859D01*
X120053755Y-129604342D01*
X120100202Y-129582684D01*
X120276717Y-129459087D01*
X120429087Y-129306717D01*
X120552684Y-129130202D01*
X120643752Y-128934907D01*
X120699523Y-128726765D01*
X120718304Y-128512100D01*
X120699523Y-128297435D01*
X120643752Y-128089293D01*
X120552684Y-127893998D01*
X120537130Y-127871785D01*
X120429090Y-127717487D01*
X120429085Y-127717481D01*
X120276718Y-127565114D01*
X120276712Y-127565109D01*
X120100203Y-127441516D01*
X120100201Y-127441515D01*
X119981523Y-127386175D01*
X119913555Y-127354481D01*
X119861118Y-127308310D01*
X119841966Y-127241116D01*
X119862182Y-127174235D01*
X119913555Y-127129718D01*
X120100202Y-127042684D01*
X120276717Y-126919087D01*
X120429087Y-126766717D01*
X120552684Y-126590202D01*
X120643752Y-126394907D01*
X120699523Y-126186765D01*
X120718304Y-125972100D01*
X120699523Y-125757435D01*
X120643752Y-125549293D01*
X120552684Y-125353998D01*
X120546309Y-125344894D01*
X120429090Y-125177487D01*
X120429085Y-125177481D01*
X120276718Y-125025114D01*
X120276712Y-125025109D01*
X120100203Y-124901516D01*
X120100196Y-124901512D01*
X120096912Y-124899981D01*
X120095708Y-124898921D01*
X120095512Y-124898808D01*
X120095534Y-124898768D01*
X120044473Y-124853808D01*
X120025322Y-124786615D01*
X120045539Y-124719734D01*
X120098705Y-124674400D01*
X120149318Y-124663600D01*
X120368300Y-124663600D01*
X120368306Y-124663600D01*
X120442461Y-124652796D01*
X120499653Y-124624836D01*
X120556843Y-124596878D01*
X120556846Y-124596876D01*
X120646876Y-124506846D01*
X120646878Y-124506843D01*
X120693041Y-124412415D01*
X120702796Y-124392461D01*
X120713600Y-124318306D01*
X120713600Y-122545894D01*
X120702796Y-122471739D01*
X120684356Y-122434020D01*
X120646878Y-122357356D01*
X120646876Y-122357353D01*
X120556846Y-122267323D01*
X120556843Y-122267321D01*
X120442464Y-122211405D01*
X120442462Y-122211404D01*
X120442461Y-122211404D01*
X120368306Y-122200600D01*
X118595894Y-122200600D01*
X118521739Y-122211404D01*
X118521737Y-122211404D01*
X118521735Y-122211405D01*
X118407356Y-122267321D01*
X118407353Y-122267323D01*
X118317323Y-122357353D01*
X118317321Y-122357356D01*
X118261405Y-122471735D01*
X118261404Y-122471737D01*
X118261404Y-122471739D01*
X118250600Y-122545894D01*
X118250600Y-124318306D01*
X118261404Y-124392461D01*
X118261404Y-124392462D01*
X118261405Y-124392464D01*
X118317321Y-124506843D01*
X118317323Y-124506846D01*
X118407353Y-124596876D01*
X118407356Y-124596878D01*
X118494523Y-124639491D01*
X118521739Y-124652796D01*
X118595894Y-124663600D01*
X118595900Y-124663600D01*
X118814882Y-124663600D01*
X118881921Y-124683285D01*
X118927676Y-124736089D01*
X118937620Y-124805247D01*
X118908595Y-124868803D01*
X118867288Y-124899981D01*
X118864003Y-124901512D01*
X118863996Y-124901516D01*
X118687487Y-125025109D01*
X118687481Y-125025114D01*
X118535114Y-125177481D01*
X118535109Y-125177487D01*
X118411516Y-125353996D01*
X118411515Y-125353998D01*
X118320449Y-125549291D01*
X118320445Y-125549300D01*
X118264678Y-125757429D01*
X118264676Y-125757439D01*
X118245896Y-125972099D01*
X118245896Y-125972100D01*
X118264676Y-126186760D01*
X118264678Y-126186770D01*
X118320445Y-126394899D01*
X118320447Y-126394903D01*
X118320448Y-126394907D01*
X118350220Y-126458752D01*
X118411515Y-126590201D01*
X118411516Y-126590203D01*
X118535109Y-126766712D01*
X118535114Y-126766718D01*
X118687481Y-126919085D01*
X118687487Y-126919090D01*
X118863996Y-127042683D01*
X118863998Y-127042684D01*
X119050642Y-127129718D01*
X119103081Y-127175890D01*
X119122233Y-127243084D01*
X119102017Y-127309965D01*
X119050642Y-127354482D01*
X118863998Y-127441515D01*
X118863996Y-127441516D01*
X118687487Y-127565109D01*
X118687481Y-127565114D01*
X118535114Y-127717481D01*
X118535109Y-127717487D01*
X118411516Y-127893996D01*
X118411515Y-127893998D01*
X118320449Y-128089291D01*
X118320445Y-128089300D01*
X118264678Y-128297429D01*
X118264676Y-128297439D01*
X118245896Y-128512099D01*
X118245896Y-128512100D01*
X118264676Y-128726760D01*
X118264678Y-128726770D01*
X118320445Y-128934899D01*
X118320447Y-128934903D01*
X118320448Y-128934907D01*
X118344164Y-128985765D01*
X118411515Y-129130201D01*
X118411516Y-129130203D01*
X118535109Y-129306712D01*
X118535114Y-129306718D01*
X118687481Y-129459085D01*
X118687487Y-129459090D01*
X118863996Y-129582683D01*
X118863997Y-129582683D01*
X118863998Y-129582684D01*
X118910444Y-129604342D01*
X118962883Y-129650513D01*
X118982036Y-129717706D01*
X118961821Y-129784588D01*
X118910446Y-129829106D01*
X118804519Y-129878501D01*
X118611026Y-130013986D01*
X118611020Y-130013991D01*
X118443991Y-130181020D01*
X118443986Y-130181026D01*
X118308500Y-130374520D01*
X118308499Y-130374522D01*
X118208670Y-130588607D01*
X118208667Y-130588613D01*
X118151464Y-130802099D01*
X116172600Y-130802099D01*
X116172600Y-118664255D01*
X118082100Y-118664255D01*
X118082100Y-119312100D01*
X118999088Y-119312100D01*
X118966175Y-119369107D01*
X118932100Y-119496274D01*
X118932100Y-119627926D01*
X118966175Y-119755093D01*
X118999088Y-119812100D01*
X118082100Y-119812100D01*
X118082100Y-120459944D01*
X118088501Y-120519472D01*
X118088503Y-120519479D01*
X118138745Y-120654186D01*
X118138749Y-120654193D01*
X118224909Y-120769287D01*
X118224912Y-120769290D01*
X118340006Y-120855450D01*
X118340013Y-120855454D01*
X118474720Y-120905696D01*
X118474727Y-120905698D01*
X118534255Y-120912099D01*
X118534272Y-120912100D01*
X119182100Y-120912100D01*
X119182100Y-119995112D01*
X119239107Y-120028025D01*
X119366274Y-120062100D01*
X119497926Y-120062100D01*
X119625093Y-120028025D01*
X119682100Y-119995112D01*
X119682100Y-120912100D01*
X120329928Y-120912100D01*
X120329944Y-120912099D01*
X120389472Y-120905698D01*
X120389479Y-120905696D01*
X120524186Y-120855454D01*
X120524193Y-120855450D01*
X120639287Y-120769290D01*
X120639290Y-120769287D01*
X120725450Y-120654193D01*
X120725454Y-120654186D01*
X120775696Y-120519479D01*
X120775698Y-120519472D01*
X120782099Y-120459944D01*
X120782100Y-120459927D01*
X120782100Y-119812100D01*
X119865112Y-119812100D01*
X119898025Y-119755093D01*
X119932100Y-119627926D01*
X119932100Y-119496274D01*
X119898025Y-119369107D01*
X119865112Y-119312100D01*
X120782100Y-119312100D01*
X120792329Y-119301870D01*
X120801785Y-119269669D01*
X120854589Y-119223914D01*
X120923747Y-119213970D01*
X120987303Y-119242995D01*
X120993781Y-119249027D01*
X121899686Y-120154932D01*
X121987268Y-120242514D01*
X122055956Y-120282171D01*
X122055957Y-120282171D01*
X122055957Y-120282172D01*
X122094526Y-120304440D01*
X122094527Y-120304441D01*
X122094529Y-120304441D01*
X122094532Y-120304443D01*
X122214170Y-120336500D01*
X122214171Y-120336500D01*
X122214173Y-120336500D01*
X133768028Y-120336500D01*
X133768030Y-120336500D01*
X133827848Y-120320471D01*
X133827849Y-120320471D01*
X133887664Y-120304444D01*
X133887663Y-120304444D01*
X133887668Y-120304443D01*
X133994932Y-120242514D01*
X134082514Y-120154932D01*
X136961019Y-117276427D01*
X137022342Y-117242942D01*
X137092034Y-117247926D01*
X137147967Y-117289798D01*
X137172384Y-117355262D01*
X137172700Y-117364108D01*
X137172700Y-121793892D01*
X137153015Y-121860931D01*
X137136381Y-121881573D01*
X134054673Y-124963281D01*
X133993350Y-124996766D01*
X133966992Y-124999600D01*
X132565894Y-124999600D01*
X132491739Y-125010404D01*
X132491737Y-125010404D01*
X132491735Y-125010405D01*
X132377356Y-125066321D01*
X132377353Y-125066323D01*
X132287323Y-125156353D01*
X132287321Y-125156356D01*
X132231405Y-125270735D01*
X132231404Y-125270737D01*
X132231404Y-125270739D01*
X132220600Y-125344894D01*
X132220600Y-127117306D01*
X132231404Y-127191461D01*
X132231404Y-127191462D01*
X132231405Y-127191464D01*
X132287321Y-127305843D01*
X132287323Y-127305846D01*
X132377353Y-127395876D01*
X132377356Y-127395878D01*
X132463742Y-127438109D01*
X132491739Y-127451796D01*
X132565894Y-127462600D01*
X132565900Y-127462600D01*
X132784882Y-127462600D01*
X132851921Y-127482285D01*
X132897676Y-127535089D01*
X132907620Y-127604247D01*
X132878595Y-127667803D01*
X132837288Y-127698981D01*
X132834003Y-127700512D01*
X132833996Y-127700516D01*
X132657487Y-127824109D01*
X132657481Y-127824114D01*
X132505114Y-127976481D01*
X132505109Y-127976487D01*
X132381516Y-128152996D01*
X132381515Y-128152998D01*
X132290449Y-128348291D01*
X132290445Y-128348300D01*
X132234678Y-128556429D01*
X132234676Y-128556439D01*
X132215896Y-128771099D01*
X132215896Y-128771100D01*
X132234676Y-128985760D01*
X132234678Y-128985770D01*
X132290445Y-129193899D01*
X132290447Y-129193903D01*
X132290448Y-129193907D01*
X132321326Y-129260124D01*
X132381515Y-129389201D01*
X132381516Y-129389203D01*
X132505109Y-129565712D01*
X132505114Y-129565718D01*
X132657481Y-129718085D01*
X132657487Y-129718090D01*
X132833996Y-129841683D01*
X132833997Y-129841683D01*
X132833998Y-129841684D01*
X132880444Y-129863342D01*
X132932883Y-129909513D01*
X132952036Y-129976706D01*
X132931821Y-130043588D01*
X132880446Y-130088106D01*
X132774519Y-130137501D01*
X132581026Y-130272986D01*
X132581020Y-130272991D01*
X132413991Y-130440020D01*
X132413986Y-130440026D01*
X132278500Y-130633520D01*
X132278499Y-130633522D01*
X132178670Y-130847607D01*
X132178667Y-130847613D01*
X132121464Y-131061099D01*
X132121464Y-131061100D01*
X133019088Y-131061100D01*
X132986175Y-131118107D01*
X132952100Y-131245274D01*
X132952100Y-131376926D01*
X132986175Y-131504093D01*
X133019088Y-131561100D01*
X132121464Y-131561100D01*
X132178667Y-131774586D01*
X132178670Y-131774592D01*
X132278499Y-131988678D01*
X132413994Y-132182182D01*
X132581017Y-132349205D01*
X132774521Y-132484700D01*
X132988607Y-132584529D01*
X132988616Y-132584533D01*
X133202100Y-132641734D01*
X133202100Y-131744112D01*
X133259107Y-131777025D01*
X133386274Y-131811100D01*
X133517926Y-131811100D01*
X133645093Y-131777025D01*
X133702100Y-131744112D01*
X133702100Y-132641733D01*
X133915583Y-132584533D01*
X133915592Y-132584529D01*
X134129678Y-132484700D01*
X134323182Y-132349205D01*
X134490205Y-132182182D01*
X134625700Y-131988678D01*
X134725529Y-131774592D01*
X134725532Y-131774586D01*
X134782736Y-131561100D01*
X133885112Y-131561100D01*
X133918025Y-131504093D01*
X133952100Y-131376926D01*
X133952100Y-131245274D01*
X133918025Y-131118107D01*
X133885112Y-131061100D01*
X134782736Y-131061100D01*
X134782735Y-131061099D01*
X134725532Y-130847613D01*
X134725529Y-130847607D01*
X134625700Y-130633522D01*
X134625699Y-130633520D01*
X134490213Y-130440026D01*
X134490208Y-130440020D01*
X134323182Y-130272994D01*
X134129678Y-130137499D01*
X134023754Y-130088106D01*
X133971315Y-130041933D01*
X133952163Y-129974740D01*
X133972379Y-129907859D01*
X134023755Y-129863342D01*
X134070202Y-129841684D01*
X134246717Y-129718087D01*
X134331385Y-129633419D01*
X134392708Y-129599934D01*
X134419066Y-129597100D01*
X135994598Y-129597100D01*
X136061637Y-129616785D01*
X136082279Y-129633419D01*
X136998378Y-130549518D01*
X136998407Y-130549549D01*
X137116551Y-130667693D01*
X137116555Y-130667696D01*
X137251835Y-130758088D01*
X137251841Y-130758091D01*
X137251842Y-130758092D01*
X137402165Y-130820358D01*
X137526931Y-130845175D01*
X137561741Y-130852099D01*
X137561745Y-130852100D01*
X137561746Y-130852100D01*
X138740455Y-130852100D01*
X138740456Y-130852099D01*
X138900035Y-130820358D01*
X139050358Y-130758092D01*
X139185645Y-130667696D01*
X139300696Y-130552645D01*
X139391092Y-130417358D01*
X139453358Y-130267035D01*
X139485100Y-130107454D01*
X139485100Y-129944746D01*
X139453358Y-129785165D01*
X139391092Y-129634842D01*
X139391091Y-129634841D01*
X139391088Y-129634835D01*
X139300696Y-129499555D01*
X139300693Y-129499551D01*
X139185648Y-129384506D01*
X139185644Y-129384503D01*
X139050364Y-129294111D01*
X139050355Y-129294106D01*
X138900035Y-129231842D01*
X138900027Y-129231840D01*
X138740458Y-129200100D01*
X138740454Y-129200100D01*
X138036602Y-129200100D01*
X137969563Y-129180415D01*
X137948921Y-129163781D01*
X137034036Y-128248896D01*
X137034016Y-128248874D01*
X136914648Y-128129506D01*
X136914644Y-128129503D01*
X136779364Y-128039111D01*
X136779355Y-128039106D01*
X136629035Y-127976842D01*
X136629027Y-127976840D01*
X136469458Y-127945100D01*
X136469454Y-127945100D01*
X134419066Y-127945100D01*
X134352027Y-127925415D01*
X134331385Y-127908781D01*
X134246718Y-127824114D01*
X134246712Y-127824109D01*
X134070203Y-127700516D01*
X134070196Y-127700512D01*
X134066912Y-127698981D01*
X134065708Y-127697921D01*
X134065512Y-127697808D01*
X134065534Y-127697768D01*
X134014473Y-127652808D01*
X133995322Y-127585615D01*
X134015539Y-127518734D01*
X134068705Y-127473400D01*
X134119318Y-127462600D01*
X134338300Y-127462600D01*
X134338306Y-127462600D01*
X134412461Y-127451796D01*
X134469653Y-127423836D01*
X134526843Y-127395878D01*
X134526846Y-127395876D01*
X134616876Y-127305846D01*
X134616878Y-127305843D01*
X134657158Y-127223448D01*
X134672796Y-127191461D01*
X134683600Y-127117306D01*
X134683600Y-125716208D01*
X134703285Y-125649169D01*
X134719919Y-125628527D01*
X136365768Y-123982678D01*
X138019513Y-122328933D01*
X138055083Y-122267324D01*
X138081443Y-122221668D01*
X138113500Y-122102029D01*
X138113500Y-117572308D01*
X138133185Y-117505269D01*
X138149819Y-117484627D01*
X140009019Y-115625427D01*
X140070342Y-115591942D01*
X140140034Y-115596926D01*
X140195967Y-115638798D01*
X140220384Y-115704262D01*
X140220700Y-115713108D01*
X140220700Y-121553645D01*
X140201015Y-121620684D01*
X140149105Y-121666027D01*
X140072998Y-121701516D01*
X140072996Y-121701517D01*
X139896487Y-121825110D01*
X139896481Y-121825115D01*
X139744114Y-121977482D01*
X139744109Y-121977488D01*
X139620516Y-122153997D01*
X139620515Y-122153999D01*
X139529449Y-122349292D01*
X139529445Y-122349301D01*
X139473678Y-122557430D01*
X139473676Y-122557440D01*
X139454896Y-122772100D01*
X139454896Y-122772101D01*
X139473676Y-122986761D01*
X139473678Y-122986771D01*
X139529445Y-123194900D01*
X139529447Y-123194904D01*
X139529448Y-123194908D01*
X139574982Y-123292555D01*
X139620515Y-123390202D01*
X139620516Y-123390204D01*
X139744109Y-123566713D01*
X139744114Y-123566719D01*
X139896481Y-123719086D01*
X139896487Y-123719091D01*
X140072996Y-123842684D01*
X140072998Y-123842685D01*
X140259642Y-123929719D01*
X140312080Y-123975890D01*
X140331232Y-124043084D01*
X140311016Y-124109965D01*
X140259641Y-124154482D01*
X140072998Y-124241515D01*
X140072996Y-124241516D01*
X139896487Y-124365109D01*
X139896481Y-124365114D01*
X139744114Y-124517481D01*
X139744109Y-124517487D01*
X139620516Y-124693996D01*
X139620515Y-124693998D01*
X139529449Y-124889291D01*
X139529445Y-124889300D01*
X139473678Y-125097429D01*
X139473676Y-125097439D01*
X139454896Y-125312099D01*
X139454896Y-125312100D01*
X139473676Y-125526760D01*
X139473678Y-125526770D01*
X139529445Y-125734899D01*
X139529447Y-125734903D01*
X139529448Y-125734907D01*
X139539953Y-125757435D01*
X139620515Y-125930201D01*
X139620516Y-125930203D01*
X139744109Y-126106712D01*
X139744114Y-126106718D01*
X139896481Y-126259085D01*
X139896487Y-126259090D01*
X139921387Y-126276525D01*
X139965012Y-126331101D01*
X139972206Y-126400599D01*
X139940684Y-126462954D01*
X139880454Y-126498369D01*
X139850264Y-126502100D01*
X139793255Y-126502100D01*
X139733727Y-126508501D01*
X139733720Y-126508503D01*
X139599013Y-126558745D01*
X139599006Y-126558749D01*
X139483912Y-126644909D01*
X139483909Y-126644912D01*
X139397749Y-126760006D01*
X139397745Y-126760013D01*
X139347503Y-126894720D01*
X139347501Y-126894727D01*
X139341100Y-126954255D01*
X139341100Y-127602100D01*
X140258088Y-127602100D01*
X140225175Y-127659107D01*
X140191100Y-127786274D01*
X140191100Y-127917926D01*
X140225175Y-128045093D01*
X140258088Y-128102100D01*
X139341100Y-128102100D01*
X139341100Y-128749944D01*
X139347501Y-128809472D01*
X139347503Y-128809479D01*
X139397745Y-128944186D01*
X139397749Y-128944193D01*
X139483909Y-129059287D01*
X139483912Y-129059290D01*
X139599006Y-129145450D01*
X139599013Y-129145454D01*
X139733720Y-129195696D01*
X139733727Y-129195698D01*
X139793255Y-129202099D01*
X139793272Y-129202100D01*
X140441100Y-129202100D01*
X140441100Y-128285112D01*
X140498107Y-128318025D01*
X140625274Y-128352100D01*
X140756926Y-128352100D01*
X140884093Y-128318025D01*
X140941100Y-128285112D01*
X140941100Y-129202100D01*
X141588928Y-129202100D01*
X141588944Y-129202099D01*
X141607444Y-129200110D01*
X141676203Y-129212515D01*
X141727341Y-129260124D01*
X141744700Y-129323399D01*
X141744700Y-130501892D01*
X141725015Y-130568931D01*
X141708381Y-130589573D01*
X141222575Y-131075378D01*
X141161252Y-131108863D01*
X141102801Y-131107472D01*
X140905770Y-131054679D01*
X140905760Y-131054677D01*
X140691101Y-131035897D01*
X140691099Y-131035897D01*
X140476439Y-131054677D01*
X140476429Y-131054679D01*
X140268300Y-131110446D01*
X140268293Y-131110448D01*
X140268293Y-131110449D01*
X140255962Y-131116198D01*
X140072998Y-131201516D01*
X140072996Y-131201517D01*
X139896487Y-131325110D01*
X139896481Y-131325115D01*
X139744114Y-131477482D01*
X139744109Y-131477488D01*
X139620516Y-131653997D01*
X139620515Y-131653999D01*
X139529449Y-131849292D01*
X139529445Y-131849301D01*
X139473678Y-132057430D01*
X139473676Y-132057440D01*
X139454896Y-132272100D01*
X139454896Y-132272101D01*
X139473676Y-132486761D01*
X139473678Y-132486771D01*
X139529445Y-132694900D01*
X139529447Y-132694904D01*
X139529448Y-132694908D01*
X139574982Y-132792555D01*
X139620515Y-132890202D01*
X139620516Y-132890204D01*
X139744109Y-133066713D01*
X139744114Y-133066719D01*
X139896481Y-133219086D01*
X139896487Y-133219091D01*
X140072996Y-133342684D01*
X140072998Y-133342685D01*
X140259642Y-133429719D01*
X140312080Y-133475890D01*
X140331232Y-133543084D01*
X140311016Y-133609965D01*
X140259641Y-133654482D01*
X140072998Y-133741515D01*
X140072996Y-133741516D01*
X139896487Y-133865109D01*
X139896481Y-133865114D01*
X139744114Y-134017481D01*
X139744109Y-134017487D01*
X139620516Y-134193996D01*
X139620515Y-134193998D01*
X139529449Y-134389291D01*
X139529445Y-134389300D01*
X139473678Y-134597429D01*
X139473676Y-134597439D01*
X139454896Y-134812099D01*
X139454896Y-134812100D01*
X139473676Y-135026760D01*
X139473678Y-135026770D01*
X139529445Y-135234899D01*
X139529447Y-135234903D01*
X139529448Y-135234907D01*
X139574982Y-135332554D01*
X139620515Y-135430201D01*
X139620516Y-135430203D01*
X139744109Y-135606712D01*
X139744114Y-135606718D01*
X139896481Y-135759085D01*
X139896487Y-135759090D01*
X139921387Y-135776525D01*
X139965012Y-135831101D01*
X139972206Y-135900599D01*
X139940684Y-135962954D01*
X139880454Y-135998369D01*
X139850264Y-136002100D01*
X139793255Y-136002100D01*
X139733727Y-136008501D01*
X139733720Y-136008503D01*
X139599013Y-136058745D01*
X139599006Y-136058749D01*
X139483912Y-136144909D01*
X139483909Y-136144912D01*
X139397749Y-136260006D01*
X139397745Y-136260013D01*
X139347503Y-136394720D01*
X139347501Y-136394727D01*
X139341100Y-136454255D01*
X139341100Y-137102100D01*
X140258088Y-137102100D01*
X140225175Y-137159107D01*
X140191100Y-137286274D01*
X140191100Y-137417926D01*
X140225175Y-137545093D01*
X140258088Y-137602100D01*
X139341100Y-137602100D01*
X139341100Y-138249944D01*
X139347501Y-138309472D01*
X139347503Y-138309479D01*
X139397745Y-138444186D01*
X139397749Y-138444193D01*
X139483909Y-138559287D01*
X139483912Y-138559290D01*
X139599006Y-138645450D01*
X139599013Y-138645454D01*
X139733720Y-138695696D01*
X139733727Y-138695698D01*
X139793255Y-138702099D01*
X139793272Y-138702100D01*
X140441100Y-138702100D01*
X140441100Y-137785112D01*
X140498107Y-137818025D01*
X140625274Y-137852100D01*
X140756926Y-137852100D01*
X140884093Y-137818025D01*
X140941100Y-137785112D01*
X140941100Y-138702100D01*
X141588928Y-138702100D01*
X141588944Y-138702099D01*
X141648472Y-138695698D01*
X141648479Y-138695696D01*
X141783186Y-138645454D01*
X141783193Y-138645450D01*
X141898287Y-138559290D01*
X141898290Y-138559287D01*
X141984450Y-138444193D01*
X141984454Y-138444186D01*
X142034696Y-138309479D01*
X142034698Y-138309472D01*
X142041099Y-138249944D01*
X142041100Y-138249927D01*
X142041100Y-137602100D01*
X141124112Y-137602100D01*
X141157025Y-137545093D01*
X141191100Y-137417926D01*
X141191100Y-137286274D01*
X141157025Y-137159107D01*
X141124112Y-137102100D01*
X142041100Y-137102100D01*
X142041100Y-136454272D01*
X142041099Y-136454255D01*
X142034698Y-136394727D01*
X142034696Y-136394720D01*
X141984454Y-136260013D01*
X141984450Y-136260006D01*
X141898290Y-136144912D01*
X141898287Y-136144909D01*
X141783193Y-136058749D01*
X141783186Y-136058745D01*
X141648479Y-136008503D01*
X141648472Y-136008501D01*
X141588944Y-136002100D01*
X141531936Y-136002100D01*
X141464897Y-135982415D01*
X141419142Y-135929611D01*
X141409198Y-135860453D01*
X141438223Y-135796897D01*
X141460813Y-135776525D01*
X141463085Y-135774933D01*
X141485717Y-135759087D01*
X141638087Y-135606717D01*
X141761684Y-135430202D01*
X141852752Y-135234907D01*
X141908523Y-135026765D01*
X141927304Y-134812100D01*
X141908523Y-134597435D01*
X141852752Y-134389293D01*
X141761684Y-134193998D01*
X141638087Y-134017483D01*
X141485717Y-133865113D01*
X141485715Y-133865112D01*
X141485712Y-133865109D01*
X141309203Y-133741516D01*
X141309201Y-133741515D01*
X141122558Y-133654482D01*
X141070119Y-133608310D01*
X141050967Y-133541116D01*
X141071183Y-133474235D01*
X141122557Y-133429719D01*
X141309202Y-133342685D01*
X141485717Y-133219088D01*
X141638087Y-133066718D01*
X141761684Y-132890203D01*
X141852752Y-132694908D01*
X141908523Y-132486766D01*
X141927304Y-132272101D01*
X141908523Y-132057436D01*
X141855727Y-131860397D01*
X141857390Y-131790549D01*
X141887819Y-131740626D01*
X142591513Y-131036934D01*
X142610474Y-131004093D01*
X142624287Y-130980170D01*
X142634005Y-130963337D01*
X142653443Y-130929669D01*
X142671968Y-130860532D01*
X142685500Y-130810031D01*
X142685500Y-130686172D01*
X142685500Y-116175308D01*
X142705185Y-116108269D01*
X142721819Y-116087627D01*
X143565019Y-115244427D01*
X143626342Y-115210942D01*
X143696034Y-115215926D01*
X143751967Y-115257798D01*
X143776384Y-115323262D01*
X143776700Y-115332108D01*
X143776700Y-116860010D01*
X143757015Y-116927049D01*
X143740381Y-116947691D01*
X143108688Y-117579383D01*
X143108683Y-117579389D01*
X143046758Y-117686646D01*
X143046757Y-117686650D01*
X143030728Y-117746469D01*
X143030727Y-117746470D01*
X143015512Y-117803258D01*
X143015510Y-117803266D01*
X143015508Y-117803275D01*
X143014700Y-117806289D01*
X143014700Y-130683030D01*
X143046757Y-130802669D01*
X143080165Y-130860533D01*
X143108687Y-130909934D01*
X143108689Y-130909936D01*
X143939378Y-131740625D01*
X143972863Y-131801948D01*
X143971472Y-131860399D01*
X143918678Y-132057430D01*
X143918676Y-132057440D01*
X143899896Y-132272100D01*
X143899896Y-132272101D01*
X143918676Y-132486761D01*
X143918678Y-132486771D01*
X143974445Y-132694900D01*
X143974447Y-132694904D01*
X143974448Y-132694908D01*
X144019982Y-132792555D01*
X144065515Y-132890202D01*
X144065516Y-132890204D01*
X144189109Y-133066713D01*
X144189114Y-133066719D01*
X144341481Y-133219086D01*
X144341487Y-133219091D01*
X144517996Y-133342684D01*
X144517998Y-133342685D01*
X144704642Y-133429719D01*
X144757080Y-133475890D01*
X144776232Y-133543084D01*
X144756016Y-133609965D01*
X144704641Y-133654482D01*
X144517998Y-133741515D01*
X144517996Y-133741516D01*
X144341487Y-133865109D01*
X144341481Y-133865114D01*
X144189114Y-134017481D01*
X144189109Y-134017487D01*
X144065516Y-134193996D01*
X144065515Y-134193998D01*
X143974449Y-134389291D01*
X143974445Y-134389300D01*
X143918678Y-134597429D01*
X143918676Y-134597439D01*
X143899896Y-134812099D01*
X143899896Y-134812100D01*
X143918676Y-135026760D01*
X143918678Y-135026770D01*
X143974445Y-135234899D01*
X143974447Y-135234903D01*
X143974448Y-135234907D01*
X144019982Y-135332554D01*
X144065515Y-135430201D01*
X144065516Y-135430203D01*
X144189109Y-135606712D01*
X144189114Y-135606718D01*
X144341481Y-135759085D01*
X144341487Y-135759090D01*
X144366387Y-135776525D01*
X144410012Y-135831101D01*
X144417206Y-135900599D01*
X144385684Y-135962954D01*
X144325454Y-135998369D01*
X144295264Y-136002100D01*
X144238255Y-136002100D01*
X144178727Y-136008501D01*
X144178720Y-136008503D01*
X144044013Y-136058745D01*
X144044006Y-136058749D01*
X143928912Y-136144909D01*
X143928909Y-136144912D01*
X143842749Y-136260006D01*
X143842745Y-136260013D01*
X143792503Y-136394720D01*
X143792501Y-136394727D01*
X143786100Y-136454255D01*
X143786100Y-137102100D01*
X144703088Y-137102100D01*
X144670175Y-137159107D01*
X144636100Y-137286274D01*
X144636100Y-137417926D01*
X144670175Y-137545093D01*
X144703088Y-137602100D01*
X143786100Y-137602100D01*
X143786100Y-138249944D01*
X143792501Y-138309472D01*
X143792503Y-138309479D01*
X143842745Y-138444186D01*
X143842749Y-138444193D01*
X143928909Y-138559287D01*
X143928912Y-138559290D01*
X144044006Y-138645450D01*
X144044013Y-138645454D01*
X144178720Y-138695696D01*
X144178727Y-138695698D01*
X144238255Y-138702099D01*
X144238272Y-138702100D01*
X144886100Y-138702100D01*
X144886100Y-137785112D01*
X144943107Y-137818025D01*
X145070274Y-137852100D01*
X145201926Y-137852100D01*
X145329093Y-137818025D01*
X145386100Y-137785112D01*
X145386100Y-138702100D01*
X146033928Y-138702100D01*
X146033944Y-138702099D01*
X146093472Y-138695698D01*
X146093479Y-138695696D01*
X146228186Y-138645454D01*
X146228193Y-138645450D01*
X146343287Y-138559290D01*
X146343290Y-138559287D01*
X146429450Y-138444193D01*
X146429454Y-138444186D01*
X146479696Y-138309479D01*
X146479698Y-138309472D01*
X146486099Y-138249944D01*
X146486100Y-138249927D01*
X146486100Y-137602100D01*
X145569112Y-137602100D01*
X145602025Y-137545093D01*
X145636100Y-137417926D01*
X145636100Y-137286274D01*
X145602025Y-137159107D01*
X145569112Y-137102100D01*
X146486100Y-137102100D01*
X146486100Y-136454272D01*
X146486099Y-136454255D01*
X146479698Y-136394727D01*
X146479696Y-136394720D01*
X146429454Y-136260013D01*
X146429450Y-136260006D01*
X146343290Y-136144912D01*
X146343287Y-136144909D01*
X146228193Y-136058749D01*
X146228186Y-136058745D01*
X146093479Y-136008503D01*
X146093472Y-136008501D01*
X146033944Y-136002100D01*
X145976936Y-136002100D01*
X145909897Y-135982415D01*
X145864142Y-135929611D01*
X145854198Y-135860453D01*
X145883223Y-135796897D01*
X145905813Y-135776525D01*
X145908085Y-135774933D01*
X145930717Y-135759087D01*
X146083087Y-135606717D01*
X146206684Y-135430202D01*
X146297752Y-135234907D01*
X146353523Y-135026765D01*
X146372304Y-134812100D01*
X146353523Y-134597435D01*
X146297752Y-134389293D01*
X146206684Y-134193998D01*
X146083087Y-134017483D01*
X145930717Y-133865113D01*
X145930715Y-133865112D01*
X145930712Y-133865109D01*
X145754203Y-133741516D01*
X145754201Y-133741515D01*
X145567558Y-133654482D01*
X145515119Y-133608310D01*
X145495967Y-133541116D01*
X145516183Y-133474235D01*
X145567557Y-133429719D01*
X145754202Y-133342685D01*
X145930717Y-133219088D01*
X146083087Y-133066718D01*
X146206684Y-132890203D01*
X146297752Y-132694908D01*
X146353523Y-132486766D01*
X146372304Y-132272101D01*
X146353523Y-132057436D01*
X146297752Y-131849294D01*
X146206684Y-131653999D01*
X146181552Y-131618107D01*
X146083090Y-131477488D01*
X146083085Y-131477482D01*
X145930718Y-131325115D01*
X145930712Y-131325110D01*
X145754203Y-131201517D01*
X145754201Y-131201516D01*
X145656554Y-131155983D01*
X145558907Y-131110449D01*
X145558903Y-131110448D01*
X145558899Y-131110446D01*
X145350770Y-131054679D01*
X145350760Y-131054677D01*
X145136101Y-131035897D01*
X145136099Y-131035897D01*
X144921439Y-131054677D01*
X144921429Y-131054679D01*
X144724398Y-131107473D01*
X144654548Y-131105810D01*
X144604624Y-131075379D01*
X143991819Y-130462574D01*
X143958334Y-130401251D01*
X143955500Y-130374893D01*
X143955500Y-129291033D01*
X143975185Y-129223994D01*
X144027989Y-129178239D01*
X144097147Y-129168295D01*
X144122835Y-129174852D01*
X144178719Y-129195696D01*
X144178727Y-129195698D01*
X144238255Y-129202099D01*
X144238272Y-129202100D01*
X144886100Y-129202100D01*
X144886100Y-128285112D01*
X144943107Y-128318025D01*
X145070274Y-128352100D01*
X145201926Y-128352100D01*
X145329093Y-128318025D01*
X145386100Y-128285112D01*
X145386100Y-129202100D01*
X146033928Y-129202100D01*
X146033944Y-129202099D01*
X146093472Y-129195698D01*
X146093479Y-129195696D01*
X146228186Y-129145454D01*
X146228193Y-129145450D01*
X146343287Y-129059290D01*
X146343290Y-129059287D01*
X146429450Y-128944193D01*
X146429454Y-128944186D01*
X146479696Y-128809479D01*
X146479698Y-128809472D01*
X146486099Y-128749944D01*
X146486100Y-128749927D01*
X146486100Y-128102100D01*
X145569112Y-128102100D01*
X145602025Y-128045093D01*
X145636100Y-127917926D01*
X145636100Y-127786274D01*
X145602025Y-127659107D01*
X145569112Y-127602100D01*
X146486100Y-127602100D01*
X146486100Y-126954272D01*
X146486099Y-126954255D01*
X146479698Y-126894727D01*
X146479696Y-126894720D01*
X146429454Y-126760013D01*
X146429450Y-126760006D01*
X146343290Y-126644912D01*
X146343287Y-126644909D01*
X146228193Y-126558749D01*
X146228186Y-126558745D01*
X146093479Y-126508503D01*
X146093472Y-126508501D01*
X146033944Y-126502100D01*
X145976936Y-126502100D01*
X145909897Y-126482415D01*
X145864142Y-126429611D01*
X145854198Y-126360453D01*
X145883223Y-126296897D01*
X145905813Y-126276525D01*
X145918119Y-126267908D01*
X145930717Y-126259087D01*
X146083087Y-126106717D01*
X146206684Y-125930202D01*
X146297752Y-125734907D01*
X146353523Y-125526765D01*
X146372304Y-125312100D01*
X146353523Y-125097435D01*
X146300116Y-124898114D01*
X146297754Y-124889300D01*
X146297753Y-124889299D01*
X146297752Y-124889293D01*
X146206684Y-124693998D01*
X146196179Y-124678996D01*
X146083090Y-124517487D01*
X146083085Y-124517481D01*
X145930718Y-124365114D01*
X145930712Y-124365109D01*
X145754203Y-124241516D01*
X145754201Y-124241515D01*
X145567558Y-124154482D01*
X145515119Y-124108310D01*
X145495967Y-124041116D01*
X145516183Y-123974235D01*
X145567557Y-123929719D01*
X145754202Y-123842685D01*
X145930717Y-123719088D01*
X146083087Y-123566718D01*
X146206684Y-123390203D01*
X146297752Y-123194908D01*
X146353523Y-122986766D01*
X146372304Y-122772101D01*
X146353523Y-122557436D01*
X146297752Y-122349294D01*
X146206684Y-122153999D01*
X146196179Y-122138997D01*
X146083090Y-121977488D01*
X146083085Y-121977482D01*
X145930718Y-121825115D01*
X145930712Y-121825110D01*
X145754203Y-121701517D01*
X145754201Y-121701516D01*
X145656554Y-121655983D01*
X145558907Y-121610449D01*
X145558903Y-121610448D01*
X145558899Y-121610446D01*
X145350770Y-121554679D01*
X145350760Y-121554677D01*
X145136101Y-121535897D01*
X145136099Y-121535897D01*
X144921439Y-121554677D01*
X144921429Y-121554679D01*
X144713300Y-121610446D01*
X144713291Y-121610450D01*
X144517998Y-121701516D01*
X144517996Y-121701517D01*
X144341487Y-121825110D01*
X144341481Y-121825115D01*
X144189114Y-121977482D01*
X144189108Y-121977489D01*
X144181073Y-121988965D01*
X144126495Y-122032589D01*
X144056996Y-122039780D01*
X143994643Y-122008256D01*
X143959230Y-121948025D01*
X143955500Y-121917839D01*
X143955500Y-118114425D01*
X143975185Y-118047386D01*
X143991815Y-118026748D01*
X144061130Y-117957433D01*
X144122452Y-117923949D01*
X144192144Y-117928933D01*
X144248077Y-117970805D01*
X144264751Y-118001142D01*
X144274229Y-118026133D01*
X144274230Y-118026136D01*
X144368243Y-118162336D01*
X144369923Y-118163824D01*
X144370801Y-118165224D01*
X144373218Y-118167952D01*
X144372764Y-118168353D01*
X144407052Y-118223012D01*
X144411700Y-118256643D01*
X144411700Y-119166029D01*
X144443757Y-119285668D01*
X144505686Y-119392932D01*
X144505687Y-119392933D01*
X144505688Y-119392934D01*
X146788381Y-121675627D01*
X146821866Y-121736950D01*
X146824700Y-121763308D01*
X146824700Y-128818029D01*
X146856017Y-128934908D01*
X146856758Y-128937670D01*
X146856758Y-128937671D01*
X146899692Y-129012034D01*
X146899693Y-129012035D01*
X146918687Y-129044933D01*
X146918689Y-129044935D01*
X148924538Y-131050784D01*
X148958023Y-131112107D01*
X148953039Y-131181799D01*
X148911167Y-131237732D01*
X148907981Y-131240040D01*
X148786483Y-131325114D01*
X148786481Y-131325115D01*
X148634114Y-131477482D01*
X148634109Y-131477488D01*
X148510516Y-131653997D01*
X148510515Y-131653999D01*
X148419449Y-131849292D01*
X148419445Y-131849301D01*
X148363678Y-132057430D01*
X148363676Y-132057440D01*
X148344896Y-132272100D01*
X148344896Y-132272101D01*
X148363676Y-132486761D01*
X148363678Y-132486771D01*
X148419445Y-132694900D01*
X148419447Y-132694904D01*
X148419448Y-132694908D01*
X148464982Y-132792555D01*
X148510515Y-132890202D01*
X148510516Y-132890204D01*
X148634109Y-133066713D01*
X148634114Y-133066719D01*
X148786481Y-133219086D01*
X148786487Y-133219091D01*
X148962996Y-133342684D01*
X148962998Y-133342685D01*
X149149642Y-133429719D01*
X149202080Y-133475890D01*
X149221232Y-133543084D01*
X149201016Y-133609965D01*
X149149641Y-133654482D01*
X148962998Y-133741515D01*
X148962996Y-133741516D01*
X148786487Y-133865109D01*
X148786481Y-133865114D01*
X148634114Y-134017481D01*
X148634109Y-134017487D01*
X148510516Y-134193996D01*
X148510515Y-134193998D01*
X148419449Y-134389291D01*
X148419445Y-134389300D01*
X148363678Y-134597429D01*
X148363676Y-134597439D01*
X148344896Y-134812099D01*
X148344896Y-134812100D01*
X148363676Y-135026760D01*
X148363678Y-135026770D01*
X148419445Y-135234899D01*
X148419447Y-135234903D01*
X148419448Y-135234907D01*
X148464982Y-135332554D01*
X148510515Y-135430201D01*
X148510516Y-135430203D01*
X148634109Y-135606712D01*
X148634114Y-135606718D01*
X148786481Y-135759085D01*
X148786487Y-135759090D01*
X148811387Y-135776525D01*
X148855012Y-135831101D01*
X148862206Y-135900599D01*
X148830684Y-135962954D01*
X148770454Y-135998369D01*
X148740264Y-136002100D01*
X148683255Y-136002100D01*
X148623727Y-136008501D01*
X148623720Y-136008503D01*
X148489013Y-136058745D01*
X148489006Y-136058749D01*
X148373912Y-136144909D01*
X148373909Y-136144912D01*
X148287749Y-136260006D01*
X148287745Y-136260013D01*
X148237503Y-136394720D01*
X148237501Y-136394727D01*
X148231100Y-136454255D01*
X148231100Y-137102100D01*
X149148088Y-137102100D01*
X149115175Y-137159107D01*
X149081100Y-137286274D01*
X149081100Y-137417926D01*
X149115175Y-137545093D01*
X149148088Y-137602100D01*
X148231100Y-137602100D01*
X148231100Y-138249944D01*
X148237501Y-138309472D01*
X148237503Y-138309479D01*
X148287745Y-138444186D01*
X148287749Y-138444193D01*
X148373909Y-138559287D01*
X148373912Y-138559290D01*
X148489006Y-138645450D01*
X148489013Y-138645454D01*
X148623720Y-138695696D01*
X148623727Y-138695698D01*
X148683255Y-138702099D01*
X148683272Y-138702100D01*
X149331100Y-138702100D01*
X149331100Y-137785112D01*
X149388107Y-137818025D01*
X149515274Y-137852100D01*
X149646926Y-137852100D01*
X149774093Y-137818025D01*
X149831100Y-137785112D01*
X149831100Y-138702100D01*
X150478928Y-138702100D01*
X150478944Y-138702099D01*
X150538472Y-138695698D01*
X150538479Y-138695696D01*
X150673186Y-138645454D01*
X150673193Y-138645450D01*
X150788287Y-138559290D01*
X150788290Y-138559287D01*
X150874450Y-138444193D01*
X150874454Y-138444186D01*
X150924696Y-138309479D01*
X150924698Y-138309472D01*
X150931099Y-138249944D01*
X150931100Y-138249927D01*
X150931100Y-137602100D01*
X150014112Y-137602100D01*
X150047025Y-137545093D01*
X150081100Y-137417926D01*
X150081100Y-137402099D01*
X152027896Y-137402099D01*
X152027896Y-137402100D01*
X152046676Y-137616760D01*
X152046678Y-137616770D01*
X152102445Y-137824899D01*
X152102447Y-137824903D01*
X152102448Y-137824907D01*
X152138444Y-137902100D01*
X152193515Y-138020201D01*
X152193516Y-138020203D01*
X152317109Y-138196712D01*
X152317114Y-138196718D01*
X152469481Y-138349085D01*
X152469487Y-138349090D01*
X152645996Y-138472683D01*
X152645998Y-138472684D01*
X152841293Y-138563752D01*
X153049435Y-138619523D01*
X153221167Y-138634547D01*
X153264099Y-138638304D01*
X153264100Y-138638304D01*
X153264101Y-138638304D01*
X153299877Y-138635173D01*
X153478765Y-138619523D01*
X153686907Y-138563752D01*
X153882202Y-138472684D01*
X154058717Y-138349087D01*
X154211087Y-138196717D01*
X154334684Y-138020202D01*
X154421718Y-137833555D01*
X154467890Y-137781117D01*
X154535083Y-137761965D01*
X154601965Y-137782181D01*
X154646482Y-137833556D01*
X154733516Y-138020201D01*
X154733517Y-138020203D01*
X154857110Y-138196712D01*
X154857115Y-138196718D01*
X155009482Y-138349085D01*
X155009488Y-138349090D01*
X155185997Y-138472683D01*
X155185999Y-138472684D01*
X155381294Y-138563752D01*
X155589436Y-138619523D01*
X155761168Y-138634547D01*
X155804100Y-138638304D01*
X155804101Y-138638304D01*
X155804102Y-138638304D01*
X155839878Y-138635173D01*
X156018766Y-138619523D01*
X156226908Y-138563752D01*
X156422203Y-138472684D01*
X156598718Y-138349087D01*
X156751088Y-138196717D01*
X156874685Y-138020202D01*
X156961719Y-137833557D01*
X157007890Y-137781119D01*
X157075083Y-137761967D01*
X157141965Y-137782182D01*
X157186482Y-137833558D01*
X157273515Y-138020201D01*
X157273516Y-138020203D01*
X157397109Y-138196712D01*
X157397114Y-138196718D01*
X157549481Y-138349085D01*
X157549487Y-138349090D01*
X157725996Y-138472683D01*
X157725998Y-138472684D01*
X157921293Y-138563752D01*
X158129435Y-138619523D01*
X158301167Y-138634547D01*
X158344099Y-138638304D01*
X158344100Y-138638304D01*
X158344101Y-138638304D01*
X158379877Y-138635173D01*
X158558765Y-138619523D01*
X158766907Y-138563752D01*
X158962202Y-138472684D01*
X159138717Y-138349087D01*
X159291087Y-138196717D01*
X159308525Y-138171813D01*
X159363101Y-138128188D01*
X159432599Y-138120994D01*
X159494954Y-138152516D01*
X159530369Y-138212746D01*
X159534100Y-138242936D01*
X159534100Y-138299944D01*
X159540501Y-138359472D01*
X159540503Y-138359479D01*
X159590745Y-138494186D01*
X159590749Y-138494193D01*
X159676909Y-138609287D01*
X159676912Y-138609290D01*
X159792006Y-138695450D01*
X159792013Y-138695454D01*
X159926720Y-138745696D01*
X159926727Y-138745698D01*
X159986255Y-138752099D01*
X159986272Y-138752100D01*
X160634100Y-138752100D01*
X160634100Y-137835112D01*
X160691107Y-137868025D01*
X160818274Y-137902100D01*
X160949926Y-137902100D01*
X161077093Y-137868025D01*
X161134100Y-137835112D01*
X161134100Y-138752100D01*
X161781928Y-138752100D01*
X161781944Y-138752099D01*
X161841472Y-138745698D01*
X161841479Y-138745696D01*
X161976186Y-138695454D01*
X161976193Y-138695450D01*
X162091287Y-138609290D01*
X162091290Y-138609287D01*
X162177450Y-138494193D01*
X162177454Y-138494186D01*
X162227696Y-138359479D01*
X162227698Y-138359472D01*
X162234099Y-138299944D01*
X162234100Y-138299927D01*
X162234100Y-137652100D01*
X161317112Y-137652100D01*
X161350025Y-137595093D01*
X161384100Y-137467926D01*
X161384100Y-137336274D01*
X161350025Y-137209107D01*
X161317112Y-137152100D01*
X162234100Y-137152100D01*
X162234100Y-136504272D01*
X162234099Y-136504255D01*
X162227698Y-136444727D01*
X162227696Y-136444720D01*
X162177454Y-136310013D01*
X162177450Y-136310006D01*
X162091290Y-136194912D01*
X162091287Y-136194909D01*
X161976193Y-136108749D01*
X161976186Y-136108745D01*
X161841479Y-136058503D01*
X161841472Y-136058501D01*
X161781944Y-136052100D01*
X161134100Y-136052100D01*
X161134100Y-136969088D01*
X161077093Y-136936175D01*
X160949926Y-136902100D01*
X160818274Y-136902100D01*
X160691107Y-136936175D01*
X160634100Y-136969088D01*
X160634100Y-136052100D01*
X159986255Y-136052100D01*
X159926727Y-136058501D01*
X159926720Y-136058503D01*
X159792013Y-136108745D01*
X159792006Y-136108749D01*
X159676912Y-136194909D01*
X159676909Y-136194912D01*
X159590749Y-136310006D01*
X159590745Y-136310013D01*
X159540503Y-136444720D01*
X159540501Y-136444727D01*
X159534100Y-136504255D01*
X159534100Y-136561263D01*
X159514415Y-136628302D01*
X159461611Y-136674057D01*
X159392453Y-136684001D01*
X159328897Y-136654976D01*
X159308526Y-136632387D01*
X159291093Y-136607490D01*
X159291085Y-136607481D01*
X159138718Y-136455114D01*
X159138712Y-136455109D01*
X158962203Y-136331516D01*
X158962201Y-136331515D01*
X158864554Y-136285982D01*
X158766907Y-136240448D01*
X158766903Y-136240447D01*
X158766899Y-136240445D01*
X158558770Y-136184678D01*
X158558760Y-136184676D01*
X158344101Y-136165896D01*
X158344099Y-136165896D01*
X158129439Y-136184676D01*
X158129429Y-136184678D01*
X157921300Y-136240445D01*
X157921291Y-136240449D01*
X157725998Y-136331515D01*
X157725996Y-136331516D01*
X157549487Y-136455109D01*
X157549481Y-136455114D01*
X157397114Y-136607481D01*
X157397109Y-136607487D01*
X157273516Y-136783996D01*
X157273515Y-136783998D01*
X157186482Y-136970641D01*
X157140309Y-137023080D01*
X157073116Y-137042232D01*
X157006235Y-137022016D01*
X156961718Y-136970641D01*
X156945646Y-136936175D01*
X156874685Y-136783998D01*
X156849403Y-136747892D01*
X156751091Y-136607487D01*
X156751086Y-136607481D01*
X156598719Y-136455114D01*
X156598713Y-136455109D01*
X156422204Y-136331516D01*
X156422202Y-136331515D01*
X156324555Y-136285982D01*
X156226908Y-136240448D01*
X156226904Y-136240447D01*
X156226900Y-136240445D01*
X156018771Y-136184678D01*
X156018761Y-136184676D01*
X155804102Y-136165896D01*
X155804100Y-136165896D01*
X155589440Y-136184676D01*
X155589430Y-136184678D01*
X155381301Y-136240445D01*
X155381292Y-136240449D01*
X155185999Y-136331515D01*
X155185997Y-136331516D01*
X155009488Y-136455109D01*
X155009482Y-136455114D01*
X154857115Y-136607481D01*
X154857110Y-136607487D01*
X154733517Y-136783996D01*
X154733516Y-136783998D01*
X154646482Y-136970643D01*
X154600309Y-137023082D01*
X154533116Y-137042234D01*
X154466235Y-137022018D01*
X154421718Y-136970643D01*
X154405645Y-136936175D01*
X154334684Y-136783998D01*
X154309402Y-136747892D01*
X154211090Y-136607487D01*
X154211085Y-136607481D01*
X154058718Y-136455114D01*
X154058712Y-136455109D01*
X153882203Y-136331516D01*
X153882201Y-136331515D01*
X153784554Y-136285982D01*
X153686907Y-136240448D01*
X153686903Y-136240447D01*
X153686899Y-136240445D01*
X153478770Y-136184678D01*
X153478760Y-136184676D01*
X153264101Y-136165896D01*
X153264099Y-136165896D01*
X153049439Y-136184676D01*
X153049429Y-136184678D01*
X152841300Y-136240445D01*
X152841291Y-136240449D01*
X152645998Y-136331515D01*
X152645996Y-136331516D01*
X152469487Y-136455109D01*
X152469481Y-136455114D01*
X152317114Y-136607481D01*
X152317109Y-136607487D01*
X152193516Y-136783996D01*
X152193515Y-136783998D01*
X152102449Y-136979291D01*
X152102445Y-136979300D01*
X152046678Y-137187429D01*
X152046676Y-137187439D01*
X152027896Y-137402099D01*
X150081100Y-137402099D01*
X150081100Y-137286274D01*
X150047025Y-137159107D01*
X150014112Y-137102100D01*
X150931100Y-137102100D01*
X150931100Y-136454272D01*
X150931099Y-136454255D01*
X150924698Y-136394727D01*
X150924696Y-136394720D01*
X150874454Y-136260013D01*
X150874450Y-136260006D01*
X150788290Y-136144912D01*
X150788287Y-136144909D01*
X150673193Y-136058749D01*
X150673186Y-136058745D01*
X150538479Y-136008503D01*
X150538472Y-136008501D01*
X150478944Y-136002100D01*
X150421936Y-136002100D01*
X150354897Y-135982415D01*
X150309142Y-135929611D01*
X150299198Y-135860453D01*
X150328223Y-135796897D01*
X150350813Y-135776525D01*
X150353085Y-135774933D01*
X150371824Y-135761813D01*
X163978600Y-135761813D01*
X163978600Y-135974387D01*
X163987333Y-136029523D01*
X164005608Y-136144912D01*
X164011854Y-136184343D01*
X164059673Y-136331515D01*
X164077544Y-136386514D01*
X164174051Y-136575920D01*
X164298990Y-136747886D01*
X164449313Y-136898209D01*
X164621279Y-137023148D01*
X164621281Y-137023149D01*
X164621284Y-137023151D01*
X164810688Y-137119657D01*
X165012857Y-137185346D01*
X165222813Y-137218600D01*
X165222814Y-137218600D01*
X165435386Y-137218600D01*
X165435387Y-137218600D01*
X165645343Y-137185346D01*
X165847512Y-137119657D01*
X166036916Y-137023151D01*
X166109189Y-136970642D01*
X166208886Y-136898209D01*
X166208888Y-136898206D01*
X166208892Y-136898204D01*
X166359204Y-136747892D01*
X166359206Y-136747888D01*
X166359209Y-136747886D01*
X166484148Y-136575920D01*
X166484147Y-136575920D01*
X166484151Y-136575916D01*
X166580657Y-136386512D01*
X166646346Y-136184343D01*
X166679600Y-135974387D01*
X166679600Y-135761813D01*
X166646346Y-135551857D01*
X166580657Y-135349688D01*
X166484151Y-135160284D01*
X166484149Y-135160281D01*
X166484148Y-135160279D01*
X166359209Y-134988313D01*
X166208886Y-134837990D01*
X166036920Y-134713051D01*
X165847514Y-134616544D01*
X165847513Y-134616543D01*
X165847512Y-134616543D01*
X165645343Y-134550854D01*
X165645341Y-134550853D01*
X165645340Y-134550853D01*
X165484057Y-134525308D01*
X165435387Y-134517600D01*
X165222813Y-134517600D01*
X165174142Y-134525308D01*
X165012860Y-134550853D01*
X164810685Y-134616544D01*
X164621279Y-134713051D01*
X164449313Y-134837990D01*
X164298990Y-134988313D01*
X164174051Y-135160279D01*
X164077544Y-135349685D01*
X164011853Y-135551860D01*
X163979032Y-135759085D01*
X163978600Y-135761813D01*
X150371824Y-135761813D01*
X150375717Y-135759087D01*
X150528087Y-135606717D01*
X150651684Y-135430202D01*
X150742752Y-135234907D01*
X150798523Y-135026765D01*
X150817304Y-134812100D01*
X150798523Y-134597435D01*
X150742752Y-134389293D01*
X150651684Y-134193998D01*
X150528087Y-134017483D01*
X150375717Y-133865113D01*
X150375715Y-133865112D01*
X150375712Y-133865109D01*
X150199203Y-133741516D01*
X150199201Y-133741515D01*
X150012558Y-133654482D01*
X149960119Y-133608310D01*
X149940967Y-133541116D01*
X149961183Y-133474235D01*
X150012557Y-133429719D01*
X150199202Y-133342685D01*
X150375717Y-133219088D01*
X150528087Y-133066718D01*
X150651684Y-132890203D01*
X150742752Y-132694908D01*
X150798523Y-132486766D01*
X150817304Y-132272101D01*
X150798523Y-132057436D01*
X150742752Y-131849294D01*
X150651684Y-131653999D01*
X150626552Y-131618107D01*
X150528090Y-131477488D01*
X150528085Y-131477482D01*
X150375718Y-131325115D01*
X150375712Y-131325110D01*
X150199203Y-131201517D01*
X150199201Y-131201516D01*
X150123095Y-131166027D01*
X150070656Y-131119854D01*
X150051500Y-131053645D01*
X150051500Y-130980171D01*
X150051500Y-130980170D01*
X150019443Y-130860532D01*
X149957514Y-130753268D01*
X149869932Y-130665686D01*
X149148987Y-129944741D01*
X150533100Y-129944741D01*
X150533100Y-130107458D01*
X150564840Y-130267027D01*
X150564842Y-130267035D01*
X150627106Y-130417355D01*
X150627111Y-130417364D01*
X150717503Y-130552644D01*
X150717506Y-130552648D01*
X150832551Y-130667693D01*
X150832555Y-130667696D01*
X150967835Y-130758088D01*
X150967841Y-130758091D01*
X150967842Y-130758092D01*
X151118165Y-130820358D01*
X151242931Y-130845175D01*
X151277741Y-130852099D01*
X151277745Y-130852100D01*
X151277746Y-130852100D01*
X152456455Y-130852100D01*
X152456456Y-130852099D01*
X152616035Y-130820358D01*
X152766358Y-130758092D01*
X152901645Y-130667696D01*
X153016696Y-130552645D01*
X153016697Y-130552643D01*
X153023763Y-130545577D01*
X153023765Y-130545573D01*
X153935921Y-129633419D01*
X153997244Y-129599934D01*
X154023602Y-129597100D01*
X156107134Y-129597100D01*
X156174173Y-129616785D01*
X156194815Y-129633419D01*
X156279481Y-129718085D01*
X156279487Y-129718090D01*
X156455996Y-129841683D01*
X156455997Y-129841683D01*
X156455998Y-129841684D01*
X156502444Y-129863342D01*
X156554883Y-129909513D01*
X156574036Y-129976706D01*
X156553821Y-130043588D01*
X156502446Y-130088106D01*
X156396519Y-130137501D01*
X156203026Y-130272986D01*
X156203020Y-130272991D01*
X156035991Y-130440020D01*
X156035986Y-130440026D01*
X155900500Y-130633520D01*
X155900499Y-130633522D01*
X155800670Y-130847607D01*
X155800667Y-130847613D01*
X155743464Y-131061099D01*
X155743464Y-131061100D01*
X156641088Y-131061100D01*
X156608175Y-131118107D01*
X156574100Y-131245274D01*
X156574100Y-131376926D01*
X156608175Y-131504093D01*
X156641088Y-131561100D01*
X155743464Y-131561100D01*
X155800667Y-131774586D01*
X155800670Y-131774592D01*
X155900499Y-131988678D01*
X156035994Y-132182182D01*
X156203017Y-132349205D01*
X156396521Y-132484700D01*
X156610607Y-132584529D01*
X156610616Y-132584533D01*
X156824100Y-132641734D01*
X156824100Y-131744112D01*
X156881107Y-131777025D01*
X157008274Y-131811100D01*
X157139926Y-131811100D01*
X157267093Y-131777025D01*
X157324100Y-131744112D01*
X157324100Y-132641733D01*
X157537583Y-132584533D01*
X157537592Y-132584529D01*
X157751678Y-132484700D01*
X157945182Y-132349205D01*
X158112205Y-132182182D01*
X158247700Y-131988678D01*
X158347529Y-131774592D01*
X158347532Y-131774586D01*
X158404736Y-131561100D01*
X157507112Y-131561100D01*
X157540025Y-131504093D01*
X157574100Y-131376926D01*
X157574100Y-131245274D01*
X157540025Y-131118107D01*
X157507112Y-131061100D01*
X158404736Y-131061100D01*
X158404735Y-131061099D01*
X158347532Y-130847613D01*
X158347529Y-130847607D01*
X158247700Y-130633522D01*
X158247699Y-130633520D01*
X158112213Y-130440026D01*
X158112208Y-130440020D01*
X157945182Y-130272994D01*
X157751678Y-130137499D01*
X157645754Y-130088106D01*
X157593315Y-130041933D01*
X157574163Y-129974740D01*
X157594379Y-129907859D01*
X157645755Y-129863342D01*
X157692202Y-129841684D01*
X157868717Y-129718087D01*
X158021087Y-129565717D01*
X158144684Y-129389202D01*
X158235752Y-129193907D01*
X158291523Y-128985765D01*
X158310304Y-128771100D01*
X158291523Y-128556435D01*
X158235752Y-128348293D01*
X158144684Y-128152998D01*
X158138458Y-128144107D01*
X158021090Y-127976487D01*
X158021085Y-127976481D01*
X157868718Y-127824114D01*
X157868712Y-127824109D01*
X157692203Y-127700516D01*
X157692196Y-127700512D01*
X157688912Y-127698981D01*
X157687708Y-127697921D01*
X157687512Y-127697808D01*
X157687534Y-127697768D01*
X157636473Y-127652808D01*
X157617322Y-127585615D01*
X157637539Y-127518734D01*
X157690705Y-127473400D01*
X157741318Y-127462600D01*
X157960300Y-127462600D01*
X157960306Y-127462600D01*
X158034461Y-127451796D01*
X158091653Y-127423836D01*
X158148843Y-127395878D01*
X158148846Y-127395876D01*
X158238876Y-127305846D01*
X158238878Y-127305843D01*
X158279158Y-127223448D01*
X158294796Y-127191461D01*
X158305600Y-127117306D01*
X158305600Y-125344894D01*
X158294796Y-125270739D01*
X158273412Y-125226997D01*
X158238878Y-125156356D01*
X158238876Y-125156353D01*
X158148846Y-125066323D01*
X158148843Y-125066321D01*
X158034464Y-125010405D01*
X158034462Y-125010404D01*
X158034461Y-125010404D01*
X157960306Y-124999600D01*
X156187894Y-124999600D01*
X156113739Y-125010404D01*
X156113737Y-125010404D01*
X156113735Y-125010405D01*
X155999356Y-125066321D01*
X155999353Y-125066323D01*
X155909323Y-125156353D01*
X155909321Y-125156356D01*
X155853405Y-125270735D01*
X155853404Y-125270737D01*
X155853404Y-125270739D01*
X155842600Y-125344894D01*
X155842600Y-127117306D01*
X155853404Y-127191461D01*
X155853404Y-127191462D01*
X155853405Y-127191464D01*
X155909321Y-127305843D01*
X155909323Y-127305846D01*
X155999353Y-127395876D01*
X155999356Y-127395878D01*
X156085742Y-127438109D01*
X156113739Y-127451796D01*
X156187894Y-127462600D01*
X156187900Y-127462600D01*
X156406882Y-127462600D01*
X156473921Y-127482285D01*
X156519676Y-127535089D01*
X156529620Y-127604247D01*
X156500595Y-127667803D01*
X156459288Y-127698981D01*
X156456003Y-127700512D01*
X156455996Y-127700516D01*
X156279487Y-127824109D01*
X156279481Y-127824114D01*
X156194815Y-127908781D01*
X156133492Y-127942266D01*
X156107134Y-127945100D01*
X153548741Y-127945100D01*
X153389172Y-127976840D01*
X153389164Y-127976842D01*
X153238844Y-128039106D01*
X153238835Y-128039111D01*
X153103556Y-128129502D01*
X153073952Y-128159107D01*
X152988504Y-128244555D01*
X152988501Y-128244558D01*
X152069279Y-129163781D01*
X152007956Y-129197266D01*
X151981598Y-129200100D01*
X151277741Y-129200100D01*
X151118172Y-129231840D01*
X151118164Y-129231842D01*
X150967844Y-129294106D01*
X150967835Y-129294111D01*
X150832555Y-129384503D01*
X150832551Y-129384506D01*
X150717506Y-129499551D01*
X150717503Y-129499555D01*
X150627111Y-129634835D01*
X150627106Y-129634844D01*
X150564842Y-129785164D01*
X150564840Y-129785172D01*
X150533100Y-129944741D01*
X149148987Y-129944741D01*
X148603027Y-129398781D01*
X148569542Y-129337458D01*
X148574526Y-129267766D01*
X148616398Y-129211833D01*
X148681862Y-129187416D01*
X148690708Y-129187100D01*
X149331100Y-129187100D01*
X149331100Y-128270112D01*
X149388107Y-128303025D01*
X149515274Y-128337100D01*
X149646926Y-128337100D01*
X149774093Y-128303025D01*
X149831100Y-128270112D01*
X149831100Y-129187100D01*
X150478928Y-129187100D01*
X150478944Y-129187099D01*
X150538472Y-129180698D01*
X150538479Y-129180696D01*
X150673186Y-129130454D01*
X150673193Y-129130450D01*
X150788287Y-129044290D01*
X150788290Y-129044287D01*
X150874450Y-128929193D01*
X150874454Y-128929186D01*
X150924696Y-128794479D01*
X150924698Y-128794472D01*
X150931099Y-128734944D01*
X150931100Y-128734927D01*
X150931100Y-128087100D01*
X150014112Y-128087100D01*
X150047025Y-128030093D01*
X150081100Y-127902926D01*
X150081100Y-127771274D01*
X150047025Y-127644107D01*
X150014112Y-127587100D01*
X150931100Y-127587100D01*
X150931100Y-126939272D01*
X150931099Y-126939255D01*
X150924698Y-126879727D01*
X150924696Y-126879720D01*
X150874454Y-126745013D01*
X150874450Y-126745006D01*
X150788290Y-126629912D01*
X150788287Y-126629909D01*
X150673193Y-126543749D01*
X150673186Y-126543745D01*
X150538479Y-126493503D01*
X150538472Y-126493501D01*
X150478944Y-126487100D01*
X150421936Y-126487100D01*
X150354897Y-126467415D01*
X150309142Y-126414611D01*
X150299198Y-126345453D01*
X150328223Y-126281897D01*
X150350813Y-126261525D01*
X150354298Y-126259085D01*
X150375717Y-126244087D01*
X150528087Y-126091717D01*
X150651684Y-125915202D01*
X150742752Y-125719907D01*
X150798523Y-125511765D01*
X150817304Y-125297100D01*
X150798523Y-125082435D01*
X150742752Y-124874293D01*
X150651684Y-124678998D01*
X150648464Y-124674400D01*
X150528090Y-124502487D01*
X150528085Y-124502481D01*
X150375718Y-124350114D01*
X150375712Y-124350109D01*
X150199203Y-124226516D01*
X150199201Y-124226515D01*
X150012558Y-124139482D01*
X149960119Y-124093310D01*
X149940967Y-124026116D01*
X149961183Y-123959235D01*
X150012557Y-123914719D01*
X150199202Y-123827685D01*
X150375717Y-123704088D01*
X150528087Y-123551718D01*
X150651684Y-123375203D01*
X150742752Y-123179908D01*
X150776194Y-123055099D01*
X164023464Y-123055099D01*
X164023464Y-123055100D01*
X164921088Y-123055100D01*
X164888175Y-123112107D01*
X164854100Y-123239274D01*
X164854100Y-123370926D01*
X164888175Y-123498093D01*
X164921088Y-123555100D01*
X164023464Y-123555100D01*
X164080667Y-123768586D01*
X164080670Y-123768592D01*
X164180499Y-123982678D01*
X164315994Y-124176182D01*
X164483017Y-124343205D01*
X164676522Y-124478700D01*
X164676524Y-124478701D01*
X164782445Y-124528093D01*
X164834885Y-124574265D01*
X164854037Y-124641458D01*
X164833821Y-124708340D01*
X164782447Y-124752857D01*
X164735995Y-124774518D01*
X164559487Y-124898110D01*
X164559481Y-124898115D01*
X164407114Y-125050482D01*
X164407109Y-125050488D01*
X164283516Y-125226997D01*
X164283515Y-125226999D01*
X164192449Y-125422292D01*
X164192445Y-125422301D01*
X164136678Y-125630430D01*
X164136676Y-125630440D01*
X164117896Y-125845100D01*
X164117896Y-125845101D01*
X164136676Y-126059761D01*
X164136678Y-126059771D01*
X164192445Y-126267900D01*
X164192447Y-126267904D01*
X164192448Y-126267908D01*
X164205966Y-126296897D01*
X164283515Y-126463202D01*
X164283516Y-126463204D01*
X164407109Y-126639713D01*
X164407114Y-126639719D01*
X164559481Y-126792086D01*
X164559487Y-126792091D01*
X164735996Y-126915684D01*
X164735998Y-126915685D01*
X164922642Y-127002719D01*
X164975080Y-127048890D01*
X164994232Y-127116084D01*
X164974016Y-127182965D01*
X164922641Y-127227482D01*
X164735998Y-127314515D01*
X164735996Y-127314516D01*
X164559487Y-127438109D01*
X164559481Y-127438114D01*
X164407114Y-127590481D01*
X164407109Y-127590487D01*
X164283516Y-127766996D01*
X164283515Y-127766998D01*
X164192449Y-127962291D01*
X164192445Y-127962300D01*
X164136678Y-128170429D01*
X164136676Y-128170439D01*
X164117896Y-128385099D01*
X164117896Y-128385100D01*
X164136676Y-128599760D01*
X164136678Y-128599770D01*
X164192445Y-128807899D01*
X164192447Y-128807903D01*
X164192448Y-128807907D01*
X164197168Y-128818028D01*
X164283515Y-129003201D01*
X164283516Y-129003203D01*
X164407109Y-129179712D01*
X164407114Y-129179718D01*
X164559481Y-129332085D01*
X164559487Y-129332090D01*
X164735996Y-129455683D01*
X164736003Y-129455687D01*
X164739288Y-129457219D01*
X164740491Y-129458278D01*
X164740688Y-129458392D01*
X164740665Y-129458431D01*
X164791727Y-129503392D01*
X164810878Y-129570585D01*
X164790661Y-129637466D01*
X164737495Y-129682800D01*
X164686882Y-129693600D01*
X164467894Y-129693600D01*
X164393739Y-129704404D01*
X164393737Y-129704404D01*
X164393735Y-129704405D01*
X164279356Y-129760321D01*
X164279353Y-129760323D01*
X164189323Y-129850353D01*
X164189321Y-129850356D01*
X164133405Y-129964735D01*
X164133404Y-129964737D01*
X164133404Y-129964739D01*
X164122600Y-130038894D01*
X164122600Y-131811306D01*
X164133404Y-131885461D01*
X164133404Y-131885462D01*
X164133405Y-131885464D01*
X164189321Y-131999843D01*
X164189323Y-131999846D01*
X164279353Y-132089876D01*
X164279356Y-132089878D01*
X164388963Y-132143461D01*
X164393739Y-132145796D01*
X164467894Y-132156600D01*
X164467900Y-132156600D01*
X166240300Y-132156600D01*
X166240306Y-132156600D01*
X166314461Y-132145796D01*
X166371653Y-132117836D01*
X166428843Y-132089878D01*
X166428846Y-132089876D01*
X166518876Y-131999846D01*
X166518878Y-131999843D01*
X166556355Y-131923182D01*
X166574796Y-131885461D01*
X166585600Y-131811306D01*
X166585600Y-130038894D01*
X166574796Y-129964739D01*
X166565022Y-129944746D01*
X166518878Y-129850356D01*
X166518876Y-129850353D01*
X166428846Y-129760323D01*
X166428843Y-129760321D01*
X166314464Y-129704405D01*
X166314462Y-129704404D01*
X166314461Y-129704404D01*
X166240306Y-129693600D01*
X166021318Y-129693600D01*
X165954279Y-129673915D01*
X165908524Y-129621111D01*
X165898580Y-129551953D01*
X165927605Y-129488397D01*
X165968912Y-129457219D01*
X165972196Y-129455687D01*
X165972197Y-129455685D01*
X165972202Y-129455684D01*
X166148717Y-129332087D01*
X166301087Y-129179717D01*
X166424684Y-129003202D01*
X166515752Y-128807907D01*
X166571523Y-128599765D01*
X166590304Y-128385100D01*
X166571523Y-128170435D01*
X166515752Y-127962293D01*
X166424684Y-127766998D01*
X166390013Y-127717483D01*
X166301090Y-127590487D01*
X166301085Y-127590481D01*
X166148718Y-127438114D01*
X166148712Y-127438109D01*
X165972203Y-127314516D01*
X165972201Y-127314515D01*
X165785558Y-127227482D01*
X165733119Y-127181310D01*
X165713967Y-127114116D01*
X165734183Y-127047235D01*
X165785557Y-127002719D01*
X165972202Y-126915685D01*
X166148717Y-126792088D01*
X166301087Y-126639718D01*
X166424684Y-126463203D01*
X166515752Y-126267908D01*
X166571523Y-126059766D01*
X166590304Y-125845101D01*
X166571523Y-125630436D01*
X166515752Y-125422294D01*
X166424684Y-125226999D01*
X166390015Y-125177487D01*
X166301090Y-125050488D01*
X166301085Y-125050482D01*
X166148718Y-124898115D01*
X166148712Y-124898110D01*
X165972203Y-124774517D01*
X165972201Y-124774516D01*
X165925753Y-124752857D01*
X165873314Y-124706684D01*
X165854162Y-124639491D01*
X165874378Y-124572610D01*
X165925754Y-124528093D01*
X166031675Y-124478701D01*
X166031677Y-124478700D01*
X166225182Y-124343205D01*
X166392205Y-124176182D01*
X166527700Y-123982678D01*
X166627529Y-123768592D01*
X166627532Y-123768586D01*
X166684736Y-123555100D01*
X165787112Y-123555100D01*
X165820025Y-123498093D01*
X165854100Y-123370926D01*
X165854100Y-123239274D01*
X165820025Y-123112107D01*
X165787112Y-123055100D01*
X166684736Y-123055100D01*
X166684735Y-123055099D01*
X166627532Y-122841613D01*
X166627529Y-122841607D01*
X166527700Y-122627522D01*
X166527699Y-122627520D01*
X166392213Y-122434026D01*
X166392208Y-122434020D01*
X166225182Y-122266994D01*
X166031678Y-122131499D01*
X165817592Y-122031670D01*
X165817586Y-122031667D01*
X165604100Y-121974464D01*
X165604100Y-122872088D01*
X165547093Y-122839175D01*
X165419926Y-122805100D01*
X165288274Y-122805100D01*
X165161107Y-122839175D01*
X165104100Y-122872088D01*
X165104100Y-121974464D01*
X165104099Y-121974464D01*
X164890613Y-122031667D01*
X164890607Y-122031670D01*
X164676522Y-122131499D01*
X164676520Y-122131500D01*
X164483026Y-122266986D01*
X164483020Y-122266991D01*
X164315991Y-122434020D01*
X164315986Y-122434026D01*
X164180500Y-122627520D01*
X164180499Y-122627522D01*
X164080670Y-122841607D01*
X164080667Y-122841613D01*
X164023464Y-123055099D01*
X150776194Y-123055099D01*
X150798523Y-122971766D01*
X150817304Y-122757101D01*
X150798523Y-122542436D01*
X150742752Y-122334294D01*
X150651684Y-122138999D01*
X150646433Y-122131500D01*
X150528090Y-121962488D01*
X150528085Y-121962482D01*
X150375718Y-121810115D01*
X150375712Y-121810110D01*
X150199203Y-121686517D01*
X150199201Y-121686516D01*
X150056243Y-121619854D01*
X150003907Y-121595449D01*
X150003903Y-121595448D01*
X150003899Y-121595446D01*
X149795770Y-121539679D01*
X149795760Y-121539677D01*
X149581101Y-121520897D01*
X149581099Y-121520897D01*
X149366439Y-121539677D01*
X149366429Y-121539679D01*
X149169398Y-121592473D01*
X149099548Y-121590810D01*
X149049624Y-121560379D01*
X147674819Y-120185574D01*
X147641334Y-120124251D01*
X147638500Y-120097893D01*
X147638500Y-117961100D01*
X149402595Y-117961100D01*
X149422543Y-118125389D01*
X149422544Y-118125394D01*
X149481230Y-118280135D01*
X149481230Y-118280136D01*
X149532843Y-118354909D01*
X149575244Y-118416337D01*
X149575246Y-118416339D01*
X149575248Y-118416341D01*
X149699119Y-118526082D01*
X149699121Y-118526083D01*
X149845662Y-118602993D01*
X150006351Y-118642600D01*
X150006352Y-118642600D01*
X150171848Y-118642600D01*
X150171849Y-118642600D01*
X150332538Y-118602993D01*
X150332538Y-118602992D01*
X150339820Y-118601198D01*
X150340131Y-118602462D01*
X150372119Y-118596600D01*
X155104692Y-118596600D01*
X155104693Y-118596599D01*
X155227469Y-118572178D01*
X155343122Y-118524273D01*
X155447208Y-118454725D01*
X156951399Y-116950532D01*
X156981448Y-116928421D01*
X157083079Y-116875083D01*
X157206956Y-116765337D01*
X157300970Y-116629135D01*
X157308743Y-116608637D01*
X157337002Y-116564929D01*
X158202725Y-115699208D01*
X158272273Y-115595122D01*
X158320178Y-115479469D01*
X158344600Y-115356691D01*
X158344600Y-115231509D01*
X158344600Y-112781500D01*
X161629238Y-112781500D01*
X162432112Y-112781500D01*
X162414895Y-112791440D01*
X162359040Y-112847295D01*
X162319544Y-112915704D01*
X162299100Y-112992004D01*
X162299100Y-113070996D01*
X162319544Y-113147296D01*
X162359040Y-113215705D01*
X162414895Y-113271560D01*
X162432112Y-113281500D01*
X161629238Y-113281500D01*
X161637530Y-113323190D01*
X161637530Y-113323192D01*
X161712907Y-113505171D01*
X161712914Y-113505184D01*
X161822348Y-113668962D01*
X161822351Y-113668966D01*
X161961633Y-113808248D01*
X161961637Y-113808251D01*
X162125415Y-113917685D01*
X162125428Y-113917692D01*
X162307406Y-113993069D01*
X162307418Y-113993072D01*
X162500604Y-114031499D01*
X162500608Y-114031500D01*
X162899100Y-114031500D01*
X162899100Y-113331500D01*
X163399100Y-113331500D01*
X163399100Y-114031500D01*
X163797592Y-114031500D01*
X163797595Y-114031499D01*
X163990781Y-113993072D01*
X163990793Y-113993069D01*
X164172771Y-113917692D01*
X164172784Y-113917685D01*
X164336562Y-113808251D01*
X164336566Y-113808248D01*
X164475848Y-113668966D01*
X164475851Y-113668962D01*
X164585285Y-113505184D01*
X164585292Y-113505171D01*
X164660669Y-113323192D01*
X164660669Y-113323190D01*
X164668962Y-113281500D01*
X163866088Y-113281500D01*
X163883305Y-113271560D01*
X163939160Y-113215705D01*
X163978656Y-113147296D01*
X163999100Y-113070996D01*
X163999100Y-112992004D01*
X163978656Y-112915704D01*
X163939160Y-112847295D01*
X163883305Y-112791440D01*
X163866088Y-112781500D01*
X164668962Y-112781500D01*
X165959238Y-112781500D01*
X166762112Y-112781500D01*
X166744895Y-112791440D01*
X166689040Y-112847295D01*
X166649544Y-112915704D01*
X166629100Y-112992004D01*
X166629100Y-113070996D01*
X166649544Y-113147296D01*
X166689040Y-113215705D01*
X166744895Y-113271560D01*
X166762112Y-113281500D01*
X165959238Y-113281500D01*
X165967530Y-113323190D01*
X165967530Y-113323192D01*
X166042907Y-113505171D01*
X166042914Y-113505184D01*
X166152348Y-113668962D01*
X166152351Y-113668966D01*
X166291633Y-113808248D01*
X166291637Y-113808251D01*
X166455415Y-113917685D01*
X166455428Y-113917692D01*
X166637406Y-113993069D01*
X166637418Y-113993072D01*
X166830604Y-114031499D01*
X166830608Y-114031500D01*
X167079100Y-114031500D01*
X167079100Y-113331500D01*
X167579100Y-113331500D01*
X167579100Y-114031500D01*
X167827592Y-114031500D01*
X167827595Y-114031499D01*
X168020781Y-113993072D01*
X168020793Y-113993069D01*
X168202771Y-113917692D01*
X168202784Y-113917685D01*
X168366562Y-113808251D01*
X168366566Y-113808248D01*
X168505848Y-113668966D01*
X168505851Y-113668962D01*
X168615285Y-113505184D01*
X168615292Y-113505171D01*
X168690669Y-113323192D01*
X168690669Y-113323190D01*
X168698962Y-113281500D01*
X167896088Y-113281500D01*
X167913305Y-113271560D01*
X167969160Y-113215705D01*
X168008656Y-113147296D01*
X168029100Y-113070996D01*
X168029100Y-112992004D01*
X168008656Y-112915704D01*
X167969160Y-112847295D01*
X167913305Y-112791440D01*
X167896088Y-112781500D01*
X168698962Y-112781500D01*
X168690669Y-112739809D01*
X168690669Y-112739807D01*
X168615292Y-112557828D01*
X168615285Y-112557815D01*
X168505851Y-112394037D01*
X168505848Y-112394033D01*
X168366566Y-112254751D01*
X168366562Y-112254748D01*
X168202784Y-112145314D01*
X168202771Y-112145307D01*
X168020793Y-112069930D01*
X168020781Y-112069927D01*
X167827595Y-112031500D01*
X167579100Y-112031500D01*
X167579100Y-112731500D01*
X167079100Y-112731500D01*
X167079100Y-112031500D01*
X166830604Y-112031500D01*
X166637418Y-112069927D01*
X166637406Y-112069930D01*
X166455428Y-112145307D01*
X166455415Y-112145314D01*
X166291637Y-112254748D01*
X166291633Y-112254751D01*
X166152351Y-112394033D01*
X166152348Y-112394037D01*
X166042914Y-112557815D01*
X166042907Y-112557828D01*
X165967530Y-112739807D01*
X165967530Y-112739809D01*
X165959238Y-112781500D01*
X164668962Y-112781500D01*
X164660669Y-112739809D01*
X164660669Y-112739807D01*
X164585292Y-112557828D01*
X164585285Y-112557815D01*
X164475851Y-112394037D01*
X164475848Y-112394033D01*
X164336566Y-112254751D01*
X164336562Y-112254748D01*
X164172784Y-112145314D01*
X164172774Y-112145309D01*
X164163257Y-112141367D01*
X164108854Y-112097526D01*
X164086789Y-112031231D01*
X164104069Y-111963532D01*
X164107748Y-111958097D01*
X164109612Y-111954867D01*
X164109615Y-111954865D01*
X164185381Y-111823635D01*
X164224600Y-111677266D01*
X164224600Y-111525734D01*
X164185381Y-111379365D01*
X164109615Y-111248135D01*
X164002465Y-111140985D01*
X163934993Y-111102030D01*
X163871236Y-111065219D01*
X163769905Y-111038068D01*
X163724866Y-111026000D01*
X163573334Y-111026000D01*
X163426963Y-111065219D01*
X163295735Y-111140985D01*
X163295732Y-111140987D01*
X163188587Y-111248132D01*
X163188585Y-111248135D01*
X163112819Y-111379363D01*
X163090474Y-111462757D01*
X163073600Y-111525734D01*
X163073600Y-111677266D01*
X163083655Y-111714791D01*
X163112819Y-111823636D01*
X163136759Y-111865100D01*
X163188585Y-111954865D01*
X163295735Y-112062015D01*
X163337100Y-112085897D01*
X163385316Y-112136464D01*
X163399100Y-112193284D01*
X163399100Y-112731500D01*
X162899100Y-112731500D01*
X162899100Y-112031500D01*
X162500604Y-112031500D01*
X162307418Y-112069927D01*
X162307406Y-112069930D01*
X162125428Y-112145307D01*
X162125415Y-112145314D01*
X161961637Y-112254748D01*
X161961633Y-112254751D01*
X161822351Y-112394033D01*
X161822348Y-112394037D01*
X161712914Y-112557815D01*
X161712907Y-112557828D01*
X161637530Y-112739807D01*
X161637530Y-112739809D01*
X161629238Y-112781500D01*
X158344600Y-112781500D01*
X158344600Y-112687694D01*
X158364285Y-112620655D01*
X158380915Y-112600017D01*
X158983399Y-111997532D01*
X159013448Y-111975421D01*
X159115079Y-111922083D01*
X159238956Y-111812337D01*
X159332970Y-111676135D01*
X159391656Y-111521391D01*
X159411605Y-111357100D01*
X159391656Y-111192809D01*
X159391655Y-111192807D01*
X159391655Y-111192805D01*
X159357228Y-111102030D01*
X159332970Y-111038065D01*
X159303319Y-110995109D01*
X159285963Y-110969964D01*
X159238956Y-110901863D01*
X159238953Y-110901860D01*
X159238951Y-110901858D01*
X159115080Y-110792117D01*
X158968536Y-110715206D01*
X158860116Y-110688483D01*
X158807849Y-110675600D01*
X158642351Y-110675600D01*
X158602745Y-110685362D01*
X158481663Y-110715206D01*
X158335119Y-110792117D01*
X158211248Y-110901858D01*
X158211245Y-110901861D01*
X158117230Y-111038065D01*
X158117227Y-111038068D01*
X158109454Y-111058564D01*
X158081195Y-111102270D01*
X157482662Y-111700805D01*
X157303992Y-111879475D01*
X157261387Y-111922080D01*
X157215473Y-111967993D01*
X157145930Y-112072071D01*
X157145923Y-112072084D01*
X157098023Y-112187726D01*
X157098020Y-112187738D01*
X157073600Y-112310504D01*
X157073600Y-114979504D01*
X157053915Y-115046543D01*
X157037281Y-115067185D01*
X156434802Y-115669663D01*
X156404748Y-115691778D01*
X156303119Y-115745117D01*
X156179248Y-115854858D01*
X156179245Y-115854861D01*
X156085228Y-115991066D01*
X156085227Y-115991068D01*
X156077454Y-116011564D01*
X156049195Y-116055270D01*
X154815186Y-117289281D01*
X154753863Y-117322766D01*
X154727505Y-117325600D01*
X150372119Y-117325600D01*
X150340131Y-117319737D01*
X150339820Y-117321002D01*
X150332538Y-117319207D01*
X150171849Y-117279600D01*
X150006351Y-117279600D01*
X149975923Y-117287100D01*
X149845663Y-117319206D01*
X149699119Y-117396117D01*
X149575248Y-117505858D01*
X149575242Y-117505865D01*
X149481230Y-117642063D01*
X149481230Y-117642064D01*
X149422544Y-117796805D01*
X149422543Y-117796810D01*
X149402595Y-117961100D01*
X147638500Y-117961100D01*
X147638500Y-115486172D01*
X147638500Y-115486171D01*
X147637658Y-115483030D01*
X147606443Y-115366532D01*
X147563248Y-115291717D01*
X147563248Y-115291715D01*
X147544518Y-115259274D01*
X147544512Y-115259266D01*
X146617800Y-114332554D01*
X146584315Y-114271231D01*
X146582385Y-114259820D01*
X146571965Y-114174008D01*
X146564656Y-114113809D01*
X146564655Y-114113807D01*
X146564655Y-114113805D01*
X146515280Y-113983615D01*
X146505970Y-113959065D01*
X146505967Y-113959061D01*
X146428288Y-113846524D01*
X146411956Y-113822863D01*
X146411953Y-113822860D01*
X146411951Y-113822858D01*
X146288080Y-113713117D01*
X146141536Y-113636206D01*
X146016957Y-113605500D01*
X145980849Y-113596600D01*
X145815351Y-113596600D01*
X145779243Y-113605500D01*
X145654660Y-113636207D01*
X145644802Y-113641381D01*
X145576293Y-113655102D01*
X145511241Y-113629606D01*
X145470301Y-113572988D01*
X145466469Y-113503223D01*
X145485134Y-113461139D01*
X145489970Y-113454135D01*
X145548656Y-113299391D01*
X145568394Y-113136833D01*
X145596016Y-113072657D01*
X145653950Y-113033600D01*
X145721165Y-113031385D01*
X145815348Y-113054599D01*
X145815349Y-113054600D01*
X145815351Y-113054600D01*
X145980848Y-113054600D01*
X145980849Y-113054600D01*
X146141538Y-113014993D01*
X146288079Y-112938083D01*
X146411956Y-112828337D01*
X146505970Y-112692135D01*
X146564656Y-112537391D01*
X146584605Y-112373100D01*
X146564656Y-112208809D01*
X146564655Y-112208807D01*
X146564655Y-112208805D01*
X146544919Y-112156766D01*
X146537638Y-112137570D01*
X146532272Y-112067908D01*
X146565419Y-112006402D01*
X146626557Y-111972580D01*
X146653581Y-111969600D01*
X147536277Y-111969600D01*
X147603316Y-111989285D01*
X147649071Y-112042089D01*
X147652219Y-112049629D01*
X147703230Y-112184135D01*
X147703230Y-112184136D01*
X147747395Y-112248119D01*
X147797244Y-112320337D01*
X147797246Y-112320339D01*
X147797248Y-112320341D01*
X147921119Y-112430082D01*
X147921121Y-112430083D01*
X148067662Y-112506993D01*
X148228351Y-112546600D01*
X148228352Y-112546600D01*
X148393848Y-112546600D01*
X148393849Y-112546600D01*
X148554538Y-112506993D01*
X148701079Y-112430083D01*
X148824956Y-112320337D01*
X148918970Y-112184135D01*
X148977656Y-112029391D01*
X148997605Y-111865100D01*
X148977656Y-111700809D01*
X148977655Y-111700807D01*
X148977655Y-111700805D01*
X148939028Y-111598955D01*
X148918970Y-111546065D01*
X148904936Y-111525734D01*
X148824957Y-111409865D01*
X148824956Y-111409863D01*
X148824953Y-111409860D01*
X148824951Y-111409858D01*
X148701080Y-111300117D01*
X148554536Y-111223206D01*
X148446410Y-111196555D01*
X148393849Y-111183600D01*
X148393848Y-111183600D01*
X148346208Y-111183600D01*
X148279169Y-111163915D01*
X148258527Y-111147281D01*
X148234034Y-111122788D01*
X148234028Y-111122783D01*
X148126771Y-111060858D01*
X148126772Y-111060858D01*
X148041707Y-111038065D01*
X148041707Y-111038064D01*
X148007131Y-111028800D01*
X148007130Y-111028800D01*
X148007129Y-111028800D01*
X143531930Y-111028800D01*
X143408070Y-111028800D01*
X143408068Y-111028800D01*
X143373492Y-111038064D01*
X143373493Y-111038065D01*
X143288428Y-111060858D01*
X143181171Y-111122783D01*
X143181165Y-111122788D01*
X142084334Y-112219618D01*
X142023011Y-112253103D01*
X141953319Y-112248119D01*
X141897386Y-112206247D01*
X141873557Y-112146882D01*
X141872887Y-112141367D01*
X141865656Y-112081809D01*
X141865655Y-112081807D01*
X141865655Y-112081805D01*
X141818361Y-111957101D01*
X141806970Y-111927065D01*
X141773867Y-111879107D01*
X141751985Y-111812755D01*
X141769450Y-111745103D01*
X141797830Y-111714791D01*
X141796844Y-111713678D01*
X141926330Y-111598962D01*
X141926335Y-111598958D01*
X142020349Y-111462756D01*
X142079035Y-111308012D01*
X142098984Y-111143721D01*
X142079035Y-110979430D01*
X142079034Y-110979427D01*
X142078902Y-110978340D01*
X142090362Y-110909417D01*
X142137266Y-110857630D01*
X142172319Y-110842997D01*
X142232323Y-110828208D01*
X142378864Y-110751298D01*
X142502741Y-110641552D01*
X142596755Y-110505350D01*
X142655441Y-110350606D01*
X142675390Y-110186315D01*
X142655441Y-110022024D01*
X142655440Y-110022022D01*
X142655440Y-110022020D01*
X142608457Y-109898136D01*
X142596755Y-109867280D01*
X142577861Y-109839908D01*
X142530391Y-109771136D01*
X142502741Y-109731078D01*
X142502738Y-109731075D01*
X142502736Y-109731073D01*
X142378864Y-109621332D01*
X142378862Y-109621330D01*
X142338750Y-109600278D01*
X142288538Y-109551694D01*
X142272563Y-109483675D01*
X142294326Y-109420042D01*
X142314970Y-109390135D01*
X142373656Y-109235391D01*
X142393605Y-109071100D01*
X142373656Y-108906809D01*
X142357640Y-108864580D01*
X142352274Y-108794919D01*
X142385421Y-108733412D01*
X142443905Y-108700214D01*
X142598811Y-108662033D01*
X142745352Y-108585123D01*
X142869229Y-108475377D01*
X142963243Y-108339175D01*
X143021929Y-108184431D01*
X143041878Y-108020140D01*
X143021929Y-107855849D01*
X143021928Y-107855847D01*
X143021928Y-107855845D01*
X142992547Y-107778375D01*
X142963243Y-107701105D01*
X142869229Y-107564903D01*
X142846960Y-107545174D01*
X142809835Y-107485984D01*
X142810603Y-107416119D01*
X142849022Y-107357760D01*
X142858756Y-107350305D01*
X142859068Y-107350088D01*
X142859079Y-107350083D01*
X142982956Y-107240337D01*
X143076970Y-107104135D01*
X143135656Y-106949391D01*
X143155605Y-106785100D01*
X143135656Y-106620809D01*
X143135655Y-106620807D01*
X143135655Y-106620805D01*
X143108988Y-106550491D01*
X143076970Y-106466065D01*
X143058495Y-106439300D01*
X143010075Y-106369151D01*
X142982956Y-106329863D01*
X142982953Y-106329860D01*
X142982951Y-106329858D01*
X142859080Y-106220117D01*
X142725672Y-106150100D01*
X146862595Y-106150100D01*
X146882543Y-106314389D01*
X146882544Y-106314394D01*
X146941230Y-106469135D01*
X146941230Y-106469136D01*
X147018445Y-106580999D01*
X147035244Y-106605337D01*
X147035246Y-106605339D01*
X147035248Y-106605341D01*
X147159119Y-106715082D01*
X147159121Y-106715083D01*
X147305662Y-106791993D01*
X147414488Y-106818816D01*
X147474868Y-106853972D01*
X147506656Y-106916192D01*
X147507908Y-106954159D01*
X147497595Y-107039099D01*
X147517543Y-107203389D01*
X147517544Y-107203394D01*
X147576230Y-107358135D01*
X147576230Y-107358136D01*
X147643200Y-107455157D01*
X147670244Y-107494337D01*
X147670246Y-107494339D01*
X147670248Y-107494341D01*
X147768387Y-107581285D01*
X147805514Y-107640474D01*
X147804746Y-107710340D01*
X147768387Y-107766915D01*
X147670248Y-107853858D01*
X147670242Y-107853865D01*
X147576230Y-107990063D01*
X147576230Y-107990064D01*
X147517544Y-108144805D01*
X147517543Y-108144810D01*
X147497595Y-108309100D01*
X147517543Y-108473389D01*
X147517544Y-108473394D01*
X147576230Y-108628135D01*
X147576230Y-108628136D01*
X147599628Y-108662033D01*
X147670244Y-108764337D01*
X147670246Y-108764339D01*
X147670248Y-108764341D01*
X147711668Y-108801036D01*
X147748795Y-108860225D01*
X147748027Y-108930091D01*
X147709609Y-108988450D01*
X147687070Y-109003646D01*
X147667120Y-109014117D01*
X147543248Y-109123858D01*
X147543242Y-109123865D01*
X147449230Y-109260063D01*
X147449230Y-109260064D01*
X147390544Y-109414805D01*
X147390543Y-109414810D01*
X147370595Y-109579100D01*
X147390543Y-109743389D01*
X147390544Y-109743394D01*
X147449230Y-109898135D01*
X147449230Y-109898136D01*
X147515536Y-109994195D01*
X147543244Y-110034337D01*
X147543246Y-110034339D01*
X147543248Y-110034341D01*
X147667119Y-110144082D01*
X147667121Y-110144083D01*
X147813662Y-110220993D01*
X147974351Y-110260600D01*
X147974352Y-110260600D01*
X148139848Y-110260600D01*
X148139849Y-110260600D01*
X148300538Y-110220993D01*
X148447079Y-110144083D01*
X148450548Y-110141009D01*
X148513780Y-110111289D01*
X148532775Y-110109825D01*
X151682969Y-110109825D01*
X151682971Y-110109825D01*
X151817952Y-110073657D01*
X151889103Y-110032577D01*
X151957003Y-110016105D01*
X152023030Y-110038958D01*
X152066221Y-110093879D01*
X152074199Y-110125018D01*
X152089543Y-110251388D01*
X152089544Y-110251394D01*
X152148230Y-110406135D01*
X152148230Y-110406136D01*
X152216714Y-110505351D01*
X152242244Y-110542337D01*
X152242246Y-110542339D01*
X152242248Y-110542341D01*
X152366119Y-110652082D01*
X152366121Y-110652083D01*
X152512662Y-110728993D01*
X152673351Y-110768600D01*
X152673352Y-110768600D01*
X152838848Y-110768600D01*
X152838849Y-110768600D01*
X152999538Y-110728993D01*
X152999538Y-110728992D01*
X153006820Y-110727198D01*
X153007131Y-110728462D01*
X153039119Y-110722600D01*
X154850692Y-110722600D01*
X154850693Y-110722599D01*
X154973469Y-110698178D01*
X155089122Y-110650273D01*
X155193208Y-110580725D01*
X155650014Y-110123919D01*
X155711337Y-110090434D01*
X155737695Y-110087600D01*
X156029081Y-110087600D01*
X156061068Y-110093462D01*
X156061380Y-110092198D01*
X156068661Y-110093992D01*
X156068662Y-110093993D01*
X156229351Y-110133600D01*
X156229352Y-110133600D01*
X156394848Y-110133600D01*
X156394849Y-110133600D01*
X156555538Y-110093993D01*
X156702079Y-110017083D01*
X156825956Y-109907337D01*
X156919970Y-109771135D01*
X156972824Y-109631770D01*
X156978655Y-109616394D01*
X156978656Y-109616389D01*
X156998605Y-109452100D01*
X156978656Y-109287809D01*
X156978655Y-109287807D01*
X156978655Y-109287805D01*
X156945505Y-109200397D01*
X156919970Y-109133065D01*
X156916912Y-109128635D01*
X156858869Y-109044546D01*
X156825956Y-108996863D01*
X156825953Y-108996860D01*
X156825951Y-108996858D01*
X156702080Y-108887117D01*
X156555536Y-108810206D01*
X156447410Y-108783555D01*
X156394849Y-108770600D01*
X156229351Y-108770600D01*
X156068662Y-108810207D01*
X156061380Y-108812002D01*
X156061068Y-108810737D01*
X156029081Y-108816600D01*
X155360504Y-108816600D01*
X155237738Y-108841020D01*
X155237726Y-108841023D01*
X155122084Y-108888923D01*
X155122072Y-108888930D01*
X155054201Y-108934281D01*
X155054200Y-108934282D01*
X155017989Y-108958476D01*
X155017988Y-108958477D01*
X154561186Y-109415281D01*
X154499863Y-109448766D01*
X154473505Y-109451600D01*
X153039119Y-109451600D01*
X153007131Y-109445737D01*
X153006820Y-109447002D01*
X152999538Y-109445207D01*
X152838849Y-109405600D01*
X152836521Y-109405600D01*
X152834878Y-109405117D01*
X152831405Y-109404696D01*
X152831475Y-109404118D01*
X152769482Y-109385915D01*
X152723727Y-109333111D01*
X152713783Y-109263953D01*
X152742808Y-109200397D01*
X152748840Y-109193919D01*
X152812615Y-109130144D01*
X152873938Y-109096659D01*
X152900296Y-109093825D01*
X154349969Y-109093825D01*
X154349971Y-109093825D01*
X154484952Y-109057657D01*
X154605973Y-108987786D01*
X156750510Y-106843249D01*
X157772100Y-106843249D01*
X157772100Y-106980950D01*
X157798960Y-107115983D01*
X157798963Y-107115995D01*
X157851651Y-107243196D01*
X157851652Y-107243198D01*
X157928151Y-107357686D01*
X157928154Y-107357690D01*
X160275781Y-109705316D01*
X160309266Y-109766639D01*
X160312100Y-109792997D01*
X160312100Y-110917949D01*
X160338960Y-111052983D01*
X160338963Y-111052995D01*
X160391651Y-111180196D01*
X160391652Y-111180198D01*
X160468150Y-111294685D01*
X160468153Y-111294689D01*
X160565510Y-111392046D01*
X160565514Y-111392049D01*
X160679999Y-111468546D01*
X160680000Y-111468546D01*
X160680001Y-111468547D01*
X160680003Y-111468548D01*
X160802513Y-111519293D01*
X160807209Y-111521238D01*
X160932014Y-111546063D01*
X160942250Y-111548099D01*
X160942254Y-111548100D01*
X160942255Y-111548100D01*
X161079946Y-111548100D01*
X161079947Y-111548099D01*
X161214991Y-111521238D01*
X161342201Y-111468546D01*
X161456686Y-111392049D01*
X161554049Y-111294686D01*
X161630546Y-111180201D01*
X161683238Y-111052991D01*
X161710100Y-110917945D01*
X161710100Y-109383255D01*
X161683238Y-109248209D01*
X161677928Y-109235389D01*
X161630548Y-109121003D01*
X161630547Y-109121001D01*
X161616605Y-109100136D01*
X161554049Y-109006514D01*
X161456686Y-108909151D01*
X160188009Y-107640474D01*
X158916690Y-106369154D01*
X158916686Y-106369151D01*
X158802198Y-106292652D01*
X158802196Y-106292651D01*
X158674995Y-106239963D01*
X158674983Y-106239960D01*
X158539950Y-106213100D01*
X158539946Y-106213100D01*
X158402254Y-106213100D01*
X158402249Y-106213100D01*
X158267216Y-106239960D01*
X158267204Y-106239963D01*
X158140003Y-106292651D01*
X158140001Y-106292652D01*
X158025513Y-106369151D01*
X158025509Y-106369154D01*
X157928154Y-106466509D01*
X157928151Y-106466513D01*
X157851652Y-106581001D01*
X157851651Y-106581003D01*
X157798963Y-106708204D01*
X157798960Y-106708216D01*
X157772100Y-106843249D01*
X156750510Y-106843249D01*
X159452258Y-104141500D01*
X161629238Y-104141500D01*
X162432112Y-104141500D01*
X162414895Y-104151440D01*
X162359040Y-104207295D01*
X162319544Y-104275704D01*
X162299100Y-104352004D01*
X162299100Y-104430996D01*
X162319544Y-104507296D01*
X162359040Y-104575705D01*
X162414895Y-104631560D01*
X162432112Y-104641500D01*
X161629238Y-104641500D01*
X161637530Y-104683190D01*
X161637530Y-104683192D01*
X161712907Y-104865171D01*
X161712914Y-104865184D01*
X161822348Y-105028962D01*
X161822351Y-105028966D01*
X161961633Y-105168248D01*
X161961637Y-105168251D01*
X162125415Y-105277685D01*
X162125428Y-105277692D01*
X162307406Y-105353069D01*
X162307418Y-105353072D01*
X162500604Y-105391499D01*
X162500608Y-105391500D01*
X162899100Y-105391500D01*
X162899100Y-104691500D01*
X163399100Y-104691500D01*
X163399100Y-105229715D01*
X163379415Y-105296754D01*
X163337102Y-105337101D01*
X163295738Y-105360983D01*
X163295732Y-105360987D01*
X163188587Y-105468132D01*
X163188585Y-105468135D01*
X163112819Y-105599363D01*
X163091036Y-105680661D01*
X163073600Y-105745734D01*
X163073600Y-105897266D01*
X163086486Y-105945359D01*
X163112819Y-106043636D01*
X163126590Y-106067487D01*
X163188585Y-106174865D01*
X163295735Y-106282015D01*
X163426965Y-106357781D01*
X163573334Y-106397000D01*
X163573336Y-106397000D01*
X163724864Y-106397000D01*
X163724866Y-106397000D01*
X163871235Y-106357781D01*
X164002465Y-106282015D01*
X164109615Y-106174865D01*
X164185381Y-106043635D01*
X164224600Y-105897266D01*
X164224600Y-105745734D01*
X164185381Y-105599365D01*
X164109615Y-105468135D01*
X164109613Y-105468133D01*
X164105551Y-105461097D01*
X164107754Y-105459825D01*
X164087141Y-105406522D01*
X164101173Y-105338076D01*
X164149982Y-105288082D01*
X164163263Y-105281629D01*
X164172782Y-105277686D01*
X164172784Y-105277685D01*
X164336562Y-105168251D01*
X164336566Y-105168248D01*
X164475848Y-105028966D01*
X164475851Y-105028962D01*
X164585285Y-104865184D01*
X164585292Y-104865171D01*
X164660669Y-104683192D01*
X164660669Y-104683190D01*
X164668962Y-104641500D01*
X163866088Y-104641500D01*
X163883305Y-104631560D01*
X163939160Y-104575705D01*
X163978656Y-104507296D01*
X163999100Y-104430996D01*
X163999100Y-104352004D01*
X163978656Y-104275704D01*
X163939160Y-104207295D01*
X163883305Y-104151440D01*
X163866088Y-104141500D01*
X164668962Y-104141500D01*
X165959238Y-104141500D01*
X166762112Y-104141500D01*
X166744895Y-104151440D01*
X166689040Y-104207295D01*
X166649544Y-104275704D01*
X166629100Y-104352004D01*
X166629100Y-104430996D01*
X166649544Y-104507296D01*
X166689040Y-104575705D01*
X166744895Y-104631560D01*
X166762112Y-104641500D01*
X165959238Y-104641500D01*
X165967530Y-104683190D01*
X165967530Y-104683192D01*
X166042907Y-104865171D01*
X166042914Y-104865184D01*
X166152348Y-105028962D01*
X166152351Y-105028966D01*
X166291633Y-105168248D01*
X166291637Y-105168251D01*
X166455415Y-105277685D01*
X166455428Y-105277692D01*
X166637406Y-105353069D01*
X166637418Y-105353072D01*
X166830604Y-105391499D01*
X166830608Y-105391500D01*
X167079100Y-105391500D01*
X167079100Y-104691500D01*
X167579100Y-104691500D01*
X167579100Y-105391500D01*
X167827592Y-105391500D01*
X167827595Y-105391499D01*
X168020781Y-105353072D01*
X168020793Y-105353069D01*
X168202771Y-105277692D01*
X168202784Y-105277685D01*
X168366562Y-105168251D01*
X168366566Y-105168248D01*
X168505848Y-105028966D01*
X168505851Y-105028962D01*
X168615285Y-104865184D01*
X168615292Y-104865171D01*
X168690669Y-104683192D01*
X168690669Y-104683190D01*
X168698962Y-104641500D01*
X167896088Y-104641500D01*
X167913305Y-104631560D01*
X167969160Y-104575705D01*
X168008656Y-104507296D01*
X168029100Y-104430996D01*
X168029100Y-104352004D01*
X168008656Y-104275704D01*
X167969160Y-104207295D01*
X167913305Y-104151440D01*
X167896088Y-104141500D01*
X168698962Y-104141500D01*
X168690669Y-104099809D01*
X168690669Y-104099807D01*
X168615292Y-103917828D01*
X168615285Y-103917815D01*
X168505851Y-103754037D01*
X168505848Y-103754033D01*
X168366566Y-103614751D01*
X168366562Y-103614748D01*
X168202784Y-103505314D01*
X168202771Y-103505307D01*
X168020793Y-103429930D01*
X168020781Y-103429927D01*
X167827595Y-103391500D01*
X167579100Y-103391500D01*
X167579100Y-104091500D01*
X167079100Y-104091500D01*
X167079100Y-103391500D01*
X166830604Y-103391500D01*
X166637418Y-103429927D01*
X166637406Y-103429930D01*
X166455428Y-103505307D01*
X166455415Y-103505314D01*
X166291637Y-103614748D01*
X166291633Y-103614751D01*
X166152351Y-103754033D01*
X166152348Y-103754037D01*
X166042914Y-103917815D01*
X166042907Y-103917828D01*
X165967530Y-104099807D01*
X165967530Y-104099809D01*
X165959238Y-104141500D01*
X164668962Y-104141500D01*
X164660669Y-104099809D01*
X164660669Y-104099807D01*
X164585292Y-103917828D01*
X164585285Y-103917815D01*
X164475851Y-103754037D01*
X164475848Y-103754033D01*
X164336566Y-103614751D01*
X164336562Y-103614748D01*
X164172784Y-103505314D01*
X164172771Y-103505307D01*
X163990793Y-103429930D01*
X163990781Y-103429927D01*
X163797595Y-103391500D01*
X163399100Y-103391500D01*
X163399100Y-104091500D01*
X162899100Y-104091500D01*
X162899100Y-103391500D01*
X162500604Y-103391500D01*
X162307418Y-103429927D01*
X162307406Y-103429930D01*
X162125428Y-103505307D01*
X162125415Y-103505314D01*
X161961637Y-103614748D01*
X161961633Y-103614751D01*
X161822351Y-103754033D01*
X161822348Y-103754037D01*
X161712914Y-103917815D01*
X161712907Y-103917828D01*
X161637530Y-104099807D01*
X161637530Y-104099809D01*
X161629238Y-104141500D01*
X159452258Y-104141500D01*
X163758919Y-99834838D01*
X163820242Y-99801354D01*
X163889934Y-99806338D01*
X163945867Y-99848210D01*
X163970284Y-99913674D01*
X163970600Y-99922520D01*
X163970600Y-101194306D01*
X163981404Y-101268461D01*
X163981404Y-101268462D01*
X163981405Y-101268464D01*
X164037321Y-101382843D01*
X164037323Y-101382846D01*
X164127353Y-101472876D01*
X164127356Y-101472878D01*
X164236963Y-101526461D01*
X164241739Y-101528796D01*
X164315894Y-101539600D01*
X164315900Y-101539600D01*
X166088300Y-101539600D01*
X166088306Y-101539600D01*
X166162461Y-101528796D01*
X166219653Y-101500836D01*
X166276843Y-101472878D01*
X166276846Y-101472876D01*
X166366876Y-101382846D01*
X166366878Y-101382843D01*
X166418328Y-101277600D01*
X166422796Y-101268461D01*
X166433600Y-101194306D01*
X166433600Y-99421894D01*
X166422796Y-99347739D01*
X166420461Y-99342963D01*
X166366878Y-99233356D01*
X166366876Y-99233353D01*
X166276846Y-99143323D01*
X166276843Y-99143321D01*
X166162464Y-99087405D01*
X166162462Y-99087404D01*
X166162461Y-99087404D01*
X166088306Y-99076600D01*
X166088300Y-99076600D01*
X165869318Y-99076600D01*
X165802279Y-99056915D01*
X165756524Y-99004111D01*
X165746580Y-98934953D01*
X165775605Y-98871397D01*
X165816912Y-98840219D01*
X165820196Y-98838687D01*
X165820197Y-98838685D01*
X165820202Y-98838684D01*
X165996717Y-98715087D01*
X166149087Y-98562717D01*
X166272684Y-98386202D01*
X166363752Y-98190907D01*
X166419523Y-97982765D01*
X166438304Y-97768100D01*
X166419523Y-97553435D01*
X166363752Y-97345293D01*
X166272684Y-97149998D01*
X166241866Y-97105986D01*
X166149090Y-96973487D01*
X166149085Y-96973481D01*
X165996718Y-96821114D01*
X165996712Y-96821109D01*
X165820203Y-96697516D01*
X165820201Y-96697515D01*
X165633558Y-96610482D01*
X165581119Y-96564310D01*
X165561967Y-96497116D01*
X165582183Y-96430235D01*
X165633557Y-96385719D01*
X165820202Y-96298685D01*
X165996717Y-96175088D01*
X166149087Y-96022718D01*
X166272684Y-95846203D01*
X166363752Y-95650908D01*
X166419523Y-95442766D01*
X166438304Y-95228101D01*
X166419523Y-95013436D01*
X166363752Y-94805294D01*
X166272684Y-94609999D01*
X166256306Y-94586609D01*
X166149090Y-94433488D01*
X166149085Y-94433482D01*
X165996718Y-94281115D01*
X165996712Y-94281110D01*
X165820203Y-94157517D01*
X165820201Y-94157516D01*
X165773753Y-94135857D01*
X165721314Y-94089684D01*
X165702162Y-94022491D01*
X165722378Y-93955610D01*
X165773754Y-93911093D01*
X165879675Y-93861701D01*
X165879677Y-93861700D01*
X166073182Y-93726205D01*
X166240205Y-93559182D01*
X166375700Y-93365678D01*
X166475529Y-93151592D01*
X166475532Y-93151586D01*
X166532736Y-92938100D01*
X165635112Y-92938100D01*
X165668025Y-92881093D01*
X165702100Y-92753926D01*
X165702100Y-92622274D01*
X165668025Y-92495107D01*
X165635112Y-92438100D01*
X166532736Y-92438100D01*
X166532735Y-92438099D01*
X166475532Y-92224613D01*
X166475529Y-92224607D01*
X166375700Y-92010522D01*
X166375699Y-92010520D01*
X166240213Y-91817026D01*
X166240208Y-91817020D01*
X166073182Y-91649994D01*
X165879678Y-91514499D01*
X165665592Y-91414670D01*
X165665586Y-91414667D01*
X165452100Y-91357464D01*
X165452100Y-92255088D01*
X165395093Y-92222175D01*
X165267926Y-92188100D01*
X165136274Y-92188100D01*
X165009107Y-92222175D01*
X164952100Y-92255088D01*
X164952100Y-91357464D01*
X164952099Y-91357464D01*
X164738613Y-91414667D01*
X164738607Y-91414670D01*
X164524522Y-91514499D01*
X164524520Y-91514500D01*
X164331026Y-91649986D01*
X164331020Y-91649991D01*
X164163991Y-91817020D01*
X164163986Y-91817026D01*
X164028500Y-92010520D01*
X164028499Y-92010522D01*
X163928670Y-92224607D01*
X163928667Y-92224613D01*
X163871464Y-92438099D01*
X163871464Y-92438100D01*
X164769088Y-92438100D01*
X164736175Y-92495107D01*
X164702100Y-92622274D01*
X164702100Y-92753926D01*
X164736175Y-92881093D01*
X164769088Y-92938100D01*
X163871464Y-92938100D01*
X163928667Y-93151586D01*
X163928670Y-93151592D01*
X164028499Y-93365678D01*
X164163994Y-93559182D01*
X164331017Y-93726205D01*
X164524522Y-93861700D01*
X164524524Y-93861701D01*
X164630445Y-93911093D01*
X164682885Y-93957265D01*
X164702037Y-94024458D01*
X164681821Y-94091340D01*
X164630447Y-94135857D01*
X164583995Y-94157518D01*
X164407487Y-94281110D01*
X164407481Y-94281115D01*
X164255114Y-94433482D01*
X164255109Y-94433488D01*
X164131516Y-94609997D01*
X164131515Y-94609999D01*
X164040449Y-94805292D01*
X164040446Y-94805299D01*
X164022730Y-94871417D01*
X163990636Y-94927004D01*
X156073111Y-102844529D01*
X156011788Y-102878014D01*
X155942096Y-102873030D01*
X155886163Y-102831158D01*
X155869488Y-102800819D01*
X155867316Y-102795093D01*
X155846021Y-102738940D01*
X155845980Y-102738881D01*
X155775534Y-102636823D01*
X155752007Y-102602738D01*
X155752004Y-102602735D01*
X155752002Y-102602733D01*
X155628131Y-102492992D01*
X155481587Y-102416081D01*
X155369496Y-102388453D01*
X155320900Y-102376475D01*
X155155402Y-102376475D01*
X155115796Y-102386237D01*
X154994714Y-102416081D01*
X154848170Y-102492992D01*
X154724299Y-102602733D01*
X154724293Y-102602740D01*
X154630281Y-102738938D01*
X154630281Y-102738939D01*
X154571595Y-102893680D01*
X154571594Y-102893685D01*
X154551646Y-103057975D01*
X154571594Y-103222264D01*
X154571595Y-103222269D01*
X154630281Y-103377010D01*
X154630281Y-103377011D01*
X154687139Y-103459383D01*
X154724295Y-103513212D01*
X154724297Y-103513214D01*
X154724299Y-103513216D01*
X154848170Y-103622957D01*
X154848172Y-103622958D01*
X154991781Y-103698329D01*
X155041992Y-103746911D01*
X155057967Y-103814930D01*
X155034633Y-103880788D01*
X155021835Y-103895805D01*
X151175585Y-107742056D01*
X151114262Y-107775541D01*
X151087904Y-107778375D01*
X148704305Y-107778375D01*
X148637266Y-107758690D01*
X148591511Y-107705886D01*
X148581567Y-107636728D01*
X148610592Y-107573172D01*
X148622077Y-107561560D01*
X148640573Y-107545174D01*
X148697956Y-107494337D01*
X148791970Y-107358135D01*
X148850656Y-107203391D01*
X148856594Y-107154484D01*
X148884215Y-107090306D01*
X148892006Y-107081752D01*
X148908011Y-107065748D01*
X148977882Y-106944727D01*
X149014050Y-106809746D01*
X149014050Y-105791870D01*
X149033735Y-105724831D01*
X149050364Y-105704194D01*
X151461751Y-103292806D01*
X151523072Y-103259323D01*
X151592764Y-103264307D01*
X151648697Y-103306179D01*
X151672751Y-103367527D01*
X151689700Y-103528782D01*
X151689701Y-103528785D01*
X151731230Y-103656600D01*
X151743355Y-103693915D01*
X151830171Y-103844285D01*
X151896378Y-103917815D01*
X151946354Y-103973319D01*
X152086820Y-104075374D01*
X152086825Y-104075377D01*
X152245441Y-104145998D01*
X152245446Y-104146000D01*
X152415284Y-104182100D01*
X152415285Y-104182100D01*
X152588914Y-104182100D01*
X152588916Y-104182100D01*
X152758754Y-104146000D01*
X152917375Y-104075377D01*
X153057846Y-103973319D01*
X153174029Y-103844285D01*
X153260845Y-103693915D01*
X153314500Y-103528781D01*
X153332650Y-103356100D01*
X153314500Y-103183419D01*
X153260845Y-103018285D01*
X153174029Y-102867915D01*
X153057846Y-102738881D01*
X153057845Y-102738880D01*
X152917379Y-102636825D01*
X152917374Y-102636822D01*
X152758758Y-102566201D01*
X152758753Y-102566199D01*
X152605382Y-102533600D01*
X152588916Y-102530100D01*
X152523820Y-102530100D01*
X152456781Y-102510415D01*
X152411026Y-102457611D01*
X152401082Y-102388453D01*
X152430107Y-102324897D01*
X152436139Y-102318419D01*
X154192459Y-100562099D01*
X155132258Y-99622300D01*
X155651700Y-99622300D01*
X156312100Y-99647700D01*
X156820100Y-99647700D01*
X158318700Y-99038100D01*
X158496500Y-98911100D01*
X158496500Y-98174500D01*
X158369500Y-97996700D01*
X157632900Y-97945900D01*
X156693100Y-97971300D01*
X156388600Y-98364611D01*
X156456632Y-98246777D01*
X156492562Y-98112685D01*
X156524652Y-98057105D01*
X160219839Y-94361919D01*
X160281162Y-94328434D01*
X160307520Y-94325600D01*
X161623300Y-94325600D01*
X161623306Y-94325600D01*
X161697461Y-94314796D01*
X161766366Y-94281110D01*
X161811843Y-94258878D01*
X161811846Y-94258876D01*
X161901876Y-94168846D01*
X161901878Y-94168843D01*
X161951935Y-94066449D01*
X161957796Y-94054461D01*
X161968600Y-93980306D01*
X161968600Y-92207894D01*
X161957796Y-92133739D01*
X161955461Y-92128963D01*
X161901878Y-92019356D01*
X161901876Y-92019353D01*
X161811846Y-91929323D01*
X161811843Y-91929321D01*
X161697464Y-91873405D01*
X161697462Y-91873404D01*
X161697461Y-91873404D01*
X161623306Y-91862600D01*
X159850894Y-91862600D01*
X159776739Y-91873404D01*
X159776737Y-91873404D01*
X159776735Y-91873405D01*
X159662356Y-91929321D01*
X159662353Y-91929323D01*
X159572323Y-92019353D01*
X159572321Y-92019356D01*
X159516405Y-92133735D01*
X159516404Y-92133737D01*
X159516404Y-92133739D01*
X159505600Y-92207894D01*
X159505600Y-92207899D01*
X159505600Y-92426882D01*
X159485915Y-92493921D01*
X159433111Y-92539676D01*
X159363953Y-92549620D01*
X159300397Y-92520595D01*
X159269219Y-92479288D01*
X159267687Y-92476003D01*
X159267683Y-92475996D01*
X159144090Y-92299487D01*
X159144085Y-92299481D01*
X158991718Y-92147114D01*
X158991712Y-92147109D01*
X158815203Y-92023516D01*
X158815201Y-92023515D01*
X158717554Y-91977982D01*
X158619907Y-91932448D01*
X158619903Y-91932447D01*
X158619899Y-91932445D01*
X158411770Y-91876678D01*
X158411760Y-91876676D01*
X158197101Y-91857896D01*
X158197099Y-91857896D01*
X157982439Y-91876676D01*
X157982429Y-91876678D01*
X157774300Y-91932445D01*
X157774291Y-91932449D01*
X157578998Y-92023515D01*
X157578996Y-92023516D01*
X157402487Y-92147109D01*
X157402481Y-92147114D01*
X157250114Y-92299481D01*
X157250109Y-92299487D01*
X157126516Y-92475996D01*
X157119158Y-92491778D01*
X157072987Y-92544218D01*
X157006775Y-92563375D01*
X155221190Y-92563375D01*
X155221174Y-92563374D01*
X155213578Y-92563374D01*
X155073835Y-92563374D01*
X155006344Y-92581458D01*
X154938852Y-92599543D01*
X154938847Y-92599546D01*
X154817839Y-92669409D01*
X154817831Y-92669415D01*
X152235390Y-95251856D01*
X152235384Y-95251864D01*
X152165521Y-95372872D01*
X152165518Y-95372879D01*
X152129350Y-95507860D01*
X152129350Y-96500728D01*
X152109665Y-96567767D01*
X152093031Y-96588409D01*
X147205785Y-101475654D01*
X147205786Y-101475655D01*
X147124412Y-101557029D01*
X147124409Y-101557033D01*
X147054546Y-101678041D01*
X147054543Y-101678048D01*
X147018375Y-101813029D01*
X147018375Y-105680661D01*
X146998690Y-105747700D01*
X146996425Y-105751101D01*
X146941231Y-105831063D01*
X146941230Y-105831064D01*
X146882544Y-105985805D01*
X146882543Y-105985810D01*
X146862595Y-106150100D01*
X142725672Y-106150100D01*
X142712536Y-106143206D01*
X142604410Y-106116555D01*
X142551849Y-106103600D01*
X142551848Y-106103600D01*
X142504208Y-106103600D01*
X142437169Y-106083915D01*
X142416527Y-106067281D01*
X141284734Y-104935488D01*
X141284728Y-104935483D01*
X141177471Y-104873558D01*
X141177466Y-104873556D01*
X141117650Y-104857527D01*
X141117650Y-104857528D01*
X141057831Y-104841500D01*
X141057830Y-104841500D01*
X141057829Y-104841500D01*
X139967418Y-104841500D01*
X139900379Y-104821815D01*
X139854624Y-104769011D01*
X139844322Y-104702554D01*
X139853605Y-104626100D01*
X139833656Y-104461810D01*
X139833655Y-104461805D01*
X139792013Y-104352004D01*
X139774970Y-104307065D01*
X139680956Y-104170863D01*
X139680953Y-104170860D01*
X139680951Y-104170858D01*
X139557080Y-104061117D01*
X139410536Y-103984206D01*
X139302410Y-103957555D01*
X139249849Y-103944600D01*
X139084351Y-103944600D01*
X139044745Y-103954362D01*
X138923663Y-103984206D01*
X138777122Y-104061116D01*
X138719894Y-104111816D01*
X138656661Y-104141537D01*
X138637667Y-104143000D01*
X136187747Y-104143000D01*
X136120708Y-104123315D01*
X136074953Y-104070511D01*
X136065009Y-104001353D01*
X136094034Y-103937797D01*
X136130121Y-103909203D01*
X136204279Y-103870283D01*
X136328156Y-103760537D01*
X136422170Y-103624335D01*
X136463602Y-103515085D01*
X136505779Y-103459383D01*
X136571377Y-103435325D01*
X136639567Y-103450552D01*
X136661767Y-103466237D01*
X136745121Y-103540083D01*
X136891662Y-103616993D01*
X137052351Y-103656600D01*
X137052352Y-103656600D01*
X137217848Y-103656600D01*
X137217849Y-103656600D01*
X137378538Y-103616993D01*
X137525079Y-103540083D01*
X137648956Y-103430337D01*
X137742970Y-103294135D01*
X137795053Y-103156802D01*
X137801655Y-103139394D01*
X137801656Y-103139389D01*
X137821605Y-102975100D01*
X137801656Y-102810809D01*
X137801655Y-102810807D01*
X137801655Y-102810805D01*
X137760391Y-102702001D01*
X137742970Y-102656065D01*
X137732295Y-102640600D01*
X137680940Y-102566200D01*
X137648956Y-102519863D01*
X137648953Y-102519860D01*
X137648951Y-102519858D01*
X137525080Y-102410117D01*
X137378536Y-102333206D01*
X137270410Y-102306555D01*
X137217849Y-102293600D01*
X137052351Y-102293600D01*
X137012745Y-102303362D01*
X136891663Y-102333206D01*
X136745119Y-102410117D01*
X136621248Y-102519858D01*
X136621242Y-102519865D01*
X136527231Y-102656062D01*
X136485797Y-102765315D01*
X136443619Y-102821017D01*
X136378021Y-102845074D01*
X136309831Y-102829847D01*
X136287631Y-102814160D01*
X136204279Y-102740317D01*
X136057738Y-102663407D01*
X136057737Y-102663406D01*
X136057736Y-102663406D01*
X135947255Y-102636175D01*
X135897049Y-102623800D01*
X135731551Y-102623800D01*
X135691945Y-102633562D01*
X135570863Y-102663406D01*
X135424319Y-102740317D01*
X135300448Y-102850058D01*
X135300443Y-102850063D01*
X135269547Y-102894824D01*
X135215263Y-102938813D01*
X135145815Y-102946471D01*
X135083250Y-102915367D01*
X135065448Y-102894822D01*
X135064663Y-102893685D01*
X134981956Y-102773863D01*
X134981953Y-102773860D01*
X134981951Y-102773858D01*
X134858080Y-102664117D01*
X134711536Y-102587206D01*
X134603410Y-102560555D01*
X134550849Y-102547600D01*
X134385351Y-102547600D01*
X134345745Y-102557362D01*
X134224663Y-102587206D01*
X134078119Y-102664117D01*
X133954248Y-102773858D01*
X133954242Y-102773865D01*
X133860230Y-102910063D01*
X133860230Y-102910064D01*
X133801544Y-103064805D01*
X133801543Y-103064810D01*
X133781595Y-103229100D01*
X133801543Y-103393389D01*
X133801544Y-103393394D01*
X133860230Y-103548135D01*
X133860230Y-103548136D01*
X133911876Y-103622957D01*
X133954244Y-103684337D01*
X133954246Y-103684339D01*
X133954248Y-103684341D01*
X134078119Y-103794082D01*
X134078121Y-103794083D01*
X134224662Y-103870993D01*
X134385351Y-103910600D01*
X134415031Y-103910600D01*
X134482070Y-103930285D01*
X134502712Y-103946919D01*
X135373712Y-104817919D01*
X135407197Y-104879242D01*
X135402213Y-104948934D01*
X135360341Y-105004867D01*
X135294877Y-105029284D01*
X135286031Y-105029600D01*
X129746208Y-105029600D01*
X129679169Y-105009915D01*
X129658527Y-104993281D01*
X123943242Y-99277996D01*
X123909757Y-99216673D01*
X123914741Y-99146981D01*
X123956613Y-99091048D01*
X124022077Y-99066631D01*
X124090350Y-99081483D01*
X124098756Y-99086514D01*
X124098898Y-99086606D01*
X124098901Y-99086609D01*
X124300256Y-99195577D01*
X124516799Y-99269917D01*
X124742626Y-99307600D01*
X124971574Y-99307600D01*
X125197401Y-99269917D01*
X125413944Y-99195577D01*
X125615299Y-99086609D01*
X125795971Y-98945986D01*
X125951034Y-98777543D01*
X126076257Y-98585875D01*
X126129236Y-98465093D01*
X126174191Y-98411608D01*
X126213115Y-98394506D01*
X126238200Y-98388324D01*
X126260622Y-98382798D01*
X126260933Y-98384062D01*
X126292919Y-98378200D01*
X129965835Y-98378200D01*
X130032874Y-98397885D01*
X130078629Y-98450689D01*
X130079391Y-98452390D01*
X130137943Y-98585876D01*
X130179973Y-98650207D01*
X130263166Y-98777543D01*
X130408072Y-98934953D01*
X130418231Y-98945988D01*
X130418235Y-98945991D01*
X130453020Y-98973065D01*
X130586041Y-99076600D01*
X130598896Y-99086605D01*
X130598901Y-99086609D01*
X130710458Y-99146981D01*
X130800256Y-99195577D01*
X131016799Y-99269917D01*
X131242626Y-99307600D01*
X131471574Y-99307600D01*
X131564463Y-99292100D01*
X139496595Y-99292100D01*
X139516543Y-99456389D01*
X139516544Y-99456394D01*
X139575230Y-99611135D01*
X139575230Y-99611136D01*
X139660500Y-99734669D01*
X139669244Y-99747337D01*
X139669246Y-99747339D01*
X139669248Y-99747341D01*
X139793119Y-99857082D01*
X139793121Y-99857083D01*
X139939662Y-99933993D01*
X140100351Y-99973600D01*
X140100352Y-99973600D01*
X140265848Y-99973600D01*
X140265849Y-99973600D01*
X140426538Y-99933993D01*
X140573079Y-99857083D01*
X140696956Y-99747337D01*
X140790970Y-99611135D01*
X140849656Y-99456391D01*
X140869605Y-99292100D01*
X140849656Y-99127809D01*
X140849655Y-99127807D01*
X140849655Y-99127805D01*
X140802744Y-99004111D01*
X140790970Y-98973065D01*
X140788226Y-98969090D01*
X140743963Y-98904964D01*
X140696956Y-98836863D01*
X140696953Y-98836860D01*
X140696951Y-98836858D01*
X140573080Y-98727117D01*
X140426536Y-98650206D01*
X140318410Y-98623555D01*
X140265849Y-98610600D01*
X140100351Y-98610600D01*
X140060745Y-98620362D01*
X139939663Y-98650206D01*
X139793119Y-98727117D01*
X139669248Y-98836858D01*
X139669242Y-98836865D01*
X139575230Y-98973063D01*
X139575230Y-98973064D01*
X139516544Y-99127805D01*
X139516543Y-99127810D01*
X139496595Y-99292100D01*
X131564463Y-99292100D01*
X131697401Y-99269917D01*
X131913944Y-99195577D01*
X132115299Y-99086609D01*
X132295971Y-98945986D01*
X132451034Y-98777543D01*
X132576257Y-98585875D01*
X132668225Y-98376210D01*
X132724429Y-98154267D01*
X132724857Y-98149100D01*
X132743335Y-97926106D01*
X132743335Y-97926093D01*
X132724430Y-97697940D01*
X132724428Y-97697929D01*
X132668225Y-97475989D01*
X132576256Y-97266323D01*
X132468465Y-97101337D01*
X132451034Y-97074657D01*
X132295971Y-96906214D01*
X132295970Y-96906213D01*
X132295968Y-96906211D01*
X132295964Y-96906208D01*
X132115303Y-96765594D01*
X132115298Y-96765590D01*
X131913945Y-96656623D01*
X131913936Y-96656620D01*
X131697403Y-96582283D01*
X131471574Y-96544600D01*
X131242626Y-96544600D01*
X131016796Y-96582283D01*
X130800263Y-96656620D01*
X130800254Y-96656623D01*
X130598901Y-96765590D01*
X130598896Y-96765594D01*
X130418235Y-96906208D01*
X130418232Y-96906211D01*
X130418229Y-96906213D01*
X130418229Y-96906214D01*
X130270045Y-97067183D01*
X130210160Y-97103173D01*
X130178817Y-97107200D01*
X126292919Y-97107200D01*
X126260931Y-97101337D01*
X126260620Y-97102602D01*
X126253338Y-97100807D01*
X126092649Y-97061200D01*
X126092648Y-97061200D01*
X125993037Y-97061200D01*
X125925998Y-97041515D01*
X125901809Y-97021185D01*
X125795971Y-96906214D01*
X125795966Y-96906210D01*
X125795964Y-96906208D01*
X125615303Y-96765594D01*
X125615298Y-96765590D01*
X125413945Y-96656623D01*
X125413936Y-96656620D01*
X125197403Y-96582283D01*
X124971574Y-96544600D01*
X124742626Y-96544600D01*
X124516796Y-96582283D01*
X124300263Y-96656620D01*
X124300254Y-96656623D01*
X124098901Y-96765590D01*
X124098896Y-96765594D01*
X123918235Y-96906208D01*
X123918231Y-96906211D01*
X123763167Y-97074655D01*
X123763164Y-97074659D01*
X123637943Y-97266323D01*
X123545974Y-97475989D01*
X123489771Y-97697929D01*
X123489769Y-97697940D01*
X123470865Y-97926093D01*
X123470865Y-97926106D01*
X123489769Y-98154259D01*
X123489771Y-98154270D01*
X123545974Y-98376210D01*
X123627785Y-98562717D01*
X123637943Y-98585875D01*
X123713007Y-98700769D01*
X123733194Y-98767658D01*
X123714014Y-98834843D01*
X123661556Y-98880994D01*
X123592474Y-98891457D01*
X123528702Y-98862911D01*
X123521517Y-98856271D01*
X120678821Y-96013575D01*
X120645336Y-95952252D01*
X120646726Y-95893804D01*
X120699523Y-95696765D01*
X120718304Y-95482100D01*
X120699523Y-95267435D01*
X120643752Y-95059293D01*
X120552684Y-94863998D01*
X120497464Y-94785136D01*
X120429090Y-94687487D01*
X120429085Y-94687481D01*
X120276718Y-94535114D01*
X120276712Y-94535109D01*
X120100203Y-94411516D01*
X120100196Y-94411512D01*
X120096912Y-94409981D01*
X120095708Y-94408921D01*
X120095512Y-94408808D01*
X120095534Y-94408768D01*
X120044473Y-94363808D01*
X120025322Y-94296615D01*
X120045539Y-94229734D01*
X120098705Y-94184400D01*
X120149318Y-94173600D01*
X120368300Y-94173600D01*
X120368306Y-94173600D01*
X120442461Y-94162796D01*
X120499653Y-94134836D01*
X120556843Y-94106878D01*
X120556846Y-94106876D01*
X120646876Y-94016846D01*
X120646878Y-94016843D01*
X120698576Y-93911093D01*
X120702796Y-93902461D01*
X120713600Y-93828306D01*
X120713600Y-93426093D01*
X123470865Y-93426093D01*
X123470865Y-93426106D01*
X123489769Y-93654259D01*
X123489771Y-93654270D01*
X123545974Y-93876210D01*
X123637943Y-94085876D01*
X123754760Y-94264677D01*
X123763166Y-94277543D01*
X123886493Y-94411512D01*
X123918231Y-94445988D01*
X123918235Y-94445991D01*
X124098896Y-94586605D01*
X124098901Y-94586609D01*
X124285299Y-94687483D01*
X124300256Y-94695577D01*
X124516799Y-94769917D01*
X124742626Y-94807600D01*
X124971574Y-94807600D01*
X125197401Y-94769917D01*
X125413944Y-94695577D01*
X125615299Y-94586609D01*
X125795971Y-94445986D01*
X125951034Y-94277543D01*
X126076257Y-94085875D01*
X126168225Y-93876210D01*
X126224429Y-93654267D01*
X126224430Y-93654259D01*
X126243335Y-93426106D01*
X126243335Y-93426093D01*
X129970865Y-93426093D01*
X129970865Y-93426106D01*
X129989769Y-93654259D01*
X129989771Y-93654270D01*
X130045974Y-93876210D01*
X130137943Y-94085876D01*
X130254760Y-94264677D01*
X130263166Y-94277543D01*
X130386493Y-94411512D01*
X130418231Y-94445988D01*
X130418235Y-94445991D01*
X130598896Y-94586605D01*
X130598901Y-94586609D01*
X130785299Y-94687483D01*
X130800256Y-94695577D01*
X131016799Y-94769917D01*
X131242626Y-94807600D01*
X131471574Y-94807600D01*
X131697401Y-94769917D01*
X131913944Y-94695577D01*
X132115299Y-94586609D01*
X132270129Y-94466100D01*
X137972595Y-94466100D01*
X137992543Y-94630389D01*
X137992544Y-94630394D01*
X138051230Y-94785135D01*
X138051230Y-94785136D01*
X138132939Y-94903510D01*
X138145244Y-94921337D01*
X138145246Y-94921339D01*
X138145248Y-94921341D01*
X138269119Y-95031082D01*
X138269121Y-95031083D01*
X138415662Y-95107993D01*
X138576351Y-95147600D01*
X138576352Y-95147600D01*
X138741848Y-95147600D01*
X138741849Y-95147600D01*
X138902538Y-95107993D01*
X139049079Y-95031083D01*
X139172956Y-94921337D01*
X139266970Y-94785135D01*
X139325656Y-94630391D01*
X139345605Y-94466100D01*
X139325656Y-94301809D01*
X139325655Y-94301807D01*
X139325655Y-94301805D01*
X139315717Y-94275600D01*
X139750595Y-94275600D01*
X139770543Y-94439889D01*
X139770544Y-94439894D01*
X139829229Y-94594633D01*
X139829230Y-94594635D01*
X139893950Y-94688398D01*
X139915833Y-94754751D01*
X139915900Y-94758837D01*
X139915900Y-94788717D01*
X139950405Y-94917493D01*
X139951420Y-94921278D01*
X139951420Y-94921279D01*
X139956664Y-94930361D01*
X139956667Y-94930365D01*
X140020035Y-95040123D01*
X140020037Y-95040126D01*
X140768581Y-95788669D01*
X140802066Y-95849992D01*
X140804900Y-95876350D01*
X140804900Y-96947717D01*
X140840419Y-97080276D01*
X140850536Y-97097799D01*
X140852271Y-97100803D01*
X140852272Y-97100807D01*
X140852273Y-97100807D01*
X140909036Y-97199125D01*
X141684154Y-97974243D01*
X142439581Y-98729669D01*
X142473066Y-98790992D01*
X142475900Y-98817350D01*
X142475900Y-101368861D01*
X142456215Y-101435900D01*
X142453950Y-101439301D01*
X142389231Y-101533063D01*
X142389230Y-101533064D01*
X142330544Y-101687805D01*
X142330543Y-101687810D01*
X142310595Y-101852100D01*
X142330543Y-102016389D01*
X142330544Y-102016394D01*
X142389230Y-102171135D01*
X142389230Y-102171136D01*
X142430566Y-102231020D01*
X142483244Y-102307337D01*
X142483246Y-102307339D01*
X142483248Y-102307341D01*
X142607119Y-102417082D01*
X142607121Y-102417083D01*
X142753662Y-102493993D01*
X142914351Y-102533600D01*
X142914352Y-102533600D01*
X143079848Y-102533600D01*
X143079849Y-102533600D01*
X143240538Y-102493993D01*
X143387079Y-102417083D01*
X143510956Y-102307337D01*
X143604970Y-102171135D01*
X143612868Y-102150308D01*
X143655045Y-102094606D01*
X143720642Y-102070548D01*
X143788833Y-102085774D01*
X143837966Y-102135450D01*
X143844752Y-102150308D01*
X143893230Y-102278135D01*
X143893230Y-102278136D01*
X143969377Y-102388453D01*
X143987244Y-102414337D01*
X143987246Y-102414339D01*
X143987248Y-102414341D01*
X144111119Y-102524082D01*
X144111121Y-102524083D01*
X144257662Y-102600993D01*
X144418351Y-102640600D01*
X144418352Y-102640600D01*
X144583848Y-102640600D01*
X144583849Y-102640600D01*
X144744538Y-102600993D01*
X144891079Y-102524083D01*
X145014956Y-102414337D01*
X145108970Y-102278135D01*
X145167656Y-102123391D01*
X145187605Y-101959100D01*
X145167656Y-101794809D01*
X145167655Y-101794807D01*
X145167655Y-101794805D01*
X145140708Y-101723752D01*
X145108970Y-101640065D01*
X145103875Y-101632684D01*
X145051653Y-101557027D01*
X145014956Y-101503863D01*
X145014953Y-101503860D01*
X145014951Y-101503858D01*
X144891080Y-101394117D01*
X144744536Y-101317206D01*
X144581365Y-101276987D01*
X144523360Y-101244271D01*
X144423619Y-101144530D01*
X144390134Y-101083207D01*
X144387300Y-101056849D01*
X144387300Y-98438306D01*
X144406985Y-98371267D01*
X144459789Y-98325512D01*
X144528947Y-98315568D01*
X144592503Y-98344593D01*
X144627241Y-98394333D01*
X144640354Y-98428910D01*
X144655230Y-98468136D01*
X144736501Y-98585876D01*
X144749244Y-98604337D01*
X144749246Y-98604339D01*
X144749248Y-98604341D01*
X144873119Y-98714082D01*
X144873121Y-98714083D01*
X145019662Y-98790993D01*
X145180351Y-98830600D01*
X145180352Y-98830600D01*
X145345848Y-98830600D01*
X145345849Y-98830600D01*
X145506538Y-98790993D01*
X145653079Y-98714083D01*
X145776956Y-98604337D01*
X145870970Y-98468135D01*
X145925059Y-98325512D01*
X145929655Y-98313394D01*
X145929656Y-98313389D01*
X145949605Y-98149100D01*
X145929656Y-97984809D01*
X145929655Y-97984807D01*
X145929655Y-97984805D01*
X145882282Y-97859893D01*
X145870970Y-97830065D01*
X145855352Y-97807439D01*
X145779765Y-97697933D01*
X145776956Y-97693863D01*
X145776953Y-97693860D01*
X145776951Y-97693858D01*
X145653080Y-97584117D01*
X145506536Y-97507206D01*
X145379884Y-97475989D01*
X145345849Y-97467600D01*
X145180351Y-97467600D01*
X145146316Y-97475989D01*
X145019663Y-97507206D01*
X144873119Y-97584117D01*
X144749248Y-97693858D01*
X144749242Y-97693865D01*
X144655230Y-97830063D01*
X144655230Y-97830064D01*
X144627242Y-97903864D01*
X144585064Y-97959567D01*
X144519467Y-97983624D01*
X144451276Y-97968397D01*
X144402143Y-97918721D01*
X144387300Y-97859893D01*
X144387300Y-96365985D01*
X144387300Y-96365983D01*
X144351781Y-96233424D01*
X144333394Y-96201579D01*
X144283164Y-96114575D01*
X144283163Y-96114574D01*
X144283160Y-96114570D01*
X142416870Y-94248281D01*
X142383385Y-94186958D01*
X142381455Y-94175545D01*
X142380642Y-94168846D01*
X142373656Y-94111309D01*
X142373654Y-94111305D01*
X142335492Y-94010678D01*
X142314970Y-93956565D01*
X142277624Y-93902461D01*
X142249489Y-93861700D01*
X142220956Y-93820363D01*
X142220953Y-93820360D01*
X142220951Y-93820358D01*
X142097080Y-93710617D01*
X141950536Y-93633706D01*
X141842410Y-93607055D01*
X141789849Y-93594100D01*
X141624351Y-93594100D01*
X141584745Y-93603862D01*
X141463663Y-93633706D01*
X141317119Y-93710617D01*
X141193248Y-93820358D01*
X141193240Y-93820367D01*
X141174149Y-93848026D01*
X141119866Y-93892016D01*
X141050418Y-93899675D01*
X140987853Y-93868571D01*
X140970051Y-93848026D01*
X140950959Y-93820367D01*
X140950957Y-93820365D01*
X140950956Y-93820363D01*
X140950953Y-93820360D01*
X140950951Y-93820358D01*
X140827080Y-93710617D01*
X140680536Y-93633706D01*
X140572410Y-93607055D01*
X140519849Y-93594100D01*
X140354351Y-93594100D01*
X140314745Y-93603862D01*
X140193663Y-93633706D01*
X140047119Y-93710617D01*
X139923248Y-93820358D01*
X139923242Y-93820365D01*
X139829230Y-93956563D01*
X139829230Y-93956564D01*
X139770544Y-94111305D01*
X139770543Y-94111310D01*
X139750595Y-94275600D01*
X139315717Y-94275600D01*
X139293881Y-94218024D01*
X139266970Y-94147065D01*
X139239229Y-94106876D01*
X139193817Y-94041085D01*
X139172956Y-94010863D01*
X139172953Y-94010860D01*
X139172951Y-94010858D01*
X139049080Y-93901117D01*
X138902536Y-93824206D01*
X138794410Y-93797555D01*
X138741849Y-93784600D01*
X138576351Y-93784600D01*
X138536745Y-93794362D01*
X138415663Y-93824206D01*
X138269119Y-93901117D01*
X138145248Y-94010858D01*
X138145242Y-94010865D01*
X138051230Y-94147063D01*
X138051230Y-94147064D01*
X137992544Y-94301805D01*
X137992543Y-94301810D01*
X137972595Y-94466100D01*
X132270129Y-94466100D01*
X132295971Y-94445986D01*
X132451034Y-94277543D01*
X132576257Y-94085875D01*
X132668225Y-93876210D01*
X132724429Y-93654267D01*
X132724430Y-93654259D01*
X132743335Y-93426106D01*
X132743335Y-93426093D01*
X132724430Y-93197940D01*
X132724428Y-93197929D01*
X132668225Y-92975989D01*
X132576256Y-92766323D01*
X132451035Y-92574659D01*
X132451034Y-92574657D01*
X132295971Y-92406214D01*
X132295970Y-92406213D01*
X132295968Y-92406211D01*
X132295964Y-92406208D01*
X132115303Y-92265594D01*
X132115298Y-92265590D01*
X131913945Y-92156623D01*
X131913936Y-92156620D01*
X131697403Y-92082283D01*
X131471574Y-92044600D01*
X131242626Y-92044600D01*
X131016796Y-92082283D01*
X130800263Y-92156620D01*
X130800254Y-92156623D01*
X130598901Y-92265590D01*
X130598896Y-92265594D01*
X130418235Y-92406208D01*
X130418231Y-92406211D01*
X130263167Y-92574655D01*
X130263164Y-92574659D01*
X130137943Y-92766323D01*
X130045974Y-92975989D01*
X129989771Y-93197929D01*
X129989769Y-93197940D01*
X129970865Y-93426093D01*
X126243335Y-93426093D01*
X126224430Y-93197940D01*
X126224428Y-93197929D01*
X126168225Y-92975989D01*
X126076256Y-92766323D01*
X125951035Y-92574659D01*
X125951034Y-92574657D01*
X125795971Y-92406214D01*
X125795970Y-92406213D01*
X125795968Y-92406211D01*
X125795964Y-92406208D01*
X125615303Y-92265594D01*
X125615298Y-92265590D01*
X125413945Y-92156623D01*
X125413936Y-92156620D01*
X125197403Y-92082283D01*
X124971574Y-92044600D01*
X124742626Y-92044600D01*
X124516796Y-92082283D01*
X124300263Y-92156620D01*
X124300254Y-92156623D01*
X124098901Y-92265590D01*
X124098896Y-92265594D01*
X123918235Y-92406208D01*
X123918231Y-92406211D01*
X123763167Y-92574655D01*
X123763164Y-92574659D01*
X123637943Y-92766323D01*
X123545974Y-92975989D01*
X123489771Y-93197929D01*
X123489769Y-93197940D01*
X123470865Y-93426093D01*
X120713600Y-93426093D01*
X120713600Y-92055894D01*
X120702796Y-91981739D01*
X120700461Y-91976963D01*
X120646878Y-91867356D01*
X120646876Y-91867353D01*
X120556846Y-91777323D01*
X120556843Y-91777321D01*
X120442464Y-91721405D01*
X120442462Y-91721404D01*
X120442461Y-91721404D01*
X120368306Y-91710600D01*
X118595894Y-91710600D01*
X118521739Y-91721404D01*
X118521737Y-91721404D01*
X118521735Y-91721405D01*
X118407356Y-91777321D01*
X118407353Y-91777323D01*
X118317323Y-91867353D01*
X118317321Y-91867356D01*
X118261405Y-91981735D01*
X118261404Y-91981737D01*
X118261404Y-91981739D01*
X118250600Y-92055894D01*
X118250600Y-93828306D01*
X118261404Y-93902461D01*
X118261404Y-93902462D01*
X118261405Y-93902464D01*
X118317321Y-94016843D01*
X118317323Y-94016846D01*
X118407353Y-94106876D01*
X118407356Y-94106878D01*
X118489561Y-94147065D01*
X118521739Y-94162796D01*
X118595894Y-94173600D01*
X118595900Y-94173600D01*
X118814882Y-94173600D01*
X118881921Y-94193285D01*
X118927676Y-94246089D01*
X118937620Y-94315247D01*
X118908595Y-94378803D01*
X118867288Y-94409981D01*
X118864003Y-94411512D01*
X118863996Y-94411516D01*
X118687487Y-94535109D01*
X118687481Y-94535114D01*
X118535114Y-94687481D01*
X118535109Y-94687487D01*
X118411516Y-94863996D01*
X118411515Y-94863998D01*
X118320449Y-95059291D01*
X118320445Y-95059300D01*
X118264678Y-95267429D01*
X118264676Y-95267439D01*
X118245896Y-95482099D01*
X118245896Y-95482100D01*
X118264676Y-95696760D01*
X118264678Y-95696770D01*
X118320445Y-95904899D01*
X118320447Y-95904903D01*
X118320448Y-95904907D01*
X118365982Y-96002554D01*
X118411515Y-96100201D01*
X118411516Y-96100203D01*
X118535109Y-96276712D01*
X118535114Y-96276718D01*
X118687481Y-96429085D01*
X118687487Y-96429090D01*
X118863996Y-96552683D01*
X118863998Y-96552684D01*
X119050642Y-96639718D01*
X119103081Y-96685890D01*
X119122233Y-96753084D01*
X119102017Y-96819965D01*
X119050642Y-96864482D01*
X118863998Y-96951515D01*
X118863996Y-96951516D01*
X118687487Y-97075109D01*
X118687481Y-97075114D01*
X118535114Y-97227481D01*
X118535109Y-97227487D01*
X118411516Y-97403996D01*
X118411515Y-97403998D01*
X118320449Y-97599291D01*
X118320445Y-97599300D01*
X118264678Y-97807429D01*
X118264676Y-97807439D01*
X118245896Y-98022099D01*
X118245896Y-98022100D01*
X118264676Y-98236760D01*
X118264678Y-98236770D01*
X118320445Y-98444899D01*
X118320447Y-98444903D01*
X118320448Y-98444907D01*
X118365982Y-98542554D01*
X118411515Y-98640201D01*
X118411516Y-98640203D01*
X118535109Y-98816712D01*
X118535114Y-98816718D01*
X118687481Y-98969085D01*
X118687487Y-98969090D01*
X118863996Y-99092683D01*
X118863998Y-99092684D01*
X119050642Y-99179718D01*
X119103081Y-99225890D01*
X119122233Y-99293084D01*
X119102017Y-99359965D01*
X119050642Y-99404482D01*
X118863998Y-99491515D01*
X118863996Y-99491516D01*
X118687487Y-99615109D01*
X118687481Y-99615114D01*
X118535114Y-99767481D01*
X118535109Y-99767487D01*
X118411516Y-99943996D01*
X118411515Y-99943998D01*
X118320449Y-100139291D01*
X118320445Y-100139300D01*
X118264678Y-100347429D01*
X118264676Y-100347439D01*
X118245896Y-100562099D01*
X118245896Y-100562100D01*
X118264676Y-100776760D01*
X118264678Y-100776770D01*
X118320445Y-100984899D01*
X118320447Y-100984903D01*
X118320448Y-100984907D01*
X118353995Y-101056849D01*
X118411515Y-101180201D01*
X118411516Y-101180203D01*
X118535109Y-101356712D01*
X118535114Y-101356718D01*
X118687481Y-101509085D01*
X118687487Y-101509090D01*
X118863996Y-101632683D01*
X118863997Y-101632683D01*
X118863998Y-101632684D01*
X118910444Y-101654342D01*
X118962883Y-101700513D01*
X118982036Y-101767706D01*
X118961821Y-101834588D01*
X118910446Y-101879106D01*
X118804519Y-101928501D01*
X118611026Y-102063986D01*
X118611020Y-102063991D01*
X118443991Y-102231020D01*
X118443986Y-102231026D01*
X118308500Y-102424520D01*
X118308499Y-102424522D01*
X118208670Y-102638607D01*
X118208667Y-102638613D01*
X118151464Y-102852099D01*
X118151464Y-102852100D01*
X119049088Y-102852100D01*
X119016175Y-102909107D01*
X118982100Y-103036274D01*
X118982100Y-103167926D01*
X119016175Y-103295093D01*
X119049088Y-103352100D01*
X118151464Y-103352100D01*
X118208667Y-103565586D01*
X118208670Y-103565592D01*
X118308499Y-103779678D01*
X118443994Y-103973182D01*
X118611017Y-104140205D01*
X118804521Y-104275700D01*
X119018607Y-104375529D01*
X119018616Y-104375533D01*
X119232100Y-104432734D01*
X119232100Y-103535112D01*
X119289107Y-103568025D01*
X119416274Y-103602100D01*
X119547926Y-103602100D01*
X119675093Y-103568025D01*
X119732100Y-103535112D01*
X119732100Y-104432733D01*
X119945583Y-104375533D01*
X119945592Y-104375529D01*
X120159678Y-104275700D01*
X120353182Y-104140205D01*
X120520205Y-103973182D01*
X120655700Y-103779678D01*
X120755529Y-103565592D01*
X120755532Y-103565586D01*
X120812736Y-103352100D01*
X119915112Y-103352100D01*
X119948025Y-103295093D01*
X119982100Y-103167926D01*
X119982100Y-103036274D01*
X119948025Y-102909107D01*
X119915112Y-102852100D01*
X120812736Y-102852100D01*
X120826354Y-102834351D01*
X120826518Y-102827484D01*
X120865680Y-102769621D01*
X120929908Y-102742116D01*
X120998811Y-102753702D01*
X121032312Y-102777558D01*
X126290686Y-108035932D01*
X126378268Y-108123514D01*
X126451676Y-108165896D01*
X126485532Y-108185443D01*
X126605170Y-108217500D01*
X126605171Y-108217500D01*
X140220948Y-108217500D01*
X140287987Y-108237185D01*
X140333742Y-108289989D01*
X140343686Y-108359147D01*
X140314661Y-108422703D01*
X140278573Y-108451296D01*
X140271302Y-108455113D01*
X140174119Y-108506117D01*
X140050248Y-108615858D01*
X140050242Y-108615865D01*
X139956230Y-108752063D01*
X139956230Y-108752064D01*
X139897544Y-108906805D01*
X139897544Y-108906809D01*
X139877595Y-109071100D01*
X139897543Y-109235389D01*
X139897544Y-109235394D01*
X139930287Y-109321729D01*
X139935654Y-109391393D01*
X139902506Y-109452899D01*
X139841368Y-109486720D01*
X139814345Y-109489700D01*
X136813790Y-109489700D01*
X136746751Y-109470015D01*
X136726109Y-109453381D01*
X136261916Y-108989188D01*
X136261910Y-108989183D01*
X136154653Y-108927258D01*
X136154654Y-108927258D01*
X136078337Y-108906809D01*
X136078337Y-108906808D01*
X136035013Y-108895200D01*
X136035012Y-108895200D01*
X136035011Y-108895200D01*
X126762386Y-108895200D01*
X126638526Y-108895200D01*
X126638524Y-108895200D01*
X126595200Y-108906808D01*
X126595201Y-108906809D01*
X126518884Y-108927258D01*
X126411627Y-108989183D01*
X126411621Y-108989188D01*
X126411622Y-108989188D01*
X126300672Y-109100136D01*
X126239349Y-109133620D01*
X126169657Y-109128635D01*
X126113724Y-109086764D01*
X126093217Y-109044546D01*
X126079755Y-108994302D01*
X126079753Y-108994298D01*
X126079752Y-108994293D01*
X125988684Y-108798998D01*
X125978179Y-108783996D01*
X125865090Y-108622487D01*
X125865085Y-108622481D01*
X125712718Y-108470114D01*
X125712712Y-108470109D01*
X125536203Y-108346516D01*
X125536201Y-108346515D01*
X125414980Y-108289989D01*
X125340907Y-108255448D01*
X125340903Y-108255447D01*
X125340899Y-108255445D01*
X125132770Y-108199678D01*
X125132760Y-108199676D01*
X124918101Y-108180896D01*
X124918099Y-108180896D01*
X124703439Y-108199676D01*
X124703429Y-108199678D01*
X124495300Y-108255445D01*
X124495291Y-108255449D01*
X124299998Y-108346515D01*
X124299996Y-108346516D01*
X124123487Y-108470109D01*
X124123481Y-108470114D01*
X123971114Y-108622481D01*
X123971109Y-108622487D01*
X123847516Y-108798996D01*
X123847515Y-108798998D01*
X123756449Y-108994291D01*
X123756445Y-108994300D01*
X123700678Y-109202429D01*
X123700676Y-109202439D01*
X123681896Y-109417099D01*
X123681896Y-109417100D01*
X123700676Y-109631760D01*
X123700678Y-109631770D01*
X123756445Y-109839899D01*
X123756447Y-109839903D01*
X123756448Y-109839907D01*
X123824779Y-109986442D01*
X123828394Y-109994195D01*
X123838886Y-110063273D01*
X123810366Y-110127057D01*
X123751890Y-110165296D01*
X123716012Y-110170600D01*
X120917208Y-110170600D01*
X120850169Y-110150915D01*
X120829527Y-110134281D01*
X120628821Y-109933575D01*
X120595336Y-109872252D01*
X120596726Y-109813804D01*
X120649523Y-109616765D01*
X120668304Y-109402100D01*
X120649523Y-109187435D01*
X120598460Y-108996863D01*
X120593754Y-108979300D01*
X120593753Y-108979299D01*
X120593752Y-108979293D01*
X120502684Y-108783998D01*
X120488917Y-108764337D01*
X120379090Y-108607487D01*
X120379085Y-108607481D01*
X120226718Y-108455114D01*
X120226712Y-108455109D01*
X120050203Y-108331516D01*
X120050201Y-108331515D01*
X119945645Y-108282760D01*
X119863555Y-108244481D01*
X119811118Y-108198310D01*
X119791966Y-108131116D01*
X119812182Y-108064235D01*
X119863555Y-108019718D01*
X120050202Y-107932684D01*
X120226717Y-107809087D01*
X120379087Y-107656717D01*
X120502684Y-107480202D01*
X120593752Y-107284907D01*
X120649523Y-107076765D01*
X120668304Y-106862100D01*
X120649523Y-106647435D01*
X120601044Y-106466509D01*
X120593754Y-106439300D01*
X120593753Y-106439299D01*
X120593752Y-106439293D01*
X120502684Y-106243998D01*
X120485962Y-106220117D01*
X120379090Y-106067487D01*
X120379085Y-106067481D01*
X120226718Y-105915114D01*
X120226712Y-105915109D01*
X120050203Y-105791516D01*
X120050201Y-105791515D01*
X119895337Y-105719301D01*
X119854907Y-105700448D01*
X119854903Y-105700447D01*
X119854899Y-105700445D01*
X119646770Y-105644678D01*
X119646760Y-105644676D01*
X119432101Y-105625896D01*
X119432099Y-105625896D01*
X119217439Y-105644676D01*
X119217429Y-105644678D01*
X119009300Y-105700445D01*
X119009291Y-105700449D01*
X118813998Y-105791515D01*
X118813996Y-105791516D01*
X118637487Y-105915109D01*
X118637481Y-105915114D01*
X118485114Y-106067481D01*
X118485109Y-106067487D01*
X118361516Y-106243996D01*
X118361515Y-106243998D01*
X118270449Y-106439291D01*
X118270445Y-106439300D01*
X118214678Y-106647429D01*
X118214676Y-106647439D01*
X118195896Y-106862099D01*
X118195896Y-106862100D01*
X118214676Y-107076760D01*
X118214678Y-107076770D01*
X118270445Y-107284899D01*
X118270447Y-107284903D01*
X118270448Y-107284907D01*
X118315982Y-107382554D01*
X118361515Y-107480201D01*
X118361516Y-107480203D01*
X118485109Y-107656712D01*
X118485114Y-107656718D01*
X118637481Y-107809085D01*
X118637487Y-107809090D01*
X118813996Y-107932683D01*
X118813998Y-107932684D01*
X119000642Y-108019718D01*
X119053081Y-108065890D01*
X119072233Y-108133084D01*
X119052017Y-108199965D01*
X119000642Y-108244482D01*
X118813998Y-108331515D01*
X118813996Y-108331516D01*
X118637487Y-108455109D01*
X118637481Y-108455114D01*
X118485114Y-108607481D01*
X118485109Y-108607487D01*
X118361516Y-108783996D01*
X118361515Y-108783998D01*
X118270449Y-108979291D01*
X118270445Y-108979300D01*
X118214678Y-109187429D01*
X118214676Y-109187439D01*
X118195896Y-109402099D01*
X118195896Y-109402100D01*
X118214676Y-109616760D01*
X118214678Y-109616770D01*
X118270445Y-109824899D01*
X118270447Y-109824903D01*
X118270448Y-109824907D01*
X118308885Y-109907334D01*
X118361515Y-110020201D01*
X118361516Y-110020203D01*
X118485109Y-110196712D01*
X118485114Y-110196718D01*
X118637481Y-110349085D01*
X118637487Y-110349090D01*
X118813996Y-110472683D01*
X118813998Y-110472684D01*
X119000642Y-110559718D01*
X119053081Y-110605890D01*
X119072233Y-110673084D01*
X119052017Y-110739965D01*
X119000642Y-110784482D01*
X118813998Y-110871515D01*
X118813996Y-110871516D01*
X118637487Y-110995109D01*
X118637481Y-110995114D01*
X118485114Y-111147481D01*
X118485109Y-111147487D01*
X118361516Y-111323996D01*
X118361515Y-111323998D01*
X118270449Y-111519291D01*
X118270445Y-111519300D01*
X118214678Y-111727429D01*
X118214676Y-111727439D01*
X118195896Y-111942099D01*
X118195896Y-111942100D01*
X118214676Y-112156760D01*
X118214678Y-112156770D01*
X118270445Y-112364899D01*
X118270447Y-112364903D01*
X118270448Y-112364907D01*
X118300840Y-112430082D01*
X118361515Y-112560201D01*
X118361516Y-112560203D01*
X118485109Y-112736712D01*
X118485114Y-112736718D01*
X118637481Y-112889085D01*
X118637487Y-112889090D01*
X118813996Y-113012683D01*
X118813998Y-113012684D01*
X119000644Y-113099718D01*
X119053082Y-113145890D01*
X119072234Y-113213084D01*
X119052018Y-113279965D01*
X119000643Y-113324482D01*
X118813998Y-113411516D01*
X118813996Y-113411517D01*
X118637487Y-113535110D01*
X118637481Y-113535115D01*
X118485114Y-113687482D01*
X118485109Y-113687488D01*
X118361516Y-113863997D01*
X118361515Y-113863999D01*
X118270449Y-114059292D01*
X118270445Y-114059301D01*
X118214678Y-114267430D01*
X118214676Y-114267440D01*
X118195896Y-114482100D01*
X118195896Y-114482101D01*
X118214676Y-114696761D01*
X118214678Y-114696771D01*
X118270445Y-114904900D01*
X118270447Y-114904904D01*
X118270448Y-114904908D01*
X118305131Y-114979285D01*
X118361515Y-115100202D01*
X118361516Y-115100204D01*
X118485109Y-115276713D01*
X118485114Y-115276719D01*
X118637481Y-115429086D01*
X118637487Y-115429091D01*
X118813996Y-115552684D01*
X118813998Y-115552685D01*
X119000642Y-115639719D01*
X119053080Y-115685890D01*
X119072232Y-115753084D01*
X119052016Y-115819965D01*
X119000641Y-115864482D01*
X118813998Y-115951515D01*
X118813996Y-115951516D01*
X118637487Y-116075109D01*
X118637481Y-116075114D01*
X118485114Y-116227481D01*
X118485109Y-116227487D01*
X118361516Y-116403996D01*
X118361515Y-116403998D01*
X118270449Y-116599291D01*
X118270445Y-116599300D01*
X118214678Y-116807429D01*
X118214676Y-116807439D01*
X118195896Y-117022099D01*
X118195896Y-117022100D01*
X118214676Y-117236760D01*
X118214678Y-117236770D01*
X118270445Y-117444899D01*
X118270447Y-117444903D01*
X118270448Y-117444907D01*
X118305906Y-117520946D01*
X118361515Y-117640201D01*
X118361516Y-117640203D01*
X118485109Y-117816712D01*
X118485114Y-117816718D01*
X118637481Y-117969085D01*
X118637487Y-117969090D01*
X118662387Y-117986525D01*
X118706012Y-118041101D01*
X118713206Y-118110599D01*
X118681684Y-118172954D01*
X118621454Y-118208369D01*
X118591264Y-118212100D01*
X118534255Y-118212100D01*
X118474727Y-118218501D01*
X118474720Y-118218503D01*
X118340013Y-118268745D01*
X118340006Y-118268749D01*
X118224912Y-118354909D01*
X118224909Y-118354912D01*
X118138749Y-118470006D01*
X118138745Y-118470013D01*
X118088503Y-118604720D01*
X118088501Y-118604727D01*
X118082100Y-118664255D01*
X116172600Y-118664255D01*
X116172600Y-88675776D01*
X116192285Y-88608737D01*
X116208919Y-88588095D01*
X117041201Y-87755813D01*
X118766600Y-87755813D01*
X118766600Y-87968386D01*
X118789995Y-88116100D01*
X118799854Y-88178343D01*
X118860860Y-88366100D01*
X118865544Y-88380514D01*
X118962051Y-88569920D01*
X119086990Y-88741886D01*
X119237313Y-88892209D01*
X119409279Y-89017148D01*
X119409281Y-89017149D01*
X119409284Y-89017151D01*
X119598688Y-89113657D01*
X119800857Y-89179346D01*
X120010813Y-89212600D01*
X120010814Y-89212600D01*
X120223386Y-89212600D01*
X120223387Y-89212600D01*
X120433343Y-89179346D01*
X120635512Y-89113657D01*
X120824916Y-89017151D01*
X120846889Y-89001186D01*
X120996886Y-88892209D01*
X120996888Y-88892206D01*
X120996892Y-88892204D01*
X121147204Y-88741892D01*
X121147206Y-88741888D01*
X121147209Y-88741886D01*
X121272148Y-88569920D01*
X121272147Y-88569920D01*
X121272151Y-88569916D01*
X121368657Y-88380512D01*
X121434346Y-88178343D01*
X121467600Y-87968387D01*
X121467600Y-87755813D01*
X121434346Y-87545857D01*
X121368657Y-87343688D01*
X121304746Y-87218255D01*
X123339100Y-87218255D01*
X123339100Y-87866100D01*
X124256088Y-87866100D01*
X124223175Y-87923107D01*
X124189100Y-88050274D01*
X124189100Y-88181926D01*
X124223175Y-88309093D01*
X124256088Y-88366100D01*
X123339100Y-88366100D01*
X123339100Y-89013944D01*
X123345501Y-89073472D01*
X123345503Y-89073479D01*
X123395745Y-89208186D01*
X123395749Y-89208193D01*
X123481909Y-89323287D01*
X123481912Y-89323290D01*
X123597006Y-89409450D01*
X123597013Y-89409454D01*
X123731720Y-89459696D01*
X123731727Y-89459698D01*
X123791255Y-89466099D01*
X123791272Y-89466100D01*
X124439100Y-89466100D01*
X124439100Y-88549112D01*
X124496107Y-88582025D01*
X124623274Y-88616100D01*
X124754926Y-88616100D01*
X124882093Y-88582025D01*
X124939100Y-88549112D01*
X124939100Y-89466100D01*
X125586928Y-89466100D01*
X125586944Y-89466099D01*
X125646472Y-89459698D01*
X125646479Y-89459696D01*
X125781186Y-89409454D01*
X125781193Y-89409450D01*
X125896287Y-89323290D01*
X125896290Y-89323287D01*
X125982450Y-89208193D01*
X125982454Y-89208186D01*
X126032696Y-89073479D01*
X126032698Y-89073472D01*
X126039099Y-89013944D01*
X126039100Y-89013927D01*
X126039100Y-88956936D01*
X126058785Y-88889897D01*
X126111589Y-88844142D01*
X126180747Y-88834198D01*
X126244303Y-88863223D01*
X126264675Y-88885813D01*
X126282109Y-88910712D01*
X126282114Y-88910718D01*
X126434481Y-89063085D01*
X126434487Y-89063090D01*
X126610996Y-89186683D01*
X126610998Y-89186684D01*
X126806293Y-89277752D01*
X127014435Y-89333523D01*
X127186167Y-89348547D01*
X127229099Y-89352304D01*
X127229100Y-89352304D01*
X127229101Y-89352304D01*
X127264877Y-89349173D01*
X127443765Y-89333523D01*
X127651907Y-89277752D01*
X127847202Y-89186684D01*
X128023717Y-89063087D01*
X128176087Y-88910717D01*
X128299684Y-88734202D01*
X128386718Y-88547557D01*
X128432889Y-88495119D01*
X128500082Y-88475967D01*
X128566964Y-88496182D01*
X128611481Y-88547558D01*
X128698514Y-88734201D01*
X128698515Y-88734203D01*
X128822108Y-88910712D01*
X128822113Y-88910718D01*
X128974480Y-89063085D01*
X128974486Y-89063090D01*
X129150995Y-89186683D01*
X129150997Y-89186684D01*
X129346292Y-89277752D01*
X129554434Y-89333523D01*
X129726166Y-89348547D01*
X129769098Y-89352304D01*
X129769099Y-89352304D01*
X129769100Y-89352304D01*
X129804876Y-89349173D01*
X129983764Y-89333523D01*
X130191906Y-89277752D01*
X130387201Y-89186684D01*
X130563716Y-89063087D01*
X130716086Y-88910717D01*
X130839683Y-88734202D01*
X130926717Y-88547555D01*
X130972889Y-88495117D01*
X131040082Y-88475965D01*
X131106964Y-88496181D01*
X131151481Y-88547556D01*
X131238515Y-88734201D01*
X131238516Y-88734203D01*
X131362109Y-88910712D01*
X131362114Y-88910718D01*
X131514481Y-89063085D01*
X131514487Y-89063090D01*
X131690996Y-89186683D01*
X131690998Y-89186684D01*
X131886293Y-89277752D01*
X132094435Y-89333523D01*
X132266167Y-89348547D01*
X132309099Y-89352304D01*
X132309100Y-89352304D01*
X132309101Y-89352304D01*
X132344877Y-89349173D01*
X132523765Y-89333523D01*
X132731907Y-89277752D01*
X132927202Y-89186684D01*
X133103717Y-89063087D01*
X133256087Y-88910717D01*
X133379684Y-88734202D01*
X133470752Y-88538907D01*
X133526523Y-88330765D01*
X133545304Y-88116100D01*
X133526523Y-87901435D01*
X133482200Y-87736017D01*
X133470754Y-87693300D01*
X133470753Y-87693299D01*
X133470752Y-87693293D01*
X133379684Y-87497998D01*
X133309107Y-87397204D01*
X133256090Y-87321487D01*
X133256085Y-87321481D01*
X133152859Y-87218255D01*
X145564100Y-87218255D01*
X145564100Y-87866100D01*
X146481088Y-87866100D01*
X146448175Y-87923107D01*
X146414100Y-88050274D01*
X146414100Y-88181926D01*
X146448175Y-88309093D01*
X146481088Y-88366100D01*
X145564100Y-88366100D01*
X145564100Y-89013944D01*
X145570501Y-89073472D01*
X145570503Y-89073479D01*
X145620745Y-89208186D01*
X145620749Y-89208193D01*
X145706909Y-89323287D01*
X145706912Y-89323290D01*
X145822006Y-89409450D01*
X145822013Y-89409454D01*
X145956720Y-89459696D01*
X145956727Y-89459698D01*
X146016255Y-89466099D01*
X146016272Y-89466100D01*
X146664100Y-89466100D01*
X146664100Y-88549112D01*
X146721107Y-88582025D01*
X146848274Y-88616100D01*
X146979926Y-88616100D01*
X147107093Y-88582025D01*
X147164100Y-88549112D01*
X147164100Y-89466100D01*
X147811928Y-89466100D01*
X147811944Y-89466099D01*
X147871472Y-89459698D01*
X147871479Y-89459696D01*
X148006186Y-89409454D01*
X148006193Y-89409450D01*
X148121287Y-89323290D01*
X148121290Y-89323287D01*
X148207450Y-89208193D01*
X148207454Y-89208186D01*
X148257696Y-89073479D01*
X148257698Y-89073472D01*
X148264099Y-89013944D01*
X148264100Y-89013927D01*
X148264100Y-88956936D01*
X148283785Y-88889897D01*
X148336589Y-88844142D01*
X148405747Y-88834198D01*
X148469303Y-88863223D01*
X148489675Y-88885813D01*
X148507109Y-88910712D01*
X148507114Y-88910718D01*
X148659481Y-89063085D01*
X148659487Y-89063090D01*
X148835996Y-89186683D01*
X148835998Y-89186684D01*
X149031293Y-89277752D01*
X149239435Y-89333523D01*
X149411167Y-89348547D01*
X149454099Y-89352304D01*
X149454100Y-89352304D01*
X149454101Y-89352304D01*
X149489877Y-89349173D01*
X149668765Y-89333523D01*
X149876907Y-89277752D01*
X150072202Y-89186684D01*
X150248717Y-89063087D01*
X150401087Y-88910717D01*
X150524684Y-88734202D01*
X150611718Y-88547557D01*
X150657889Y-88495119D01*
X150725082Y-88475967D01*
X150791964Y-88496182D01*
X150836481Y-88547558D01*
X150923514Y-88734201D01*
X150923515Y-88734203D01*
X151047108Y-88910712D01*
X151047113Y-88910718D01*
X151199480Y-89063085D01*
X151199486Y-89063090D01*
X151375995Y-89186683D01*
X151375997Y-89186684D01*
X151571292Y-89277752D01*
X151779434Y-89333523D01*
X151951166Y-89348547D01*
X151994098Y-89352304D01*
X151994099Y-89352304D01*
X151994100Y-89352304D01*
X152029876Y-89349173D01*
X152208764Y-89333523D01*
X152416906Y-89277752D01*
X152612201Y-89186684D01*
X152788716Y-89063087D01*
X152941086Y-88910717D01*
X153064683Y-88734202D01*
X153151717Y-88547555D01*
X153197889Y-88495117D01*
X153265082Y-88475965D01*
X153331964Y-88496181D01*
X153376481Y-88547556D01*
X153463515Y-88734201D01*
X153463516Y-88734203D01*
X153587109Y-88910712D01*
X153587114Y-88910718D01*
X153739481Y-89063085D01*
X153739487Y-89063090D01*
X153915996Y-89186683D01*
X153915998Y-89186684D01*
X154111293Y-89277752D01*
X154319435Y-89333523D01*
X154491167Y-89348547D01*
X154534099Y-89352304D01*
X154534100Y-89352304D01*
X154534101Y-89352304D01*
X154569877Y-89349173D01*
X154748765Y-89333523D01*
X154956907Y-89277752D01*
X155152202Y-89186684D01*
X155328717Y-89063087D01*
X155481087Y-88910717D01*
X155604684Y-88734202D01*
X155691718Y-88547555D01*
X155737890Y-88495118D01*
X155805084Y-88475966D01*
X155871965Y-88496182D01*
X155916481Y-88547555D01*
X155948444Y-88616100D01*
X156003515Y-88734201D01*
X156003516Y-88734203D01*
X156127109Y-88910712D01*
X156127114Y-88910718D01*
X156279481Y-89063085D01*
X156279487Y-89063090D01*
X156455996Y-89186683D01*
X156455998Y-89186684D01*
X156651293Y-89277752D01*
X156859435Y-89333523D01*
X157031167Y-89348547D01*
X157074099Y-89352304D01*
X157074100Y-89352304D01*
X157074101Y-89352304D01*
X157109877Y-89349173D01*
X157288765Y-89333523D01*
X157496907Y-89277752D01*
X157692202Y-89186684D01*
X157868717Y-89063087D01*
X158021087Y-88910717D01*
X158144684Y-88734202D01*
X158231718Y-88547555D01*
X158277890Y-88495118D01*
X158345084Y-88475966D01*
X158411965Y-88496182D01*
X158456481Y-88547555D01*
X158488444Y-88616100D01*
X158543515Y-88734201D01*
X158543516Y-88734203D01*
X158667109Y-88910712D01*
X158667114Y-88910718D01*
X158819481Y-89063085D01*
X158819487Y-89063090D01*
X158995996Y-89186683D01*
X158995998Y-89186684D01*
X159191293Y-89277752D01*
X159399435Y-89333523D01*
X159571167Y-89348547D01*
X159614099Y-89352304D01*
X159614100Y-89352304D01*
X159614101Y-89352304D01*
X159649877Y-89349173D01*
X159828765Y-89333523D01*
X160036907Y-89277752D01*
X160232202Y-89186684D01*
X160408717Y-89063087D01*
X160561087Y-88910717D01*
X160684684Y-88734202D01*
X160775752Y-88538907D01*
X160831523Y-88330765D01*
X160850304Y-88116100D01*
X160831523Y-87901435D01*
X160792504Y-87755813D01*
X164232600Y-87755813D01*
X164232600Y-87968386D01*
X164255995Y-88116100D01*
X164265854Y-88178343D01*
X164326860Y-88366100D01*
X164331544Y-88380514D01*
X164428051Y-88569920D01*
X164552990Y-88741886D01*
X164703313Y-88892209D01*
X164875279Y-89017148D01*
X164875281Y-89017149D01*
X164875284Y-89017151D01*
X165064688Y-89113657D01*
X165266857Y-89179346D01*
X165476813Y-89212600D01*
X165476814Y-89212600D01*
X165689386Y-89212600D01*
X165689387Y-89212600D01*
X165899343Y-89179346D01*
X166101512Y-89113657D01*
X166290916Y-89017151D01*
X166312889Y-89001186D01*
X166462886Y-88892209D01*
X166462888Y-88892206D01*
X166462892Y-88892204D01*
X166613204Y-88741892D01*
X166613206Y-88741888D01*
X166613209Y-88741886D01*
X166738148Y-88569920D01*
X166738147Y-88569920D01*
X166738151Y-88569916D01*
X166834657Y-88380512D01*
X166900346Y-88178343D01*
X166933600Y-87968387D01*
X166933600Y-87755813D01*
X166900346Y-87545857D01*
X166834657Y-87343688D01*
X166738151Y-87154284D01*
X166738149Y-87154281D01*
X166738148Y-87154279D01*
X166613209Y-86982313D01*
X166462886Y-86831990D01*
X166290920Y-86707051D01*
X166101514Y-86610544D01*
X166101513Y-86610543D01*
X166101512Y-86610543D01*
X165899343Y-86544854D01*
X165899341Y-86544853D01*
X165899340Y-86544853D01*
X165738057Y-86519308D01*
X165689387Y-86511600D01*
X165476813Y-86511600D01*
X165428142Y-86519308D01*
X165266860Y-86544853D01*
X165064685Y-86610544D01*
X164875279Y-86707051D01*
X164703313Y-86831990D01*
X164552990Y-86982313D01*
X164428051Y-87154279D01*
X164331544Y-87343685D01*
X164265853Y-87545860D01*
X164232600Y-87755813D01*
X160792504Y-87755813D01*
X160787200Y-87736017D01*
X160775754Y-87693300D01*
X160775753Y-87693299D01*
X160775752Y-87693293D01*
X160684684Y-87497998D01*
X160614107Y-87397204D01*
X160561090Y-87321487D01*
X160561085Y-87321481D01*
X160408718Y-87169114D01*
X160408712Y-87169109D01*
X160232203Y-87045516D01*
X160232201Y-87045515D01*
X160096663Y-86982313D01*
X160036907Y-86954448D01*
X160036903Y-86954447D01*
X160036899Y-86954445D01*
X159828770Y-86898678D01*
X159828760Y-86898676D01*
X159614101Y-86879896D01*
X159614099Y-86879896D01*
X159399439Y-86898676D01*
X159399429Y-86898678D01*
X159191300Y-86954445D01*
X159191291Y-86954449D01*
X158995998Y-87045515D01*
X158995996Y-87045516D01*
X158819487Y-87169109D01*
X158819481Y-87169114D01*
X158667114Y-87321481D01*
X158667109Y-87321487D01*
X158543516Y-87497996D01*
X158543515Y-87497998D01*
X158456482Y-87684642D01*
X158410310Y-87737081D01*
X158343116Y-87756233D01*
X158276235Y-87736017D01*
X158231718Y-87684642D01*
X158144684Y-87497998D01*
X158144683Y-87497996D01*
X158021090Y-87321487D01*
X158021085Y-87321481D01*
X157868718Y-87169114D01*
X157868712Y-87169109D01*
X157692203Y-87045516D01*
X157692201Y-87045515D01*
X157556663Y-86982313D01*
X157496907Y-86954448D01*
X157496903Y-86954447D01*
X157496899Y-86954445D01*
X157288770Y-86898678D01*
X157288760Y-86898676D01*
X157074101Y-86879896D01*
X157074099Y-86879896D01*
X156859439Y-86898676D01*
X156859429Y-86898678D01*
X156651300Y-86954445D01*
X156651291Y-86954449D01*
X156455998Y-87045515D01*
X156455996Y-87045516D01*
X156279487Y-87169109D01*
X156279481Y-87169114D01*
X156127114Y-87321481D01*
X156127109Y-87321487D01*
X156003516Y-87497996D01*
X156003515Y-87497998D01*
X155916482Y-87684642D01*
X155870310Y-87737081D01*
X155803116Y-87756233D01*
X155736235Y-87736017D01*
X155691718Y-87684642D01*
X155604684Y-87497998D01*
X155604683Y-87497996D01*
X155481090Y-87321487D01*
X155481085Y-87321481D01*
X155328718Y-87169114D01*
X155328712Y-87169109D01*
X155152203Y-87045516D01*
X155152201Y-87045515D01*
X155016663Y-86982313D01*
X154956907Y-86954448D01*
X154956903Y-86954447D01*
X154956899Y-86954445D01*
X154748770Y-86898678D01*
X154748760Y-86898676D01*
X154534101Y-86879896D01*
X154534099Y-86879896D01*
X154319439Y-86898676D01*
X154319429Y-86898678D01*
X154111300Y-86954445D01*
X154111291Y-86954449D01*
X153915998Y-87045515D01*
X153915996Y-87045516D01*
X153739487Y-87169109D01*
X153739481Y-87169114D01*
X153587114Y-87321481D01*
X153587109Y-87321487D01*
X153463516Y-87497996D01*
X153463515Y-87497998D01*
X153376481Y-87684643D01*
X153330308Y-87737082D01*
X153263115Y-87756234D01*
X153196234Y-87736018D01*
X153151717Y-87684643D01*
X153135644Y-87650175D01*
X153064683Y-87497998D01*
X152994106Y-87397204D01*
X152941089Y-87321487D01*
X152941084Y-87321481D01*
X152788717Y-87169114D01*
X152788711Y-87169109D01*
X152612202Y-87045516D01*
X152612200Y-87045515D01*
X152476662Y-86982313D01*
X152416906Y-86954448D01*
X152416902Y-86954447D01*
X152416898Y-86954445D01*
X152208769Y-86898678D01*
X152208759Y-86898676D01*
X151994100Y-86879896D01*
X151994098Y-86879896D01*
X151779438Y-86898676D01*
X151779428Y-86898678D01*
X151571299Y-86954445D01*
X151571290Y-86954449D01*
X151375997Y-87045515D01*
X151375995Y-87045516D01*
X151199486Y-87169109D01*
X151199480Y-87169114D01*
X151047113Y-87321481D01*
X151047108Y-87321487D01*
X150923515Y-87497996D01*
X150923514Y-87497998D01*
X150836481Y-87684641D01*
X150790308Y-87737080D01*
X150723115Y-87756232D01*
X150656234Y-87736016D01*
X150611717Y-87684641D01*
X150595645Y-87650175D01*
X150524684Y-87497998D01*
X150454107Y-87397204D01*
X150401090Y-87321487D01*
X150401085Y-87321481D01*
X150248718Y-87169114D01*
X150248712Y-87169109D01*
X150072203Y-87045516D01*
X150072201Y-87045515D01*
X149936663Y-86982313D01*
X149876907Y-86954448D01*
X149876903Y-86954447D01*
X149876899Y-86954445D01*
X149668770Y-86898678D01*
X149668760Y-86898676D01*
X149454101Y-86879896D01*
X149454099Y-86879896D01*
X149239439Y-86898676D01*
X149239429Y-86898678D01*
X149031300Y-86954445D01*
X149031291Y-86954449D01*
X148835998Y-87045515D01*
X148835996Y-87045516D01*
X148659487Y-87169109D01*
X148659481Y-87169114D01*
X148507114Y-87321481D01*
X148507106Y-87321490D01*
X148489674Y-87346387D01*
X148435097Y-87390012D01*
X148365599Y-87397204D01*
X148303244Y-87365681D01*
X148267831Y-87305451D01*
X148264100Y-87275263D01*
X148264100Y-87218272D01*
X148264099Y-87218255D01*
X148257698Y-87158727D01*
X148257696Y-87158720D01*
X148207454Y-87024013D01*
X148207450Y-87024006D01*
X148121290Y-86908912D01*
X148121287Y-86908909D01*
X148006193Y-86822749D01*
X148006186Y-86822745D01*
X147871479Y-86772503D01*
X147871472Y-86772501D01*
X147811944Y-86766100D01*
X147164100Y-86766100D01*
X147164100Y-87683088D01*
X147107093Y-87650175D01*
X146979926Y-87616100D01*
X146848274Y-87616100D01*
X146721107Y-87650175D01*
X146664100Y-87683088D01*
X146664100Y-86766100D01*
X146016255Y-86766100D01*
X145956727Y-86772501D01*
X145956720Y-86772503D01*
X145822013Y-86822745D01*
X145822006Y-86822749D01*
X145706912Y-86908909D01*
X145706909Y-86908912D01*
X145620749Y-87024006D01*
X145620745Y-87024013D01*
X145570503Y-87158720D01*
X145570501Y-87158727D01*
X145564100Y-87218255D01*
X133152859Y-87218255D01*
X133103718Y-87169114D01*
X133103712Y-87169109D01*
X132927203Y-87045516D01*
X132927201Y-87045515D01*
X132791663Y-86982313D01*
X132731907Y-86954448D01*
X132731903Y-86954447D01*
X132731899Y-86954445D01*
X132523770Y-86898678D01*
X132523760Y-86898676D01*
X132309101Y-86879896D01*
X132309099Y-86879896D01*
X132094439Y-86898676D01*
X132094429Y-86898678D01*
X131886300Y-86954445D01*
X131886291Y-86954449D01*
X131690998Y-87045515D01*
X131690996Y-87045516D01*
X131514487Y-87169109D01*
X131514481Y-87169114D01*
X131362114Y-87321481D01*
X131362109Y-87321487D01*
X131238516Y-87497996D01*
X131238515Y-87497998D01*
X131151481Y-87684643D01*
X131105308Y-87737082D01*
X131038115Y-87756234D01*
X130971234Y-87736018D01*
X130926717Y-87684643D01*
X130910644Y-87650175D01*
X130839683Y-87497998D01*
X130769106Y-87397204D01*
X130716089Y-87321487D01*
X130716084Y-87321481D01*
X130563717Y-87169114D01*
X130563711Y-87169109D01*
X130387202Y-87045516D01*
X130387200Y-87045515D01*
X130251662Y-86982313D01*
X130191906Y-86954448D01*
X130191902Y-86954447D01*
X130191898Y-86954445D01*
X129983769Y-86898678D01*
X129983759Y-86898676D01*
X129769100Y-86879896D01*
X129769098Y-86879896D01*
X129554438Y-86898676D01*
X129554428Y-86898678D01*
X129346299Y-86954445D01*
X129346290Y-86954449D01*
X129150997Y-87045515D01*
X129150995Y-87045516D01*
X128974486Y-87169109D01*
X128974480Y-87169114D01*
X128822113Y-87321481D01*
X128822108Y-87321487D01*
X128698515Y-87497996D01*
X128698514Y-87497998D01*
X128611481Y-87684641D01*
X128565308Y-87737080D01*
X128498115Y-87756232D01*
X128431234Y-87736016D01*
X128386717Y-87684641D01*
X128370645Y-87650175D01*
X128299684Y-87497998D01*
X128229107Y-87397204D01*
X128176090Y-87321487D01*
X128176085Y-87321481D01*
X128023718Y-87169114D01*
X128023712Y-87169109D01*
X127847203Y-87045516D01*
X127847201Y-87045515D01*
X127711663Y-86982313D01*
X127651907Y-86954448D01*
X127651903Y-86954447D01*
X127651899Y-86954445D01*
X127443770Y-86898678D01*
X127443760Y-86898676D01*
X127229101Y-86879896D01*
X127229099Y-86879896D01*
X127014439Y-86898676D01*
X127014429Y-86898678D01*
X126806300Y-86954445D01*
X126806291Y-86954449D01*
X126610998Y-87045515D01*
X126610996Y-87045516D01*
X126434487Y-87169109D01*
X126434481Y-87169114D01*
X126282114Y-87321481D01*
X126282106Y-87321490D01*
X126264674Y-87346387D01*
X126210097Y-87390012D01*
X126140599Y-87397204D01*
X126078244Y-87365681D01*
X126042831Y-87305451D01*
X126039100Y-87275263D01*
X126039100Y-87218272D01*
X126039099Y-87218255D01*
X126032698Y-87158727D01*
X126032696Y-87158720D01*
X125982454Y-87024013D01*
X125982450Y-87024006D01*
X125896290Y-86908912D01*
X125896287Y-86908909D01*
X125781193Y-86822749D01*
X125781186Y-86822745D01*
X125646479Y-86772503D01*
X125646472Y-86772501D01*
X125586944Y-86766100D01*
X124939100Y-86766100D01*
X124939100Y-87683088D01*
X124882093Y-87650175D01*
X124754926Y-87616100D01*
X124623274Y-87616100D01*
X124496107Y-87650175D01*
X124439100Y-87683088D01*
X124439100Y-86766100D01*
X123791255Y-86766100D01*
X123731727Y-86772501D01*
X123731720Y-86772503D01*
X123597013Y-86822745D01*
X123597006Y-86822749D01*
X123481912Y-86908909D01*
X123481909Y-86908912D01*
X123395749Y-87024006D01*
X123395745Y-87024013D01*
X123345503Y-87158720D01*
X123345501Y-87158727D01*
X123339100Y-87218255D01*
X121304746Y-87218255D01*
X121272151Y-87154284D01*
X121272149Y-87154281D01*
X121272148Y-87154279D01*
X121147209Y-86982313D01*
X120996886Y-86831990D01*
X120824920Y-86707051D01*
X120635514Y-86610544D01*
X120635513Y-86610543D01*
X120635512Y-86610543D01*
X120433343Y-86544854D01*
X120433341Y-86544853D01*
X120433340Y-86544853D01*
X120272057Y-86519308D01*
X120223387Y-86511600D01*
X120010813Y-86511600D01*
X119962142Y-86519308D01*
X119800860Y-86544853D01*
X119598685Y-86610544D01*
X119409279Y-86707051D01*
X119237313Y-86831990D01*
X119086990Y-86982313D01*
X118962051Y-87154279D01*
X118865544Y-87343685D01*
X118799853Y-87545860D01*
X118766600Y-87755813D01*
X117041201Y-87755813D01*
X119087919Y-85709095D01*
X137371599Y-85709095D01*
X137398518Y-85844422D01*
X137398521Y-85844432D01*
X137451321Y-85971904D01*
X137451328Y-85971917D01*
X137527985Y-86086641D01*
X137527988Y-86086645D01*
X137625554Y-86184211D01*
X137625558Y-86184214D01*
X137740282Y-86260871D01*
X137740295Y-86260878D01*
X137867767Y-86313678D01*
X137867772Y-86313680D01*
X137867776Y-86313680D01*
X137867777Y-86313681D01*
X138003104Y-86340600D01*
X138003107Y-86340600D01*
X138141095Y-86340600D01*
X138232141Y-86322489D01*
X138276428Y-86313680D01*
X138403911Y-86260875D01*
X138518642Y-86184214D01*
X138616214Y-86086642D01*
X138692875Y-85971911D01*
X138745680Y-85844428D01*
X138772600Y-85709095D01*
X140371599Y-85709095D01*
X140398518Y-85844422D01*
X140398521Y-85844432D01*
X140451321Y-85971904D01*
X140451328Y-85971917D01*
X140527985Y-86086641D01*
X140527988Y-86086645D01*
X140625554Y-86184211D01*
X140625558Y-86184214D01*
X140740282Y-86260871D01*
X140740295Y-86260878D01*
X140867767Y-86313678D01*
X140867772Y-86313680D01*
X140867776Y-86313680D01*
X140867777Y-86313681D01*
X141003104Y-86340600D01*
X141003107Y-86340600D01*
X141141095Y-86340600D01*
X141232141Y-86322489D01*
X141276428Y-86313680D01*
X141403911Y-86260875D01*
X141518642Y-86184214D01*
X141616214Y-86086642D01*
X141692875Y-85971911D01*
X141745680Y-85844428D01*
X141772600Y-85709093D01*
X141772600Y-85571107D01*
X141772600Y-85571104D01*
X141745681Y-85435777D01*
X141745680Y-85435776D01*
X141745680Y-85435772D01*
X141745678Y-85435767D01*
X141692878Y-85308295D01*
X141692871Y-85308282D01*
X141616214Y-85193558D01*
X141616211Y-85193554D01*
X141518645Y-85095988D01*
X141518641Y-85095985D01*
X141403917Y-85019328D01*
X141403904Y-85019321D01*
X141276432Y-84966521D01*
X141276422Y-84966518D01*
X141141095Y-84939600D01*
X141141093Y-84939600D01*
X141003107Y-84939600D01*
X141003105Y-84939600D01*
X140867777Y-84966518D01*
X140867767Y-84966521D01*
X140740295Y-85019321D01*
X140740282Y-85019328D01*
X140625558Y-85095985D01*
X140625554Y-85095988D01*
X140527988Y-85193554D01*
X140527985Y-85193558D01*
X140451328Y-85308282D01*
X140451321Y-85308295D01*
X140398521Y-85435767D01*
X140398518Y-85435777D01*
X140371600Y-85571104D01*
X140371600Y-85571107D01*
X140371600Y-85709093D01*
X140371600Y-85709095D01*
X140371599Y-85709095D01*
X138772600Y-85709095D01*
X138772600Y-85709093D01*
X138772600Y-85571107D01*
X138772600Y-85571104D01*
X138745681Y-85435777D01*
X138745680Y-85435776D01*
X138745680Y-85435772D01*
X138745678Y-85435767D01*
X138692878Y-85308295D01*
X138692871Y-85308282D01*
X138616214Y-85193558D01*
X138616211Y-85193554D01*
X138518645Y-85095988D01*
X138518641Y-85095985D01*
X138403917Y-85019328D01*
X138403904Y-85019321D01*
X138276432Y-84966521D01*
X138276422Y-84966518D01*
X138141095Y-84939600D01*
X138141093Y-84939600D01*
X138003107Y-84939600D01*
X138003105Y-84939600D01*
X137867777Y-84966518D01*
X137867767Y-84966521D01*
X137740295Y-85019321D01*
X137740282Y-85019328D01*
X137625558Y-85095985D01*
X137625554Y-85095988D01*
X137527988Y-85193554D01*
X137527985Y-85193558D01*
X137451328Y-85308282D01*
X137451321Y-85308295D01*
X137398521Y-85435767D01*
X137398518Y-85435777D01*
X137371600Y-85571104D01*
X137371600Y-85571107D01*
X137371600Y-85709093D01*
X137371600Y-85709095D01*
X137371599Y-85709095D01*
X119087919Y-85709095D01*
X120843095Y-83953919D01*
X120904418Y-83920434D01*
X120930776Y-83917600D01*
X164769424Y-83917600D01*
X164836463Y-83937285D01*
G37*
%TD.AperFunction*%
%TD*%
%TA.AperFunction,Conductor*%
%TO.N,GND*%
G36*
X158369500Y-97996700D02*
G01*
X158496500Y-98174500D01*
X158496500Y-98911100D01*
X158318700Y-99038100D01*
X156820100Y-99647700D01*
X156312100Y-99647700D01*
X155651700Y-99622300D01*
X155311863Y-99622300D01*
X156472963Y-98461200D01*
X156492891Y-98431376D01*
X156544943Y-98353475D01*
X156594524Y-98233776D01*
X156603806Y-98187108D01*
X156636189Y-98125199D01*
X156637683Y-98123678D01*
X156792756Y-97968605D01*
X157632900Y-97945900D01*
X158369500Y-97996700D01*
G37*
%TD.AperFunction*%
%TD*%
M02*
